<?xml version="1.0" encoding="UTF-8"?>
<svg version="1.1" xmlns="http://www.w3.org/2000/svg" width="3333" height="3333">
<path d="M0 0 C2.55299709 2.28484232 5.05119661 4.62253011 7.52783203 6.98974609 C8.92680597 8.32382645 10.34202545 9.64080729 11.7578125 10.95703125 C35.21122132 33.40096766 50.26702397 63.84392748 56.98046875 95.375 C57.14417969 96.14183105 57.30789063 96.90866211 57.4765625 97.69873047 C64.80689019 133.81271058 57.16217396 166.70964618 45.35546875 200.6875 C16.49043756 283.76015031 -1.9371639 370.8144913 -15.26953125 501 C-15.35270599 502.13670135 -15.43588074 503.27340271 -15.52157593 504.44454956 C-17.50421808 531.9092638 -18.22822062 559.28623427 -18.20703125 586.8125 C-18.20676437 587.59201019 -18.2064975 588.37152039 -18.20622253 589.1746521 C-18.19531326 614.62386217 -17.85380028 639.98183811 -16.01953125 665.375 C-15.95636719 666.26916626 -15.89320313 667.16333252 -15.828125 668.08459473 C-9.09747475 762.91995164 8.64567065 855.95319921 85.98046875 1072.375 C86.27481812 1073.01719482 86.56916748 1073.65938965 86.87243652 1074.32104492 C100.34330379 1103.67430762 114.75977019 1132.43385767 130.98046875 1160.375 C131.63660156 1161.51179199 132.29273438 1162.64858398 132.96875 1163.81982422 C142.2611824 1179.9168398 151.79564285 1195.82158725 161.98046875 1211.375 C162.55361816 1212.2505957 163.12676758 1213.12619141 163.71728516 1214.02832031 C179.27510822 1237.71854322 195.50679205 1261.052169 212.98046875 1283.375 C213.84905415 1284.49081084 214.71754137 1285.6066981 215.5859375 1286.72265625 C225.65131831 1299.62544266 235.97002743 1312.32087943 246.60351562 1324.75976562 C248.02168221 1326.42334543 249.43122192 1328.09395876 250.83984375 1329.765625 C256.74824736 1336.75114277 262.83889168 1343.52358998 269.11376953 1350.18212891 C272.03109968 1353.27858622 274.90616438 1356.38747813 277.66796875 1359.625 C280.89675831 1363.38510937 284.41611213 1366.83790586 287.94091797 1370.31616211 C290.50381758 1372.8575653 292.96239722 1375.43211543 295.29296875 1378.1875 C302.48298631 1386.59322101 310.55103655 1394.46573722 318.9921875 1401.60546875 C321.595905 1403.92272617 324.03344839 1406.39521445 326.48046875 1408.875 C330.14039528 1412.57908948 333.86990669 1416.12787767 337.83203125 1419.5078125 C340.01292613 1421.40320841 342.13502621 1423.3552652 344.25268555 1425.32080078 C349.46420398 1430.1564687 354.80178885 1434.74425754 360.34375 1439.203125 C362.90466903 1441.31256349 365.3517033 1443.50387648 367.79296875 1445.75 C372.16826465 1449.73255281 376.72776141 1453.3931807 381.39916992 1457.01611328 C385.1955909 1459.96275546 388.93856312 1462.96293949 392.64941406 1466.01660156 C408.2271084 1478.82561932 424.55586975 1490.68143747 440.98046875 1502.375 C441.77420898 1502.9407373 442.56794922 1503.50647461 443.38574219 1504.08935547 C455.70811392 1512.85089904 468.22256047 1521.26141798 480.98046875 1529.375 C481.91375 1529.96925781 482.84703125 1530.56351563 483.80859375 1531.17578125 C498.65909387 1540.6062459 513.71138291 1549.6398931 528.98046875 1558.375 C529.955 1558.93509766 530.92953125 1559.49519531 531.93359375 1560.07226562 C549.9833684 1570.42223562 568.39311612 1580.0342713 586.98046875 1589.375 C587.6310022 1589.70197876 588.28153564 1590.02895752 588.95178223 1590.36584473 C660.55689688 1626.28400385 736.5606296 1653.06785145 1491.98046875 1644.375 C1495.46183399 1643.20959291 1498.94031742 1642.03581208 1502.41796875 1640.859375 C1503.23837646 1640.58262939 1504.05878418 1640.30588379 1504.90405273 1640.02075195 C1508.69234865 1638.74198781 1512.47684899 1637.45417839 1516.25390625 1636.14257812 C1525.07016533 1633.11577126 1533.78871812 1630.92779593 1542.98046875 1629.375 C1543.69871826 1629.24544922 1544.41696777 1629.11589844 1545.15698242 1628.98242188 C1586.59654861 1622.56655184 1630.55250511 1635.23064826 1664.04296875 1659.6875 C1698.0477967 1686.00348394 1721.19722346 1720.50691122 1728.29296875 1763.375 C1733.95322468 1813.71862249 1714.14970006 1855.24342384 1692.98046875 1899.375 C1692.61638916 1900.13474121 1692.25230957 1900.89448242 1691.87719727 1901.67724609 C1675.82262965 1935.16620822 1675.82262965 1935.16620822 1667.34570312 1950.84033203 C1665.70559005 1953.88533452 1664.08536081 1956.9406183 1662.46484375 1959.99609375 C1654.88558578 1974.26916407 1647.11406892 1988.40859597 1638.98046875 2002.375 C1638.34915039 2003.46361328 1637.71783203 2004.55222656 1637.06738281 2005.67382812 C1629.3896569 2018.9114744 1621.61794303 2032.08681837 1613.60546875 2045.125 C1613.00057617 2046.11008545 1612.39568359 2047.0951709 1611.77246094 2048.11010742 C1602.24528746 2063.52193768 1592.22160469 2078.6161375 1582.16796875 2093.6875 C1581.59809235 2094.54217865 1581.02821594 2095.3968573 1580.44107056 2096.2774353 C1572.11379031 2108.75924103 1563.7188125 2121.17601052 1554.98046875 2133.375 C1553.92708027 2134.85676865 1552.8736949 2136.33853952 1551.8203125 2137.8203125 C1544.07086426 2148.67496501 1536.0204607 2159.29039223 1527.89990234 2169.86914062 C1526.10322322 2172.21474156 1524.31527951 2174.56664533 1522.53125 2176.921875 C1515.65712529 2185.98559644 1508.5883171 2194.86442648 1501.37744141 2203.66210938 C1499.51532644 2205.94533179 1497.68459645 2208.25280718 1495.85546875 2210.5625 C1492.36354042 2214.94395112 1488.75289532 2219.21705052 1485.12109375 2223.48242188 C1482.15274558 2226.97290331 1479.23822444 2230.50056103 1476.35546875 2234.0625 C1472.78521006 2238.45226647 1469.0516437 2242.65327693 1465.23828125 2246.83203125 C1462.85814562 2249.51277224 1460.60315034 2252.27004134 1458.35546875 2255.0625 C1455.29150422 2258.8499006 1452.12947158 2262.34481472 1448.6328125 2265.73046875 C1446.97201274 2267.38341603 1445.44424484 2269.09751638 1443.91796875 2270.875 C1439.40472171 2276.10192308 1434.66491862 2281.11448179 1429.93945312 2286.14868164 C1427.49027658 2288.75998257 1425.04804237 2291.3773357 1422.61499023 2294.00366211 C1413.58117473 2303.73371128 1404.30815419 2313.20309555 1394.9074707 2322.57836914 C1392.51720768 2324.96320255 1390.13243117 2327.35343105 1387.74804688 2329.74414062 C1386.20214393 2331.28938372 1384.65593132 2332.83431709 1383.109375 2334.37890625 C1382.06071007 2335.43060753 1382.06071007 2335.43060753 1380.99085999 2336.5035553 C1377.00928558 2340.46644569 1372.92675417 2344.25134399 1368.66441345 2347.91123962 C1366.67155476 2349.64352192 1364.81415845 2351.47582138 1362.98046875 2353.375 C1359.87332953 2356.52420881 1356.65556571 2359.45476967 1353.30078125 2362.3359375 C1350.93999539 2364.41056749 1348.64094525 2366.53995872 1346.34423828 2368.68481445 C1340.9617338 2373.71062806 1335.47277613 2378.48567346 1329.7265625 2383.09765625 C1326.71726227 2385.59327792 1323.8413334 2388.21290852 1320.98046875 2390.875 C1315.50764059 2395.95955319 1309.80536875 2400.69653473 1303.98046875 2405.375 C1302.22931957 2406.81109985 1300.47933692 2408.24862323 1298.73046875 2409.6875 C1280.22801836 2424.80919104 1261.2944096 2439.30498484 1241.98046875 2453.375 C1241.05687561 2454.05175781 1241.05687561 2454.05175781 1240.11462402 2454.7421875 C1228.47725603 2463.26443623 1216.63202434 2471.41326568 1204.60546875 2479.375 C1202.86864417 2480.52777849 1201.13191001 2481.68069323 1199.39526367 2482.83374023 C1195.28618564 2485.56013343 1191.17374004 2488.28138858 1187.05963135 2491.00018311 C1185.2721555 2492.18212626 1183.48626408 2493.36646497 1181.70068359 2494.55126953 C1143.84536745 2519.6584821 1104.12340434 2542.16998917 1063.75390625 2562.9375 C1061.27727231 2564.22116379 1058.8131924 2565.52434046 1056.35546875 2566.84375 C980.30793281 2607.65553216 897.99511354 2639.32435808 629.98046875 2706.375 C628.55402039 2706.6044632 628.55402039 2706.6044632 627.09875488 2706.83856201 C521.83249093 2723.69801255 414.88509162 2728.32733442 -192.9821167 2595.30157471 C-194.92764654 2594.4167873 -196.87418201 2593.53424383 -198.82080078 2592.65185547 C-228.51547208 2579.1448628 -258.04473806 2564.8265735 -286.47167969 2548.80712891 C-289.28472061 2547.22593898 -292.10854705 2545.66510157 -294.93359375 2544.10546875 C-310.47772791 2535.49898103 -325.79605212 2526.53540022 -341.01953125 2517.375 C-342.07188965 2516.74400391 -343.12424805 2516.11300781 -344.20849609 2515.46289062 C-361.21488438 2505.23945833 -377.74549927 2494.37002482 -394.19972229 2483.28846741 C-398.13752283 2480.63653366 -402.08401175 2477.99824215 -406.03799438 2475.37049866 C-411.85350654 2471.50515367 -417.64374657 2467.61365408 -423.33203125 2463.5625 C-424.03166992 2463.06588867 -424.73130859 2462.56927734 -425.45214844 2462.05761719 C-427.64338725 2460.49968439 -429.83164496 2458.93763636 -432.01953125 2457.375 C-432.7347998 2456.86598145 -433.45006836 2456.35696289 -434.18701172 2455.83251953 C-446.66744745 2446.94276884 -458.86881018 2437.70875423 -471.01953125 2428.375 C-472.26152396 2427.42422466 -473.50368876 2426.47367404 -474.74609375 2425.5234375 C-477.84505262 2423.15067518 -480.93437622 2420.76569581 -484.01953125 2418.375 C-484.55529785 2417.96008301 -485.09106445 2417.54516602 -485.64306641 2417.11767578 C-500.07947807 2405.91737386 -514.11960376 2394.23180562 -528.01953125 2382.375 C-528.59832031 2381.88257812 -529.17710937 2381.39015625 -529.7734375 2380.8828125 C-536.52926914 2375.13378946 -543.23089917 2369.34086093 -549.80078125 2363.37890625 C-551.81261518 2361.56188018 -553.84613559 2359.77555608 -555.89453125 2358 C-560.81069453 2353.71436668 -565.59976706 2349.2907787 -570.39453125 2344.87060547 C-572.04766591 2343.34910563 -573.70509285 2341.83239536 -575.36328125 2340.31640625 C-580.94867064 2335.19958434 -586.45551371 2330.05040781 -591.7265625 2324.60546875 C-593.55426866 2322.82758082 -595.39900279 2321.19387929 -597.33984375 2319.546875 C-603.53746121 2314.16342755 -609.26337474 2308.27981167 -615.0559082 2302.46899414 C-617.07717393 2300.4423702 -619.10372699 2298.42114453 -621.13085938 2296.40039062 C-632.5042661 2285.0322368 -632.5042661 2285.0322368 -637.67358398 2278.93920898 C-639.66577155 2276.62396398 -641.83229373 2274.50467864 -644.01953125 2272.375 C-647.48228925 2268.94852839 -650.75578248 2265.4595187 -653.91796875 2261.7578125 C-656.83290929 2258.4527684 -659.87060089 2255.26763519 -662.89453125 2252.0625 C-667.76315805 2246.88834821 -672.37723327 2241.60515054 -676.8125 2236.05078125 C-679.27932947 2233.06002339 -681.8794216 2230.21156394 -684.51953125 2227.375 C-688.77491725 2222.79577876 -692.79276513 2218.08213122 -696.71484375 2213.2109375 C-699.22747705 2210.11912094 -701.80607765 2207.09069089 -704.39453125 2204.0625 C-708.64455122 2199.07283158 -712.73733925 2193.98031499 -716.76000977 2188.80615234 C-719.68915937 2185.04517987 -722.67668465 2181.34061707 -725.70776367 2177.66137695 C-732.92037159 2168.89631833 -739.65972031 2159.83232522 -746.34375 2150.66064453 C-748.89075819 2147.18670941 -751.48703078 2143.75062903 -754.08203125 2140.3125 C-756.06542635 2137.66981359 -758.04353184 2135.02321959 -760.01953125 2132.375 C-760.49084473 2131.7449707 -760.9621582 2131.11494141 -761.44775391 2130.46582031 C-771.88868125 2116.44748098 -781.46478597 2101.84340018 -791.10877991 2087.27279663 C-793.73096081 2083.31243306 -796.36578415 2079.36120291 -799.01953125 2075.421875 C-812.42202609 2055.52030156 -824.94495677 2035.10529642 -837.01953125 2014.375 C-837.61233887 2013.36211914 -838.20514648 2012.34923828 -838.81591797 2011.30566406 C-848.24657821 1995.18347773 -857.28171215 1978.88240764 -866.01953125 1962.375 C-866.7465625 1961.00770752 -866.7465625 1961.00770752 -867.48828125 1959.61279297 C-871.05551236 1952.89574633 -874.55344321 1946.14474774 -878.01953125 1939.375 C-878.3576886 1938.71542297 -878.69584595 1938.05584595 -879.04425049 1937.37628174 C-890.16896479 1915.6611736 -900.68129678 1893.76725077 -910.39912415 1871.38613892 C-912.18747037 1867.26857932 -914.00494874 1863.16651898 -915.859375 1859.078125 C-935.16816695 1816.37060747 -950.8600365 1771.9920773 -965.34362793 1727.44903564 C-965.98225799 1725.48937446 -966.62552441 1723.53130829 -967.27050781 1721.57373047 C-1000.82544854 1619.3038682 -1020.54352945 1512.18239016 -1032.93096924 1350.44335938 C-1033.01613557 1348.45430587 -1033.10539498 1346.4654289 -1033.19482422 1344.4765625 C-1037.7047596 1240.62760524 -1029.97296942 1135.98216336 -898.01953125 677.375 C-897.55256836 676.38322754 -897.08560547 675.39145508 -896.60449219 674.36962891 C-884.59677519 648.94814883 -872.25705285 623.5987159 -858.52050781 599.06054688 C-856.90271134 596.16598585 -855.30058187 593.26305707 -853.69921875 590.359375 C-845.47258485 575.49297059 -836.88272225 560.87015567 -828.01953125 546.375 C-827.43655273 545.41867676 -826.85357422 544.46235352 -826.25292969 543.47705078 C-810.78988803 518.1837468 -794.24684722 493.4986175 -777.01953125 469.375 C-776.49665527 468.63894531 -775.9737793 467.90289063 -775.43505859 467.14453125 C-763.13488398 449.84351854 -750.22080296 432.99640316 -737.01953125 416.375 C-736.03339844 415.13169922 -736.03339844 415.13169922 -735.02734375 413.86328125 C-733.0332018 411.36026076 -731.02823091 408.86635541 -729.01953125 406.375 C-728.55321289 405.79524414 -728.08689453 405.21548828 -727.60644531 404.61816406 C-721.27191573 396.74895981 -714.86720332 388.95678631 -708.25878906 381.31567383 C-705.27876546 377.86514617 -702.3756452 374.36723176 -699.51953125 370.8125 C-695.16700274 365.4470194 -690.50417559 360.41111045 -685.79296875 355.36328125 C-683.65598811 353.0714159 -681.56729777 350.74741243 -679.51953125 348.375 C-675.512286 343.74677728 -671.33927695 339.27217331 -667.17578125 334.78515625 C-665.16364594 332.61620722 -663.16322649 330.43768117 -661.17578125 328.24609375 C-654.67950605 321.10400314 -647.95601409 314.22957577 -641.06958008 307.46191406 C-637.74903329 304.18249709 -634.54060373 300.87749255 -631.50390625 297.33203125 C-627.95577354 293.21342038 -624.08178033 289.54949784 -620.08203125 285.875 C-613.4166035 279.68530715 -606.91842827 273.36124107 -600.54907227 266.8671875 C-596.84735472 263.11504317 -593.0305262 259.58284274 -589.03930664 256.14086914 C-585.61278066 253.14509222 -582.32340863 250.00464947 -579.01953125 246.875 C-571.69223585 239.93410494 -564.13106876 233.30284183 -556.45703125 226.75 C-552.07336582 223.000836 -547.70206247 219.23819345 -543.34765625 215.45507812 C-533.20710937 206.64495423 -523.060881 197.88824819 -512.45629883 189.63793945 C-508.64689879 186.67030323 -504.88855485 183.64838691 -501.15478516 180.58618164 C-494.01935895 174.73416158 -486.7578066 169.10424594 -479.34765625 163.60546875 C-475.29380568 160.59341622 -471.28737339 157.52178732 -467.28173828 154.44604492 C-458.04140514 147.35744427 -448.69321683 140.48267214 -439.12548828 133.84375 C-437.03783473 132.38776533 -434.96290313 130.91526812 -432.890625 129.4375 C-390.7535868 99.49444491 -346.94900361 71.91503646 -302.01953125 46.375 C-301.0248584 45.80749023 -300.03018555 45.23998047 -299.00537109 44.65527344 C-130.52811529 -51.32503811 -130.52811529 -51.32503811 0 0 Z " fill="#FFFFFF" transform="translate(1311.01953125,331.625)"/>
</svg>
