<?xml version="1.0" encoding="UTF-8"?>
<svg version="1.1" xmlns="http://www.w3.org/2000/svg" width="1536" height="1024">
<path d="M0 0 C4.2490626 1.36269365 7.78676604 2.8935575 11.5859375 5.24609375 C12.66488281 5.90867188 13.74382813 6.57125 14.85546875 7.25390625 C15.42700684 7.60855957 15.99854492 7.96321289 16.58740234 8.32861328 C19.70399926 10.2619079 22.83327149 12.17452829 25.9609375 14.08984375 C26.61656677 14.49202118 27.27219604 14.89419861 27.94769287 15.30856323 C35.25292683 19.78261664 42.62557921 24.14131571 50 28.5 C60.72002936 34.84226614 71.39578956 41.25132347 82.03079224 47.7350769 C91.86705134 53.73009801 101.75666088 59.62878091 111.68286133 65.47338867 C133.1037067 78.1037067 133.1037067 78.1037067 135 80 C135.09492722 82.34253782 135.12559791 84.65546104 135.11352539 86.99829102 C135.11367142 87.72995483 135.11381744 88.46161865 135.1139679 89.2154541 C135.11326867 91.64496784 135.10547585 94.07440583 135.09765625 96.50390625 C135.0957921 98.18399514 135.09436819 99.86408457 135.09336853 101.54417419 C135.08954307 105.97473643 135.07971256 110.4052661 135.06866455 114.83581543 C135.05845103 119.35342976 135.05387104 123.87104934 135.04882812 128.38867188 C135.03809031 137.25912893 135.02101356 146.12956176 135 155 C131.07409578 154.13080755 128.15809934 152.48672814 124.6875 150.4296875 C124.07793457 150.0703714 123.46836914 149.7110553 122.84033203 149.34085083 C120.89073758 148.19025573 118.94531085 147.03281966 117 145.875 C115.72293303 145.11932373 114.44559163 144.36411102 113.16796875 143.609375 C110.76387083 142.18893473 108.3617535 140.76535502 105.9609375 139.33935547 C100.65332 136.20464203 95.32449681 133.10595647 90 130 C90 283.45 90 436.9 90 595 C98.84625659 531.25489492 98.84625659 531.25489492 107.34695435 467.46688843 C112.81447541 425.31365402 118.63641873 383.21280368 124.57373047 341.12353516 C125.80716509 332.37940783 127.03099816 323.63396201 128.25197792 314.88808823 C134.05651523 273.32644478 140.04768153 231.7920045 146.07400799 190.26204014 C146.37285992 188.20225015 146.67160658 186.14244492 146.97031403 184.08263397 C155.66337108 124.1383739 155.66337108 124.1383739 160 96 C164.22921596 97.63276176 168.04424587 99.67409503 171.92578125 102 C172.58568558 102.39182465 173.2455899 102.78364929 173.92549133 103.18734741 C176.05675878 104.45447252 178.18472807 105.7270154 180.3125 107 C181.78232102 107.87592843 183.25221051 108.75174196 184.72216797 109.62744141 C192.33546089 114.17000555 199.91639854 118.75422313 207.40332031 123.50292969 C213.63351016 127.43975637 219.99343244 131.15249993 226.34667969 134.88623047 C233.39175099 139.03304381 240.39391911 143.24638761 247.375 147.5 C248.31931885 148.07524414 249.2636377 148.65048828 250.23657227 149.24316406 C252.82707714 150.82453508 255.41654686 152.40713037 258 154 C258.6516944 154.24981316 259.3033888 154.49962631 259.97483152 154.75700957 C262.51269719 155.90349428 264.11261683 156.93510644 266 159 C267.24557966 163.6693281 267.08496156 168.35355474 267.02259827 173.15196228 C267.03253202 174.62870658 267.04595026 176.10543087 267.0625543 177.58211523 C267.09794029 181.64147984 267.08330136 185.69936596 267.0604564 189.75876415 C267.04443699 194.13590893 267.07436708 198.51277205 267.09837341 202.8898468 C267.13784086 211.46528798 267.13381768 220.04018418 267.1140973 228.615673 C267.09877484 235.58446942 267.0986685 242.55310983 267.10946465 249.52191353 C267.11097923 250.51308307 267.11249382 251.5042526 267.1140543 252.52545758 C267.11718435 254.53890157 267.12034377 256.55234551 267.12353223 258.56578941 C267.15153028 277.45488447 267.1296679 296.34367488 267.09134518 315.2327354 C267.05969327 331.44465501 267.07291744 347.65604014 267.1184082 363.86791992 C267.1712052 382.68703973 267.19457578 401.50583128 267.17215914 420.32502276 C267.16986235 422.33143869 267.16761026 424.33785467 267.16540337 426.34427071 C267.16430987 427.33150297 267.16321638 428.31873523 267.16208975 429.33588363 C267.15646854 436.29678378 267.17211799 443.25745056 267.19609261 450.21830559 C267.22480832 458.70091334 267.2217247 467.18278915 267.17761797 475.66534298 C267.15593448 479.99454652 267.14873871 484.32249127 267.18051529 488.65166092 C267.2092008 492.61438821 267.19640619 496.57472663 267.15038829 500.53727061 C267.14102141 501.97125295 267.14686815 503.40543125 267.16937888 504.83926748 C267.32504457 515.54740222 267.32504457 515.54740222 264.07423103 519.11114991 C261.77412146 520.66922364 259.52039484 521.84121636 257 523 C255.53189916 523.91002537 254.07421659 524.83731646 252.6328125 525.7890625 C251.13104802 526.7357084 249.62841624 527.68097955 248.125 528.625 C242.96530295 531.86754534 237.81040201 535.11576484 232.68359375 538.41015625 C231.82556152 538.95913574 230.9675293 539.50811523 230.08349609 540.07373047 C228.43393527 541.12966666 226.78700788 542.18973092 225.14306641 543.25439453 C224.39589355 543.73118652 223.6487207 544.20797852 222.87890625 544.69921875 C222.2247876 545.12033936 221.57066895 545.54145996 220.89672852 545.9753418 C219 547 219 547 215 548 C215 496.85 215 445.7 215 393 C199.49 393 183.98 393 168 393 C167.67 397.62 167.34 402.24 167 407 C166.54057509 411.18809858 166.05715727 415.36351318 165.52880859 419.54248047 C165.38384949 420.71278305 165.23889038 421.88308563 165.08953857 423.08885193 C164.61262568 426.93206909 164.13056493 430.77462132 163.6484375 434.6171875 C163.30719291 437.35514545 162.96704631 440.09323953 162.62686157 442.83132935 C161.82005975 449.32001354 161.00953764 455.80822728 160.19765246 462.29627717 C159.30132498 469.46055597 158.4091141 476.62534518 157.51730299 483.79018736 C156.38041053 492.92369318 155.24255894 502.0570769 154.10003662 511.18988037 C154.01378863 511.87933392 153.92754064 512.56878747 153.83867908 513.27913356 C153.49211108 516.04943954 153.14553903 518.819745 152.79892683 521.59004545 C151.59160926 531.2415016 150.39325186 540.89403235 149.20124412 550.5473907 C148.63567582 555.12447384 148.06793205 559.70128772 147.50050735 564.27814102 C147.19508788 566.74672265 146.89074802 569.21543812 146.58753586 571.68429184 C146.17259574 575.06217263 145.75395896 578.43957578 145.33447266 581.81689453 C145.15245993 583.31110365 145.15245993 583.31110365 144.96677017 584.83549881 C144.85339184 585.74250912 144.7400135 586.64951942 144.62319946 587.58401489 C144.47789008 588.76257899 144.47789008 588.76257899 144.32964516 589.96495247 C143.84619347 592.94951678 143.51744237 594.60452759 141.06420898 596.47949219 C140.21673096 596.99672852 139.36925293 597.51396484 138.49609375 598.046875 C137.53985107 598.63686279 136.5836084 599.22685059 135.59838867 599.8347168 C134.55529541 600.46676025 133.51220215 601.09880371 132.4375 601.75 C130.2342426 603.10525354 128.0311214 604.4607285 125.828125 605.81640625 C124.68305488 606.51727314 123.53787226 607.21795626 122.39257812 607.91845703 C117.13747953 611.14276407 111.91278281 614.41517778 106.6875 617.6875 C105.6864624 618.31301758 104.6854248 618.93853516 103.65405273 619.58300781 C97.59187929 623.37168035 91.54093919 627.17757589 85.5 631 C76.19692672 636.88623162 66.86831073 642.73114209 57.5234375 648.55078125 C54.24577466 650.59250366 50.97759028 652.64661842 47.7265625 654.73046875 C47.12376465 655.11299805 46.5209668 655.49552734 45.89990234 655.88964844 C44.39320032 656.8465536 42.89163291 657.81153128 41.390625 658.77734375 C39 660 39 660 35 660 C35.00935682 658.22364212 35.00935682 658.22364212 35.01890266 656.41139823 C35.29241131 604.21197309 35.53857556 552.01248387 35.64553833 499.81242371 C35.64716585 499.02194595 35.64879337 498.23146819 35.6504702 497.41703656 C35.68567821 480.23716977 35.71598862 463.0572976 35.74125498 445.87741338 C35.75367568 437.45220964 35.76717847 429.02700778 35.78125 420.60180664 C35.78332278 419.34420405 35.78332278 419.34420405 35.78543744 418.06119535 C35.8307222 390.89361412 35.94743634 363.72691138 36.10125751 336.55974607 C36.25897247 308.63816045 36.34449592 280.7172596 36.33939368 252.79520645 C36.33870639 248.85003483 36.33884299 244.90486362 36.33948135 240.959692 C36.33958151 240.18323793 36.33968167 239.40678386 36.33978486 238.60680088 C36.34351385 226.11542945 36.42317295 213.62564476 36.5313474 201.13478928 C36.63851955 188.57206114 36.66541375 176.01117972 36.61086051 163.44809524 C36.58351802 156.64165363 36.59422601 149.84048763 36.69989586 143.03465271 C36.79591644 136.79951929 36.79002217 130.57298977 36.70384349 124.33778926 C36.69056231 122.08578888 36.71435319 119.83319337 36.77938484 117.58209298 C37.11181995 107.46175425 37.11181995 107.46175425 34 98 C27.85490622 91.85760828 19.8461714 88.45155268 12 85 C2.98761756 80.64200593 2.98761756 80.64200593 0 77 C-1.5988643 71.08006794 -1.40589996 65.45975956 -1.171875 59.375 C-1.14946641 57.66013551 -1.13239761 55.94519369 -1.12042236 54.23022461 C-1.07480689 49.73675852 -0.9571423 45.24801882 -0.82397461 40.75640869 C-0.70075565 36.16507924 -0.64631549 31.57297837 -0.5859375 26.98046875 C-0.45760542 17.98491298 -0.25307457 8.99285085 0 0 Z M197 178 C193.61861041 202.10898067 190.33826158 226.23018627 187.14282227 250.36450195 C186.67217825 253.9187207 186.20014561 257.47275049 185.72680664 261.02661133 C182.66694515 284.00150073 179.74525355 306.98508613 177 330 C189.54 330 202.08 330 215 330 C215.31638066 311.77125913 215.57411171 293.54474992 215.72537041 275.31395817 C215.7974783 266.84852182 215.89572343 258.38491558 216.05615234 249.9206543 C216.19596507 242.54057133 216.28607494 235.16181365 216.31723893 227.78044313 C216.33545167 223.87335757 216.37803448 219.97006208 216.48022079 216.06419563 C217.6439736 200.84330656 217.6439736 200.84330656 213.62351227 186.81931686 C209.95570709 183.12326881 205.90775684 181.51166758 201 180 C199.6539956 179.35930164 198.31286559 178.70612051 197 178 Z " fill="#FFFFFF" transform="translate(776,169)"/>
<path d="M0 0 C0.29788396 35.43178201 0.52679081 70.86334358 0.66384928 106.29612107 C0.68010749 110.48403719 0.69693377 114.67195084 0.71411133 118.85986328 C0.71922638 120.11041297 0.71922638 120.11041297 0.72444477 121.38622628 C0.78093484 134.86632704 0.88338992 148.34570337 1.00298635 161.8253751 C1.12477451 175.66804938 1.19680957 189.51034561 1.22315043 203.35353363 C1.24094437 211.88854625 1.29703082 220.42151109 1.40291407 228.95589291 C1.47190418 234.81699419 1.49234189 240.67704491 1.47551791 246.53852226 C1.46722813 249.91654308 1.48666098 253.28814487 1.54967117 256.666008 C1.94606171 279.01970409 1.94606171 279.01970409 -4.57382709 286.64424121 C-6.77070832 288.85571536 -9.05461104 290.86592525 -11.50679743 292.78875518 C-13.48201955 294.39100099 -15.07736541 296.22567315 -16.6875 298.1875 C-20.3491609 302.43945384 -24.15772633 306.55475454 -27.9609375 310.6796875 C-30.51646841 313.50162389 -30.51646841 313.50162389 -30.96655655 317.0855484 C-30.21486423 325.02567319 -28.91703285 332.83155136 -27.50683594 340.67773438 C-27.25159755 342.11792528 -26.99680102 343.55819455 -26.74240875 344.99853516 C-26.1970756 348.08160657 -25.64903629 351.16417938 -25.09882355 354.24638367 C-24.21707709 359.1867119 -23.34193503 364.12819552 -22.46820068 369.06994629 C-22.31986385 369.90884698 -22.17152701 370.74774768 -22.01869512 371.61206961 C-21.71637937 373.32184002 -21.41408323 375.03161389 -21.11180639 376.74139118 C-20.65139689 379.34452138 -20.190422 381.94755094 -19.72932816 384.55056 C-16.79184325 401.13954421 -13.90481239 417.73712088 -11.03127885 434.337286 C-10.50739642 437.36329442 -9.98308922 440.38922918 -9.45879561 443.41516638 C-8.12962658 451.08658856 -6.80146269 458.75818446 -5.47373825 466.42985678 C-3.93286059 475.33292378 -2.39087661 484.23579914 -0.84887695 493.13867188 C-0.42138333 495.60687222 0.00610909 498.07507276 0.43360072 500.54327345 C0.71781303 502.18422331 1.00202701 503.82517287 1.28624266 505.46612215 C2.13030242 510.33944843 2.97425361 515.21279349 3.81811851 520.08615351 C7.098335 539.02942293 10.38215269 557.97205872 13.67292404 576.91349792 C14.27607474 580.38522695 14.87909969 583.8569778 15.48208618 587.32873535 C17.66186894 599.87928231 17.66186894 599.87928231 19.84387207 612.42944336 C23.64374728 634.2732282 27.39862312 656.12249179 31 678 C30.45947998 678.40484619 29.91895996 678.80969238 29.36206055 679.22680664 C28.64832275 679.76168701 27.93458496 680.29656738 27.19921875 680.84765625 C26.49369873 681.37625244 25.78817871 681.90484863 25.0612793 682.44946289 C23.8053354 683.39420998 22.5561532 684.3481518 21.31958008 685.31811523 C19.10301639 686.96446944 17.62384544 688.02518479 14.81079102 687.91162109 C10.79553146 686.6093559 7.66750714 684.36785953 4.21484375 681.9765625 C3.47673965 681.47458344 2.73863556 680.97260437 1.97816467 680.45541382 C-0.37401874 678.85287584 -2.71819768 677.2390388 -5.0625 675.625 C-6.64338321 674.54614637 -8.2247584 673.46801328 -9.80664062 672.390625 C-12.70875253 670.41002532 -15.60953029 668.4275717 -18.50415039 666.43603516 C-19.08419327 666.03712067 -19.66423615 665.63820618 -20.26185608 665.22720337 C-20.83544357 664.82222626 -21.40903107 664.41724915 -22 664 C-22.70706085 663.54263962 -23.4141217 663.08527924 -24.14260864 662.61405945 C-26.38247365 660.6676332 -26.68390562 659.62543417 -27.21411133 656.73901367 C-27.38682053 655.84305984 -27.55952972 654.94710602 -27.73747253 654.02400208 C-27.91305191 653.01963608 -28.08863129 652.01527008 -28.26953125 650.98046875 C-28.47326859 649.89187057 -28.67700592 648.8032724 -28.88691711 647.6816864 C-29.47690485 644.50254598 -30.05041872 641.32088037 -30.61737823 638.13756561 C-31.1558406 635.1293765 -31.70643857 632.12344229 -32.25625706 629.11731148 C-34.25165331 618.2013124 -36.20162798 607.27732477 -38.14617538 596.35217285 C-38.88268442 592.21649077 -39.62114075 588.08115717 -40.35948658 583.94580269 C-46.7683114 548.04603306 -53.11545731 512.13531661 -59.43774414 476.22021484 C-60.17848712 472.01268456 -60.91929363 467.80516547 -61.66015625 463.59765625 C-61.84142626 462.56809563 -62.02269627 461.538535 -62.2094593 460.47777557 C-64.69943036 446.33879362 -67.20663092 432.20298072 -69.7307148 418.07004929 C-70.23879335 415.2244807 -70.74632685 412.37881549 -71.25364685 409.53311157 C-71.41673749 408.61834864 -71.57982813 407.7035857 -71.74786091 406.76110268 C-72.07074896 404.95001856 -72.39361947 403.13893131 -72.71647167 401.32784081 C-73.64019549 396.14830201 -74.5677253 390.9694631 -75.49813557 385.79112148 C-76.06125885 382.65210468 -76.6209095 379.51247618 -77.17959785 376.37266731 C-77.43648087 374.93341791 -77.69487394 373.49443707 -77.95490837 372.05575371 C-78.30737866 370.10485344 -78.65408515 368.15291443 -79.00048828 366.20092773 C-79.19490509 365.11625717 -79.3893219 364.03158661 -79.58963013 362.91404724 C-79.96811937 360.22638517 -80.08010723 357.70887287 -80 355 C-81.79275845 356.45699098 -83.58417229 357.91563655 -85.375 359.375 C-86.37273438 360.18710937 -87.37046875 360.99921875 -88.3984375 361.8359375 C-91.75897885 364.28560175 -91.75897885 364.28560175 -93.25480902 367.85781634 C-93.25708734 368.61953532 -93.25936567 369.3812543 -93.26171303 370.16605568 C-93.26917852 371.04437007 -93.27664401 371.92268445 -93.28433573 372.82761443 C-93.282401 373.79841677 -93.28046626 374.76921911 -93.2784729 375.7694397 C-93.2842653 376.79612019 -93.2900577 377.82280068 -93.29602563 378.8805927 C-93.31311857 382.34311516 -93.31591011 385.80550508 -93.31884766 389.26806641 C-93.32813942 391.74123973 -93.33830695 394.2144099 -93.34928894 396.68757629 C-93.37100256 402.02359793 -93.38658768 407.35958427 -93.39665604 412.69563675 C-93.41122379 420.41072181 -93.43675517 428.1257397 -93.46498732 435.84078543 C-93.51049003 448.35705534 -93.54709042 460.87333491 -93.578125 473.38964844 C-93.60829632 485.55014745 -93.64264004 497.71062284 -93.68261719 509.87109375 C-93.68630951 510.99490941 -93.68630951 510.99490941 -93.69007643 512.14142843 C-93.70245075 515.89988927 -93.71490734 519.65834984 -93.72740483 523.41681027 C-93.8310247 554.61117481 -93.92006295 585.80556536 -94 617 C-98.07156289 616.27881536 -100.70564073 615.16790477 -104.18359375 612.89453125 C-105.19615234 612.23904297 -106.20871094 611.58355469 -107.25195312 610.90820312 C-108.30318359 610.21662109 -109.35441406 609.52503906 -110.4375 608.8125 C-112.477431 607.48501057 -114.51781615 606.15821881 -116.55859375 604.83203125 C-117.61795513 604.08760993 -118.67731651 603.34318861 -119.76877975 602.57620907 C-122.88766516 600.51902498 -125.93395513 599.23890383 -129.44804764 597.98538303 C-136.21793502 595.22889382 -141.74242865 592.08411885 -146 586 C-150.64105613 573.86739971 -148.88660444 558.7441633 -148.64139795 546.02769077 C-148.55838294 540.46806137 -148.6031092 534.90923041 -148.63171387 529.34925842 C-148.66783106 518.46322913 -148.58740744 507.5810399 -148.46823546 496.69572555 C-148.33397677 483.98779633 -148.31988161 471.2805682 -148.31138924 458.57203604 C-148.29251332 435.86142452 -148.17129536 413.15284903 -147.98925781 390.44311523 C-147.8132877 368.48046322 -147.69948909 346.51875477 -147.66113281 324.55541992 C-147.65993762 323.88046891 -147.65874242 323.2055179 -147.65751101 322.51011383 C-147.65150004 319.1097918 -147.64558661 315.7094696 -147.63969745 312.30914736 C-147.63853252 311.6378876 -147.63736758 310.96662783 -147.63616735 310.27502686 C-147.63382784 308.92120786 -147.63150967 307.56738883 -147.6292129 306.21356975 C-147.59207123 284.5237023 -147.50581865 262.83400646 -147.40880351 241.14433108 C-147.38061566 234.82219992 -147.3543712 228.50007398 -147.33285809 222.17791629 C-147.28719488 208.88107178 -147.22447196 195.58471607 -147.1102986 182.28826224 C-147.06334537 176.79708382 -147.02446684 171.30624932 -147.01131439 165.81487656 C-146.95744739 146.35477758 -146.71969637 126.941018 -144.01026967 107.63818628 C-143.79050249 106.06189443 -143.58551773 104.48345164 -143.39730427 102.90308165 C-142.37450263 94.63978448 -140.81912804 88.59484837 -134.10259628 83.22009945 C-129.94679078 80.20910585 -125.81542221 77.59078861 -121.140625 75.484375 C-114.17126578 72.19547728 -107.85361823 68.18995464 -101.4375 63.9375 C-99.36594354 62.60912032 -97.29171866 61.28489274 -95.21484375 59.96484375 C-88.9722158 55.98334059 -82.73567965 51.99237369 -76.5 48 C-74.4205936 46.66923851 -72.34116651 45.33850935 -70.26171875 44.0078125 C-66.05549223 41.31588013 -61.84981955 38.62308528 -57.64453125 35.9296875 C-55.53387099 34.57809872 -53.423194 33.22653608 -51.3125 31.875 C-50.2807666 31.21419434 -49.2490332 30.55338867 -48.18603516 29.87255859 C-43.15216999 26.65028155 -38.11419707 23.43480005 -33.06640625 20.234375 C-32.11564209 19.63141602 -31.16487793 19.02845703 -30.18530273 18.40722656 C-28.33997742 17.23696552 -26.49444366 16.06703308 -24.64868164 14.89746094 C-18.49066253 10.98301706 -12.39724433 6.98228058 -6.38818359 2.84228516 C-2.21248071 0 -2.21248071 0 0 0 Z M-59.875 104.6875 C-66.13826739 109.46514854 -72.61905265 113.9003092 -79.14794922 118.30541992 C-79.91896973 118.82724854 -80.68999023 119.34907715 -81.484375 119.88671875 C-82.16209961 120.34264404 -82.83982422 120.79856934 -83.53808594 121.26831055 C-84.35051758 121.83976807 -85.16294922 122.41122559 -86 123 C-86.64630245 123.30530608 -87.2926049 123.61061216 -87.95849228 123.92516994 C-90.55793423 125.37624973 -92.15681362 126.6432281 -94 129 C-95.20221022 134.25363499 -95.01191632 139.47438759 -94.90820312 144.82763672 C-94.90594529 146.45411568 -94.90721563 148.0806028 -94.91174316 149.70707703 C-94.91403615 154.11432316 -94.86704588 158.51982318 -94.8111515 162.92666388 C-94.76109869 167.53501342 -94.7564384 172.14340421 -94.74694824 176.75198364 C-94.72209537 185.47512217 -94.65646328 194.19745743 -94.57615232 202.92024243 C-94.48669447 212.85236427 -94.44273756 222.78452473 -94.40258884 232.71694922 C-94.31899579 253.14508095 -94.17830638 273.57248985 -94 294 C-89.09224959 290.76180768 -89.09224959 290.76180768 -84.51953125 287.08203125 C-83.91826416 286.55432129 -83.31699707 286.02661133 -82.69750977 285.48291016 C-81.76442993 284.65605713 -81.76442993 284.65605713 -80.8125 283.8125 C-75.51034667 279.16194602 -70.15918473 274.6124183 -64.66015625 270.1953125 C-63.34337891 269.10863281 -63.34337891 269.10863281 -62 268 C-61.34730888 267.60355758 -60.69461777 267.20711515 -60.02214813 266.79865932 C-56.30593903 264.23901638 -54.29420708 262.29131407 -53.27246094 257.80673409 C-53.01310654 253.68937971 -53.00920578 249.63945197 -53.09179688 245.51782227 C-53.09405544 243.94045629 -53.09278295 242.36308192 -53.08825684 240.78572083 C-53.08596666 236.51693406 -53.13291055 232.24995515 -53.1888485 227.98158765 C-53.23894873 223.51605287 -53.24356532 219.050474 -53.25305176 214.58470154 C-53.27789077 206.13428623 -53.34350386 197.6847015 -53.42384768 189.23465151 C-53.51334889 179.6120571 -53.5572733 169.98942248 -53.59741116 160.36651528 C-53.68097276 140.57721374 -53.82163498 120.78865925 -54 101 C-56.10059973 101 -58.33894699 103.50248404 -59.875 104.6875 Z " fill="#FFFFFF" transform="translate(753,169)"/>
<path d="M0 0 C2.8440126 9.83601195 5.30892291 19.60229801 6.75 29.75 C6.86512939 30.55074951 6.98025879 31.35149902 7.09887695 32.17651367 C9.24347825 48.32991651 9.14174638 64.48736341 9.11606562 80.7511934 C9.11170099 84.22539975 9.11321176 87.69960454 9.1139679 91.17381287 C9.11448936 97.1764108 9.11138226 103.17899777 9.10573006 109.18159294 C9.09756354 117.86007511 9.09499458 126.53855203 9.09374207 135.21703763 C9.0915596 149.30118889 9.08492145 163.38533432 9.07543945 177.46948242 C9.06624443 191.14168265 9.05917385 204.81388129 9.05493164 218.48608398 C9.05466892 219.33044988 9.05440619 220.17481577 9.05413551 221.0447685 C9.05283036 225.28118521 9.05156668 229.51760194 9.05032361 233.75401866 C9.03997609 268.8360166 9.0223798 303.91800776 9 339 C8.34 339.33 7.68 339.66 7 340 C4.35259572 338.58141439 1.84850909 337.10043103 -0.6875 335.5 C-1.85756592 334.77296875 -1.85756592 334.77296875 -3.05126953 334.03125 C-13.46570374 327.52095708 -23.82836535 320.88420764 -34 314 C-34.75563232 313.55994629 -35.51126465 313.11989258 -36.28979492 312.66650391 C-38 311 -38 311 -38.33959961 308.37255859 C-38.27780518 307.30859863 -38.21601074 306.24463867 -38.15234375 305.1484375 C-38.1160083 303.92825928 -38.07967285 302.70808105 -38.04223633 301.45092773 C-38.02206451 300.79148163 -38.0018927 300.13203552 -37.98110962 299.4526062 C-37.58887028 280.76592896 -42.70244959 264.85345609 -48.78759766 247.38774109 C-51.75661662 238.83363045 -54.51662523 230.21988836 -57.2421875 221.5859375 C-57.4667758 220.87471552 -57.6913641 220.16349354 -57.9227581 219.43071938 C-59.06006753 215.82734332 -60.19554543 212.22339349 -61.33016968 208.61917114 C-63.30251984 202.35669599 -65.28976275 196.09895278 -67.27815628 189.84155655 C-67.87143598 187.97389192 -68.46385139 186.10595281 -69.0562439 184.23800659 C-69.41497589 183.10799225 -69.77370789 181.97797791 -70.14331055 180.8137207 C-70.45495651 179.83152054 -70.76660248 178.84932037 -71.08769226 177.83735657 C-72.0370996 174.884617 -73.01918171 171.94245488 -74 169 C-74.33 208.27 -74.66 247.54 -75 288 C-78.27674853 287.18081287 -79.92513491 286.61210554 -82.66015625 284.91796875 C-83.36261475 284.48605225 -84.06507324 284.05413574 -84.78881836 283.60913086 C-85.5391333 283.13999268 -86.28944824 282.67085449 -87.0625 282.1875 C-87.84310791 281.70482666 -88.62371582 281.22215332 -89.42797852 280.72485352 C-91.9566981 279.15732401 -94.47926392 277.58033322 -97 276 C-97.87495117 275.45150391 -98.74990234 274.90300781 -99.65136719 274.33789062 C-114.12707674 265.24861551 -114.12707674 265.24861551 -119 262 C-119.31664498 259.4780081 -119.43477611 257.19653556 -119.42805481 254.66938782 C-119.43767374 253.90491008 -119.44729267 253.14043235 -119.45720309 252.35278863 C-119.48568257 249.77718033 -119.4924815 247.20197109 -119.49926758 244.6262207 C-119.51478398 242.78508007 -119.53147956 240.94394904 -119.54927063 239.10282898 C-119.59298219 234.09025576 -119.61638248 229.07779182 -119.63349748 224.06506371 C-119.64450157 220.93422544 -119.65878627 217.80341824 -119.67401695 214.67259789 C-119.72043727 204.87967849 -119.75399227 195.08683275 -119.7700327 185.29381591 C-119.78876364 173.98436333 -119.85015436 162.67620573 -119.94853479 151.36717159 C-120.02191877 142.62991813 -120.05690914 133.8930318 -120.06289595 125.15547436 C-120.06734471 119.93505192 -120.08814527 114.71590903 -120.14899635 109.49581337 C-120.20522934 104.58276441 -120.21379375 99.67190803 -120.18595695 94.75863838 C-120.18391998 92.9570599 -120.19894723 91.15536775 -120.2324295 89.35409927 C-120.47060025 75.75670952 -120.47060025 75.75670952 -116.86011314 71.44379234 C-114.30541489 69.62341558 -111.84645734 68.30347413 -109 67 C-107.41646397 66.0117656 -105.84388535 65.00547738 -104.2890625 63.97265625 C-102.73570402 63.00047741 -101.18099902 62.03044696 -99.625 61.0625 C-92.3321866 56.49378595 -85.12145137 51.83292109 -78 47 C-74.85148116 48.02720054 -74.04312402 48.92234371 -72.40698242 51.86865234 C-71.87606292 53.10191919 -71.359909 54.34160529 -70.85546875 55.5859375 C-70.56865738 56.26280609 -70.28184601 56.93967468 -69.98634338 57.63705444 C-69.04058865 59.87789431 -68.11408593 62.12617393 -67.1875 64.375 C-66.53208186 65.93831126 -65.87548865 67.50113034 -65.21777344 69.06347656 C-63.48458145 73.18983995 -61.76782933 77.32284499 -60.05487061 81.4576416 C-58.30682308 85.6706354 -56.54527252 89.8779752 -54.78515625 94.0859375 C-51.92708621 100.92347944 -49.07797763 107.76467301 -46.24378967 114.6121521 C-44.98208447 117.65607353 -43.70741959 120.69372345 -42.40753174 123.72149658 C-41.94304626 124.80340271 -41.47856079 125.88530884 -41 127 C-41.01451706 125.08772865 -41.01451706 125.08772865 -41.02932739 123.13682556 C-41.11405965 111.11572735 -41.14618849 99.09548272 -41.12697029 87.0740881 C-41.11877649 80.89374028 -41.12903967 74.71457696 -41.18164062 68.53442383 C-41.23173502 62.56868521 -41.23314095 56.60472969 -41.20095444 50.63888741 C-41.19720653 48.36431602 -41.21092965 46.08964587 -41.24249649 43.81529045 C-41.47319892 25.98519033 -41.47319892 25.98519033 -37.86434937 21.12213135 C-35.2817631 19.28279625 -32.94342939 18.14740864 -30 17 C-28.36355148 15.9861789 -26.74321281 14.94537518 -25.1484375 13.8671875 C-23.5588987 12.86723254 -21.96775725 11.86982051 -20.375 10.875 C-19.5809375 10.37613281 -18.786875 9.87726563 -17.96875 9.36328125 C-16.40391119 8.3807677 -14.83723153 7.40117877 -13.26855469 6.42480469 C-11.74977519 5.47090917 -10.23995496 4.50260552 -8.73925781 3.52050781 C-8.03381836 3.06256836 -7.32837891 2.60462891 -6.6015625 2.1328125 C-5.97846191 1.7217627 -5.35536133 1.31071289 -4.71337891 0.88720703 C-3 0 -3 0 0 0 Z M-40 130 C-39 132 -39 132 -39 132 Z " fill="#FFFFFF" transform="translate(484,344)"/>
<path d="M0 0 C2.94434864 24.19698645 5.74304544 48.40950182 8.45562124 72.63344908 C8.69964358 74.81238719 8.94385165 76.99130441 9.18811417 79.17021561 C10.70073494 92.6642599 12.21077197 106.15859169 13.71508789 119.65356445 C14.4671489 126.39995768 15.22193487 133.14604043 15.97968036 139.8917976 C16.45298399 144.10667356 16.92303559 148.32189422 17.39051282 152.53742015 C17.74905869 155.76153763 18.11258897 158.98509381 18.4753418 162.20874023 C18.6005571 163.34685654 18.7257724 164.48497284 18.8547821 165.65757751 C19.63071223 172.49998713 20.67407503 179.24236339 22 186 C22.18553436 184.70006607 22.18553436 184.70006607 22.37481689 183.37387085 C28.057847 143.58198869 33.79071892 103.79683987 39.83776855 64.05841064 C40.36397349 60.59964867 40.88597774 57.14029293 41.40441895 53.68035889 C42.01352796 49.61770913 42.63145123 45.55650211 43.25661087 41.49629211 C43.48466687 40.00604816 43.70969301 38.51533706 43.93153 37.02415466 C44.23323238 35.00034842 44.5471594 32.97837556 44.86181641 30.95654297 C45.03435944 29.82344696 45.20690247 28.69035095 45.38467407 27.5229187 C45.68926041 26.27407394 45.68926041 26.27407394 46 25 C46.99 24.505 46.99 24.505 48 24 C48.18480965 63.93964908 48.32492403 103.87924058 48.40852264 143.81923491 C48.41852329 148.57960456 48.42887835 153.33997339 48.43945312 158.1003418 C48.44155161 159.04768633 48.44365009 159.99503086 48.44581217 160.9710828 C48.48022632 176.12928843 48.54307229 191.28724079 48.61722237 206.44529826 C48.69315941 222.10420701 48.73670149 237.76298717 48.75270796 253.42207235 C48.76251551 262.17324699 48.78543677 270.92389862 48.84584045 279.67488289 C49.14286341 324.00927954 46.74222469 367.14589515 40.90245056 411.10862541 C39.80438473 419.392029 38.86686662 427.68958425 38 436 C35 437 35 437 32.35205078 435.70825195 C30.78946533 434.73311646 30.78946533 434.73311646 29.1953125 433.73828125 C28.35382156 433.21768379 28.35382156 433.21768379 27.49533081 432.68656921 C26.30720779 431.94892178 25.12214271 431.20632966 23.93994141 430.45922852 C22.14468124 429.32493513 20.34105176 428.20515576 18.53515625 427.08789062 C15.3327914 425.0928086 12.13930532 423.09383702 9 421 C8.1430101 420.43355774 7.2860202 419.86711548 6.40306091 419.2835083 C3.34116953 416.37394643 3.15296322 414.68222341 2.64428711 410.52514648 C2.55809931 409.87206827 2.47191151 409.21899006 2.38311195 408.5461216 C2.09780047 406.34404757 1.84417358 404.13944469 1.58984375 401.93359375 C1.38864372 400.33295206 1.18536993 398.73256991 0.98020935 397.13243103 C0.53512928 393.63027846 0.10364779 390.12679392 -0.31817627 386.62176514 C-1.01243228 380.86437232 -1.7434799 375.11198394 -2.47998047 369.35986328 C-3.56559547 360.86134523 -4.63971743 352.36146264 -5.70483398 343.86035156 C-16.08489951 261.07082257 -27.47975873 178.46951774 -40.28592873 96.0198555 C-41.5289409 88.01400608 -42.76761201 80.00749191 -44 72 C-44.12994102 71.15582268 -44.25988205 70.31164536 -44.39376068 69.4418869 C-45.13780186 64.60011166 -45.87450386 59.75731467 -46.60061455 54.912817 C-46.81869059 53.46307859 -47.03872611 52.01363326 -47.26094246 50.5645237 C-49.58917918 35.35802259 -49.58917918 35.35802259 -49 30 C-47.46557617 28.08886719 -47.46557617 28.08886719 -45.29296875 26.796875 C-44.48762695 26.29736328 -43.68228516 25.79785156 -42.85253906 25.28320312 C-41.97307617 24.77724609 -41.09361328 24.27128906 -40.1875 23.75 C-39.2912793 23.20279297 -38.39505859 22.65558594 -37.47167969 22.09179688 C-35.59701629 20.94795672 -33.71549247 19.81529245 -31.82763672 18.69335938 C-27.41283698 16.04951108 -23.0880378 13.26724165 -18.75 10.5 C-16.53977694 9.10505579 -14.32709134 7.71425102 -12.11132812 6.328125 C-10.65138535 5.40975212 -9.1972939 4.48203526 -7.74804688 3.546875 C-7.03197266 3.08796875 -6.31589844 2.6290625 -5.578125 2.15625 C-4.9377832 1.74181641 -4.29744141 1.32738281 -3.63769531 0.90039062 C-2 0 -2 0 0 0 Z " fill="#60FBEF" transform="translate(543,309)"/>
<path d="M0 0 C4.82047949 0.9640959 7.70240115 2.45157316 11.6875 5.0625 C13.12027896 5.97913941 14.55393654 6.89440634 15.98828125 7.80859375 C16.78186035 8.31632324 17.57543945 8.82405273 18.39306641 9.34716797 C23.35426279 12.49263524 28.36829829 15.5526973 33.375 18.625 C35.6198467 20.00511882 37.86463749 21.38532859 40.109375 22.765625 C42.4061528 24.17724152 44.70307249 25.58862709 47 27 C54.72558612 31.74707318 62.44850899 36.49840287 70.16650391 41.2578125 C72.68296408 42.80506907 75.20518723 44.34220393 77.73046875 45.875 C105.62515353 62.88868761 105.62515353 62.88868761 108.65423203 73.23453617 C109.81861933 79.14000823 110.28761394 84.76083942 110.25878906 90.77319336 C110.2622937 91.69332718 110.26579834 92.613461 110.26940918 93.56147766 C110.27813511 96.57101221 110.27240936 99.58030724 110.265625 102.58984375 C110.26697439 104.70154363 110.2689172 106.8132432 110.27142334 108.92494202 C110.27436234 113.33858209 110.27011687 117.7521409 110.26074219 122.16577148 C110.24935549 127.79862671 110.25591006 133.43129114 110.26788712 139.06413937 C110.27514482 143.42152826 110.27279976 147.77887259 110.26763153 152.13626289 C110.26630547 154.2121133 110.26790581 156.28796786 110.27259064 158.3638134 C110.32297065 186.95996121 110.32297065 186.95996121 101 197 C93.43484003 204.5849015 84.53415731 210.21759478 75.625 216.0625 C74.16885661 217.02606702 72.71312481 217.99025634 71.2578125 218.95507812 C68.55268782 220.74462478 65.84668427 222.53276328 63.13525391 224.31274414 C62.49694138 224.74953995 61.85862885 225.18633575 61.20097351 225.6363678 C59 227 59 227 56.06819153 228.33226013 C52.81549923 229.9520578 50.49326571 231.34537294 48 234 C46.86735455 238.53345385 47.07176644 242.79285424 47.44647026 247.39997673 C47.62446038 249.69576799 47.71764771 251.98137748 47.78785706 254.28285217 C47.99694622 260.81124116 48.31373372 267.32812038 48.78442383 273.84301758 C50.63506982 300.52713564 50.63506982 300.52713564 44.54641724 308.01907349 C38.67220412 313.3232989 31.49611835 316.51840601 24.25904846 319.55006409 C19.36513971 321.72734194 15.00700422 324.59700358 10.5625 327.5625 C8.07123217 329.17562018 5.63272702 330.61386457 3 332 C2.01 331.67 1.02 331.34 0 331 C0 221.77 0 112.54 0 0 Z M47 85 C47 113.71 47 142.42 47 172 C51.99818785 168.25135912 56.98700329 164.49781181 61.9375 160.6875 C62.51306641 160.24599609 63.08863281 159.80449219 63.68164062 159.34960938 C66.43769573 157.28809752 66.43769573 157.28809752 69 155 C69.15109222 153.29491983 69.23339731 151.58369034 69.28808594 149.87280273 C69.32351501 148.77753769 69.35894409 147.68227264 69.39544678 146.55381775 C69.51920713 141.51559493 69.61006478 136.47748759 69.6796875 131.43823242 C69.71974681 128.78093755 69.79442089 126.1311879 69.88476562 123.47436523 C70.0127242 119.64730568 70.06828354 115.82495475 70.109375 111.99609375 C70.16301208 110.81558945 70.21664917 109.63508514 70.27191162 108.41880798 C70.26149546 103.56314926 70.19635716 100.32812998 66.86242676 96.62698364 C60.70109416 91.99241781 53.76454993 88.68975451 47 85 Z " fill="#FFFFFF" transform="translate(1060,341)"/>
<path d="M0 0 C0.33 0 0.66 0 1 0 C1 183.15 1 366.3 1 555 C0.67 555 0.34 555 0 555 C0 371.85 0 188.7 0 0 Z " fill="#FFFFFF" transform="translate(809,271)"/>
<path d="M0 0 C0.33 0 0.66 0 1 0 C1 25.41 1 50.82 1 77 C0.67 77 0.34 77 0 77 C0 51.59 0 26.18 0 0 Z " fill="#FFFFFF" transform="translate(774,169)"/>
<path d="M0 0 C0.33 0 0.66 0 1 0 C1 18.15 1 36.3 1 55 C0.67 55 0.34 55 0 55 C0 36.85 0 18.7 0 0 Z " fill="#FFFFFF" transform="translate(605,586)"/>
<path d="M0 0 C0.33 0 0.66 0 1 0 C1 15.84 1 31.68 1 48 C0.67 48 0.34 48 0 48 C0 32.16 0 16.32 0 0 Z " fill="#FFFFFF" transform="translate(605,402)"/>
<path d="M0 0 C0.33 0 0.66 0 1 0 C1 15.84 1 31.68 1 48 C0.67 48 0.34 48 0 48 C0 32.16 0 16.32 0 0 Z " fill="#FFFFFF" transform="translate(605,294)"/>
<path d="M0 0 C0.33 0 0.66 0 1 0 C1 12.87 1 25.74 1 39 C0.67 39 0.34 39 0 39 C0 26.13 0 13.26 0 0 Z " fill="#FFFFFF" transform="translate(605,362)"/>
<path d="M0 0 C11.55 0 23.1 0 35 0 C35 0.33 35 0.66 35 1 C23.45 1 11.9 1 0 1 C0 0.67 0 0.34 0 0 Z " fill="#FFFFFF" transform="translate(955,497)"/>
<path d="M0 0 C0.33 0 0.66 0 1 0 C1 8.91 1 17.82 1 27 C0.67 27 0.34 27 0 27 C0 18.09 0 9.18 0 0 Z " fill="#FFFFFF" transform="translate(605,491)"/>
<path d="M0 0 C0.33 0 0.66 0 1 0 C1 8.25 1 16.5 1 25 C0.67 25 0.34 25 0 25 C0 16.75 0 8.5 0 0 Z " fill="#FFFFFF" transform="translate(442,378)"/>
<path d="M0 0 C0.33 0 0.66 0 1 0 C1 7.92 1 15.84 1 24 C0.67 24 0.34 24 0 24 C0 16.08 0 8.16 0 0 Z " fill="#FFFFFF" transform="translate(605,458)"/>
<path d="M0 0 C0.33 0 0.66 0 1 0 C1 5.94 1 11.88 1 18 C0.67 18 0.34 18 0 18 C0 12.06 0 6.12 0 0 Z " fill="#FFFFFF" transform="translate(442,404)"/>
<path d="M0 0 C0.33 0 0.66 0 1 0 C1 5.94 1 11.88 1 18 C0.67 18 0.34 18 0 18 C0 12.06 0 6.12 0 0 Z " fill="#FFFFFF" transform="translate(754,263)"/>
<path d="M0 0 C0.33 0 0.66 0 1 0 C1 5.61 1 11.22 1 17 C0.67 17 0.34 17 0 17 C0 11.39 0 5.78 0 0 Z " fill="#FFFFFF" transform="translate(754,324)"/>
<path d="M0 0 C0.33 0 0.66 0 1 0 C1 5.28 1 10.56 1 16 C0.67 16 0.34 16 0 16 C0 10.72 0 5.44 0 0 Z " fill="#FFFFFF" transform="translate(605,668)"/>
<path d="M0 0 C0.33 0 0.66 0 1 0 C1 4.95 1 9.9 1 15 C0.67 15 0.34 15 0 15 C0 10.05 0 5.1 0 0 Z " fill="#FFFFFF" transform="translate(754,413)"/>
<path d="M0 0 C0.33 0 0.66 0 1 0 C1 4.62 1 9.24 1 14 C0.67 14 0.34 14 0 14 C0 9.38 0 4.76 0 0 Z " fill="#FFFFFF" transform="translate(605,547)"/>
<path d="M0 0 C0.33 0 0.66 0 1 0 C1 3.96 1 7.92 1 12 C0.67 12 0.34 12 0 12 C0 8.04 0 4.08 0 0 Z " fill="#FFFFFF" transform="translate(989,484)"/>
<path d="M0 0 C0.33 0 0.66 0 1 0 C1 3.63 1 7.26 1 11 C0.67 11 0.34 11 0 11 C0 7.37 0 3.74 0 0 Z " fill="#FFFFFF" transform="translate(605,655)"/>
<path d="M0 0 C0.33 0 0.66 0 1 0 C1 3.63 1 7.26 1 11 C0.67 11 0.34 11 0 11 C0 7.37 0 3.74 0 0 Z " fill="#FFFFFF" transform="translate(754,392)"/>
<path d="M0 0 C0.33 0 0.66 0 1 0 C1 3.63 1 7.26 1 11 C0.67 11 0.34 11 0 11 C0 7.37 0 3.74 0 0 Z " fill="#FFFFFF" transform="translate(754,354)"/>
<path d="M0 0 C0.33 0 0.66 0 1 0 C1 3.3 1 6.6 1 10 C0.67 10 0.34 10 0 10 C0 6.7 0 3.4 0 0 Z " fill="#FFFFFF" transform="translate(605,691)"/>
<path d="M0 0 C0.33 0 0.66 0 1 0 C1 2.97 1 5.94 1 9 C0.67 9 0.34 9 0 9 C0 6.03 0 3.06 0 0 Z " fill="#FFFFFF" transform="translate(442,435)"/>
<path d="M0 0 C0.33 0 0.66 0 1 0 C1 2.97 1 5.94 1 9 C0.67 9 0.34 9 0 9 C0 6.03 0 3.06 0 0 Z " fill="#FFFFFF" transform="translate(754,430)"/>
<path d="M0 0 C0.33 0 0.66 0 1 0 C1 2.64 1 5.28 1 8 C0.67 8 0.34 8 0 8 C0 5.36 0 2.72 0 0 Z " fill="#FFFFFF" transform="translate(989,663)"/>
<path d="M0 0 C0.33 0 0.66 0 1 0 C1 2.64 1 5.28 1 8 C0.67 8 0.34 8 0 8 C0 5.36 0 2.72 0 0 Z " fill="#FFFFFF" transform="translate(605,532)"/>
<path d="M0 0 C0.33 0 0.66 0 1 0 C1 2.64 1 5.28 1 8 C0.67 8 0.34 8 0 8 C0 5.36 0 2.72 0 0 Z " fill="#FFFFFF" transform="translate(754,404)"/>
<path d="M0 0 C0.33 0 0.66 0 1 0 C1 2.64 1 5.28 1 8 C0.67 8 0.34 8 0 8 C0 5.36 0 2.72 0 0 Z " fill="#FFFFFF" transform="translate(754,203)"/>
<path d="M0 0 C0.33 0 0.66 0 1 0 C1 2.31 1 4.62 1 7 C0.67 7 0.34 7 0 7 C0 4.69 0 2.38 0 0 Z " fill="#FFFFFF" transform="translate(989,678)"/>
<path d="M0 0 C0.33 0 0.66 0 1 0 C1 2.31 1 4.62 1 7 C0.67 7 0.34 7 0 7 C0 4.69 0 2.38 0 0 Z " fill="#FFFFFF" transform="translate(605,483)"/>
<path d="M0 0 C0.33 0 0.66 0 1 0 C1 2.31 1 4.62 1 7 C0.67 7 0.34 7 0 7 C0 4.69 0 2.38 0 0 Z " fill="#FFFFFF" transform="translate(989,454)"/>
<path d="M0 0 C0.33 0 0.66 0 1 0 C1 2.31 1 4.62 1 7 C0.67 7 0.34 7 0 7 C0 4.69 0 2.38 0 0 Z " fill="#FFFFFF" transform="translate(989,385)"/>
<path d="M0 0 C0.33 0 0.66 0 1 0 C1 1.98 1 3.96 1 6 C0.67 6 0.34 6 0 6 C0 4.02 0 2.04 0 0 Z " fill="#FFFFFF" transform="translate(605,722)"/>
<path d="M0 0 C0.33 0 0.66 0 1 0 C1 1.98 1 3.96 1 6 C0.67 6 0.34 6 0 6 C0 4.02 0 2.04 0 0 Z " fill="#FFFFFF" transform="translate(605,715)"/>
<path d="M0 0 C0.33 0 0.66 0 1 0 C1 1.98 1 3.96 1 6 C0.67 6 0.34 6 0 6 C0 4.02 0 2.04 0 0 Z " fill="#FFFFFF" transform="translate(605,642)"/>
<path d="M0 0 C0.33 0 0.66 0 1 0 C1 1.98 1 3.96 1 6 C0.67 6 0.34 6 0 6 C0 4.02 0 2.04 0 0 Z " fill="#FFFFFF" transform="translate(605,564)"/>
<path d="M0 0 C0.66 0 1.32 0 2 0 C2 0.99 2 1.98 2 3 C1.34 3 0.68 3 0 3 C0 2.01 0 1.02 0 0 Z " fill="#FFFFFF" transform="translate(1171,516)"/>
<path d="M0 0 C0.33 0 0.66 0 1 0 C1 1.98 1 3.96 1 6 C0.67 6 0.34 6 0 6 C0 4.02 0 2.04 0 0 Z " fill="#FFFFFF" transform="translate(989,477)"/>
<path d="M0 0 C0.33 0 0.66 0 1 0 C1 1.98 1 3.96 1 6 C0.67 6 0.34 6 0 6 C0 4.02 0 2.04 0 0 Z " fill="#FFFFFF" transform="translate(906,454)"/>
<path d="M0 0 C0.33 0 0.66 0 1 0 C1 1.98 1 3.96 1 6 C0.67 6 0.34 6 0 6 C0 4.02 0 2.04 0 0 Z " fill="#FFFFFF" transform="translate(989,435)"/>
<path d="M0 0 C0.33 0 0.66 0 1 0 C1 1.98 1 3.96 1 6 C0.67 6 0.34 6 0 6 C0 4.02 0 2.04 0 0 Z " fill="#FFFFFF" transform="translate(754,297)"/>
<path d="M0 0 C0.33 0 0.66 0 1 0 C1 1.98 1 3.96 1 6 C0.67 6 0.34 6 0 6 C0 4.02 0 2.04 0 0 Z " fill="#FFFFFF" transform="translate(933,269)"/>
<path d="M0 0 C0.33 0 0.66 0 1 0 C1 1.98 1 3.96 1 6 C0.67 6 0.34 6 0 6 C0 4.02 0 2.04 0 0 Z " fill="#FFFFFF" transform="translate(754,229)"/>
<path d="M0 0 C0.33 0 0.66 0 1 0 C1 1.98 1 3.96 1 6 C0.67 6 0.34 6 0 6 C0 4.02 0 2.04 0 0 Z " fill="#FFFFFF" transform="translate(754,181)"/>
<path d="M0 0 C0.33 0 0.66 0 1 0 C1 1.65 1 3.3 1 5 C0.67 5 0.34 5 0 5 C0 3.35 0 1.7 0 0 Z " fill="#FFFFFF" transform="translate(867,742)"/>
<path d="M0 0 C0.33 0 0.66 0 1 0 C1 1.65 1 3.3 1 5 C0.67 5 0.34 5 0 5 C0 3.35 0 1.7 0 0 Z " fill="#60FBEF" transform="translate(584,724)"/>
<path d="M0 0 C0.33 0 0.66 0 1 0 C1 1.65 1 3.3 1 5 C0.67 5 0.34 5 0 5 C0 3.35 0 1.7 0 0 Z " fill="#FFFFFF" transform="translate(989,672)"/>
<path d="M0 0 C0.33 0 0.66 0 1 0 C1 1.65 1 3.3 1 5 C0.67 5 0.34 5 0 5 C0 3.35 0 1.7 0 0 Z " fill="#FFFFFF" transform="translate(933,662)"/>
<path d="M0 0 C0.33 0 0.66 0 1 0 C1 1.65 1 3.3 1 5 C0.67 5 0.34 5 0 5 C0 3.35 0 1.7 0 0 Z " fill="#FFFFFF" transform="translate(882,629)"/>
<path d="M0 0 C0.33 0 0.66 0 1 0 C1 1.65 1 3.3 1 5 C0.67 5 0.34 5 0 5 C0 3.35 0 1.7 0 0 Z " fill="#FFFFFF" transform="translate(989,628)"/>
<path d="M0 0 C0.33 0 0.66 0 1 0 C1 1.65 1 3.3 1 5 C0.67 5 0.34 5 0 5 C0 3.35 0 1.7 0 0 Z " fill="#FFFFFF" transform="translate(885,607)"/>
<path d="M0 0 C0.33 0 0.66 0 1 0 C1 1.65 1 3.3 1 5 C0.67 5 0.34 5 0 5 C0 3.35 0 1.7 0 0 Z " fill="#FFFFFF" transform="translate(989,583)"/>
<path d="M0 0 C0.33 0 0.66 0 1 0 C1 1.65 1 3.3 1 5 C0.67 5 0.34 5 0 5 C0 3.35 0 1.7 0 0 Z " fill="#FFFFFF" transform="translate(889,579)"/>
<path d="M0 0 C0.33 0 0.66 0 1 0 C1 1.65 1 3.3 1 5 C0.67 5 0.34 5 0 5 C0 3.35 0 1.7 0 0 Z " fill="#FFFFFF" transform="translate(989,572)"/>
<path d="M0 0 C0.33 0 0.66 0 1 0 C1 1.65 1 3.3 1 5 C0.67 5 0.34 5 0 5 C0 3.35 0 1.7 0 0 Z " fill="#60FBEF" transform="translate(563,473)"/>
<path d="M0 0 C0.33 0 0.66 0 1 0 C1 1.65 1 3.3 1 5 C0.67 5 0.34 5 0 5 C0 3.35 0 1.7 0 0 Z " fill="#FFFFFF" transform="translate(908,441)"/>
<path d="M0 0 C0.33 0 0.66 0 1 0 C1 1.65 1 3.3 1 5 C0.67 5 0.34 5 0 5 C0 3.35 0 1.7 0 0 Z " fill="#FFFFFF" transform="translate(754,441)"/>
<path d="M0 0 C0.33 0 0.66 0 1 0 C1 1.65 1 3.3 1 5 C0.67 5 0.34 5 0 5 C0 3.35 0 1.7 0 0 Z " fill="#FFFFFF" transform="translate(911,420)"/>
<path d="M0 0 C0.33 0 0.66 0 1 0 C1 1.65 1 3.3 1 5 C0.67 5 0.34 5 0 5 C0 3.35 0 1.7 0 0 Z " fill="#60FBEF" transform="translate(577,397)"/>
<path d="M0 0 C0.33 0 0.66 0 1 0 C1 1.65 1 3.3 1 5 C0.67 5 0.34 5 0 5 C0 3.35 0 1.7 0 0 Z " fill="#60FBEF" transform="translate(554,396)"/>
<path d="M0 0 C0.33 0 0.66 0 1 0 C1 1.65 1 3.3 1 5 C0.67 5 0.34 5 0 5 C0 3.35 0 1.7 0 0 Z " fill="#FFFFFF" transform="translate(917,380)"/>
<path d="M0 0 C0.33 0 0.66 0 1 0 C1 1.65 1 3.3 1 5 C0.67 5 0.34 5 0 5 C0 3.35 0 1.7 0 0 Z " fill="#FFFFFF" transform="translate(605,348)"/>
<path d="M0 0 C0.33 0 0.66 0 1 0 C1 1.65 1 3.3 1 5 C0.67 5 0.34 5 0 5 C0 3.35 0 1.7 0 0 Z " fill="#FFFFFF" transform="translate(931,283)"/>
<path d="M0 0 C0.33 0 0.66 0 1 0 C1 1.65 1 3.3 1 5 C0.67 5 0.34 5 0 5 C0 3.35 0 1.7 0 0 Z " fill="#FFFFFF" transform="translate(932,277)"/>
<path d="M0 0 C0.33 0 0.66 0 1 0 C1 1.65 1 3.3 1 5 C0.67 5 0.34 5 0 5 C0 3.35 0 1.7 0 0 Z " fill="#FFFFFF" transform="translate(754,244)"/>
<path d="M0 0 C1 4 1 4 1 4 Z " fill="#FFFFFF" transform="translate(716,780)"/>
<path d="M0 0 C1 4 1 4 1 4 Z " fill="#FFFFFF" transform="translate(924,733)"/>
<path d="M0 0 C1 4 1 4 1 4 Z " fill="#FFFFFF" transform="translate(925,724)"/>
<path d="M0 0 C1 4 1 4 1 4 Z " fill="#60FBEF" transform="translate(544,718)"/>
<path d="M0 0 C1 4 1 4 1 4 Z " fill="#FFFFFF" transform="translate(605,708)"/>
<path d="M0 0 C1 4 1 4 1 4 Z " fill="#FFFFFF" transform="translate(929,693)"/>
<path d="M0 0 C1 4 1 4 1 4 Z " fill="#60FBEF" transform="translate(538,673)"/>
<path d="M0 0 C1 4 1 4 1 4 Z " fill="#FFFFFF" transform="translate(877,668)"/>
<path d="M0 0 C1 4 1 4 1 4 Z " fill="#FFFFFF" transform="translate(752,656)"/>
<path d="M0 0 C1 4 1 4 1 4 Z " fill="#FFFFFF" transform="translate(693,650)"/>
<path d="M0 0 C1 4 1 4 1 4 Z " fill="#60FBEF" transform="translate(534,639)"/>
<path d="M0 0 C1 4 1 4 1 4 Z " fill="#FFFFFF" transform="translate(989,620)"/>
<path d="M0 0 C1 4 1 4 1 4 Z " fill="#FFFFFF" transform="translate(884,615)"/>
<path d="M0 0 C1 4 1 4 1 4 Z " fill="#FFFFFF" transform="translate(886,600)"/>
<path d="M0 0 C1 4 1 4 1 4 Z " fill="#FFFFFF" transform="translate(888,585)"/>
<path d="M0 0 C1 4 1 4 1 4 Z " fill="#FFFFFF" transform="translate(989,578)"/>
<path d="M0 0 C1 4 1 4 1 4 Z " fill="#60FBEF" transform="translate(526,576)"/>
<path d="M0 0 C1 4 1 4 1 4 Z " fill="#FFFFFF" transform="translate(605,571)"/>
<path d="M0 0 C1 4 1 4 1 4 Z " fill="#FFFFFF" transform="translate(891,565)"/>
<path d="M0 0 C1 4 1 4 1 4 Z " fill="#60FBEF" transform="translate(523,555)"/>
<path d="M0 0 C1 4 1 4 1 4 Z " fill="#60FBEF" transform="translate(522,547)"/>
<path d="M0 0 C1 4 1 4 1 4 Z " fill="#60FBEF" transform="translate(521,540)"/>
<path d="M0 0 C1 4 1 4 1 4 Z " fill="#FFFFFF" transform="translate(732,539)"/>
<path d="M0 0 C1 4 1 4 1 4 Z " fill="#60FBEF" transform="translate(520,533)"/>
<path d="M0 0 C1 4 1 4 1 4 Z " fill="#60FBEF" transform="translate(517,512)"/>
<path d="M0 0 C1 4 1 4 1 4 Z " fill="#60FBEF" transform="translate(506,436)"/>
<path d="M0 0 C1 4 1 4 1 4 Z " fill="#FFFFFF" transform="translate(909,435)"/>
<path d="M0 0 C1 4 1 4 1 4 Z " fill="#60FBEF" transform="translate(557,421)"/>
<path d="M0 0 C1 4 1 4 1 4 Z " fill="#60FBEF" transform="translate(503,416)"/>
<path d="M0 0 C1 4 1 4 1 4 Z " fill="#FFFFFF" transform="translate(912,415)"/>
<path d="M0 0 C1 4 1 4 1 4 Z " fill="#60FBEF" transform="translate(576,404)"/>
<path d="M0 0 C1 4 1 4 1 4 Z " fill="#60FBEF" transform="translate(501,404)"/>
<path d="M0 0 C1 4 1 4 1 4 Z " fill="#FFFFFF" transform="translate(914,401)"/>
<path d="M0 0 C1 4 1 4 1 4 Z " fill="#FFFFFF" transform="translate(915,394)"/>
<path d="M0 0 C1 4 1 4 1 4 Z " fill="#FFFFFF" transform="translate(989,393)"/>
<path d="M0 0 C1 4 1 4 1 4 Z " fill="#FFFFFF" transform="translate(916,387)"/>
<path d="M0 0 C1 4 1 4 1 4 Z " fill="#FFFFFF" transform="translate(969,386)"/>
<path d="M0 0 C1 4 1 4 1 4 Z " fill="#FFFFFF" transform="translate(493,382)"/>
<path d="M0 0 C1 4 1 4 1 4 Z " fill="#FFFFFF" transform="translate(970,379)"/>
<path d="M0 0 C1 4 1 4 1 4 Z " fill="#FFFFFF" transform="translate(754,373)"/>
<path d="M0 0 C1 4 1 4 1 4 Z " fill="#FFFFFF" transform="translate(442,373)"/>
<path d="M0 0 C1 4 1 4 1 4 Z " fill="#FFFFFF" transform="translate(971,372)"/>
<path d="M0 0 C1 4 1 4 1 4 Z " fill="#FFFFFF" transform="translate(989,368)"/>
<path d="M0 0 C1 4 1 4 1 4 Z " fill="#FFFFFF" transform="translate(989,363)"/>
<path d="M0 0 C1 4 1 4 1 4 Z " fill="#60FBEF" transform="translate(585,347)"/>
<path d="M0 0 C1 4 1 4 1 4 Z " fill="#FFFFFF" transform="translate(927,311)"/>
<path d="M0 0 C1 4 1 4 1 4 Z " fill="#FFFFFF" transform="translate(754,285)"/>
<path d="M0 0 C1 4 1 4 1 4 Z " fill="#FFFFFF" transform="translate(754,236)"/>
<path d="M0 0 C1 4 1 4 1 4 Z " fill="#FFFFFF" transform="translate(754,220)"/>
<path d="" fill="#FFFFFF" transform="translate(0,0)"/>
<path d="" fill="#FFFFFF" transform="translate(0,0)"/>
<path d="" fill="#FFFFFF" transform="translate(0,0)"/>
<path d="" fill="#FFFFFF" transform="translate(0,0)"/>
<path d="" fill="#FFFFFF" transform="translate(0,0)"/>
<path d="" fill="#FFFFFF" transform="translate(0,0)"/>
<path d="" fill="#FFFFFF" transform="translate(0,0)"/>
<path d="" fill="#FFFFFF" transform="translate(0,0)"/>
<path d="" fill="#FFFFFF" transform="translate(0,0)"/>
<path d="" fill="#FFFFFF" transform="translate(0,0)"/>
<path d="" fill="#60FBEF" transform="translate(0,0)"/>
<path d="" fill="#FFFFFF" transform="translate(0,0)"/>
<path d="" fill="#FFFFFF" transform="translate(0,0)"/>
<path d="" fill="#60FBEF" transform="translate(0,0)"/>
<path d="" fill="#60FBEF" transform="translate(0,0)"/>
<path d="" fill="#60FBEF" transform="translate(0,0)"/>
<path d="" fill="#FFFFFF" transform="translate(0,0)"/>
<path d="" fill="#60FBEF" transform="translate(0,0)"/>
<path d="" fill="#FFFFFF" transform="translate(0,0)"/>
<path d="" fill="#FFFFFF" transform="translate(0,0)"/>
<path d="" fill="#FFFFFF" transform="translate(0,0)"/>
<path d="" fill="#60FBEF" transform="translate(0,0)"/>
<path d="" fill="#FFFFFF" transform="translate(0,0)"/>
<path d="" fill="#FFFFFF" transform="translate(0,0)"/>
<path d="" fill="#FFFFFF" transform="translate(0,0)"/>
<path d="" fill="#FFFFFF" transform="translate(0,0)"/>
<path d="" fill="#FFFFFF" transform="translate(0,0)"/>
<path d="" fill="#FFFFFF" transform="translate(0,0)"/>
<path d="" fill="#60FBEF" transform="translate(0,0)"/>
<path d="" fill="#FFFFFF" transform="translate(0,0)"/>
<path d="" fill="#FFFFFF" transform="translate(0,0)"/>
<path d="" fill="#FFFFFF" transform="translate(0,0)"/>
<path d="" fill="#FFFFFF" transform="translate(0,0)"/>
<path d="" fill="#FFFFFF" transform="translate(0,0)"/>
<path d="" fill="#FFFFFF" transform="translate(0,0)"/>
<path d="" fill="#60FBEF" transform="translate(0,0)"/>
<path d="M0 0 C0.66 0 1.32 0 2 0 C1.67 0.66 1.34 1.32 1 2 C0.67 1.34 0.34 0.68 0 0 Z " fill="#FFFFFF" transform="translate(423,561)"/>
<path d="" fill="#FFFFFF" transform="translate(0,0)"/>
<path d="" fill="#FFFFFF" transform="translate(0,0)"/>
<path d="" fill="#FFFFFF" transform="translate(0,0)"/>
<path d="" fill="#FFFFFF" transform="translate(0,0)"/>
<path d="" fill="#FFFFFF" transform="translate(0,0)"/>
<path d="" fill="#FFFFFF" transform="translate(0,0)"/>
<path d="M0 0 C0.99 0.495 0.99 0.495 2 1 C1.01 1.495 1.01 1.495 0 2 C0 1.34 0 0.68 0 0 Z " fill="#FFFFFF" transform="translate(414,533)"/>
<path d="" fill="#FFFFFF" transform="translate(0,0)"/>
<path d="" fill="#FFFFFF" transform="translate(0,0)"/>
<path d="" fill="#60FBEF" transform="translate(0,0)"/>
<path d="" fill="#FFFFFF" transform="translate(0,0)"/>
<path d="" fill="#60FBEF" transform="translate(0,0)"/>
<path d="" fill="#FFFFFF" transform="translate(0,0)"/>
<path d="" fill="#FFFFFF" transform="translate(0,0)"/>
<path d="" fill="#60FBEF" transform="translate(0,0)"/>
<path d="" fill="#60FBEF" transform="translate(0,0)"/>
<path d="" fill="#FFFFFF" transform="translate(0,0)"/>
<path d="" fill="#60FBEF" transform="translate(0,0)"/>
<path d="" fill="#FFFFFF" transform="translate(0,0)"/>
<path d="" fill="#60FBEF" transform="translate(0,0)"/>
<path d="" fill="#60FBEF" transform="translate(0,0)"/>
<path d="" fill="#FFFFFF" transform="translate(0,0)"/>
<path d="" fill="#60FBEF" transform="translate(0,0)"/>
<path d="" fill="#FFFFFF" transform="translate(0,0)"/>
<path d="" fill="#60FBEF" transform="translate(0,0)"/>
<path d="" fill="#FFFFFF" transform="translate(0,0)"/>
<path d="" fill="#60FBEF" transform="translate(0,0)"/>
<path d="" fill="#60FBEF" transform="translate(0,0)"/>
<path d="" fill="#60FBEF" transform="translate(0,0)"/>
<path d="" fill="#FFFFFF" transform="translate(0,0)"/>
<path d="" fill="#FFFFFF" transform="translate(0,0)"/>
<path d="" fill="#FFFFFF" transform="translate(0,0)"/>
<path d="" fill="#60FBEF" transform="translate(0,0)"/>
<path d="" fill="#FFFFFF" transform="translate(0,0)"/>
<path d="" fill="#60FBEF" transform="translate(0,0)"/>
<path d="" fill="#FFFFFF" transform="translate(0,0)"/>
<path d="" fill="#60FBEF" transform="translate(0,0)"/>
<path d="" fill="#FFFFFF" transform="translate(0,0)"/>
<path d="" fill="#FFFFFF" transform="translate(0,0)"/>
<path d="" fill="#FFFFFF" transform="translate(0,0)"/>
<path d="" fill="#FFFFFF" transform="translate(0,0)"/>
<path d="" fill="#FFFFFF" transform="translate(0,0)"/>
<path d="" fill="#FFFFFF" transform="translate(0,0)"/>
<path d="" fill="#FFFFFF" transform="translate(0,0)"/>
<path d="" fill="#FFFFFF" transform="translate(0,0)"/>
<path d="" fill="#FFFFFF" transform="translate(0,0)"/>
<path d="" fill="#FFFFFF" transform="translate(0,0)"/>
<path d="" fill="#FFFFFF" transform="translate(0,0)"/>
<path d="" fill="#FFFFFF" transform="translate(0,0)"/>
<path d="" fill="#FFFFFF" transform="translate(0,0)"/>
<path d="" fill="#FFFFFF" transform="translate(0,0)"/>
<path d="" fill="#FFFFFF" transform="translate(0,0)"/>
<path d="" fill="#FFFFFF" transform="translate(0,0)"/>
<path d="" fill="#FFFFFF" transform="translate(0,0)"/>
<path d="" fill="#FFFFFF" transform="translate(0,0)"/>
<path d="" fill="#60FBEF" transform="translate(0,0)"/>
<path d="" fill="#FFFFFF" transform="translate(0,0)"/>
<path d="" fill="#FFFFFF" transform="translate(0,0)"/>
<path d="" fill="#FFFFFF" transform="translate(0,0)"/>
<path d="" fill="#FFFFFF" transform="translate(0,0)"/>
<path d="" fill="#FFFFFF" transform="translate(0,0)"/>
<path d="" fill="#FFFFFF" transform="translate(0,0)"/>
<path d="" fill="#FFFFFF" transform="translate(0,0)"/>
<path d="" fill="#FFFFFF" transform="translate(0,0)"/>
<path d="" fill="#FFFFFF" transform="translate(0,0)"/>
<path d="" fill="#FFFFFF" transform="translate(0,0)"/>
<path d="" fill="#FFFFFF" transform="translate(0,0)"/>
<path d="" fill="#FFFFFF" transform="translate(0,0)"/>
<path d="" fill="#FFFFFF" transform="translate(0,0)"/>
<path d="" fill="#FFFFFF" transform="translate(0,0)"/>
<path d="" fill="#FFFFFF" transform="translate(0,0)"/>
<path d="" fill="#FFFFFF" transform="translate(0,0)"/>
<path d="" fill="#FFFFFF" transform="translate(0,0)"/>
<path d="" fill="#FFFFFF" transform="translate(0,0)"/>
<path d="" fill="#FFFFFF" transform="translate(0,0)"/>
<path d="" fill="#FFFFFF" transform="translate(0,0)"/>
<path d="" fill="#FFFFFF" transform="translate(0,0)"/>
<path d="" fill="#FFFFFF" transform="translate(0,0)"/>
<path d="" fill="#FFFFFF" transform="translate(0,0)"/>
<path d="" fill="#FFFFFF" transform="translate(0,0)"/>
<path d="" fill="#FFFFFF" transform="translate(0,0)"/>
<path d="" fill="#FFFFFF" transform="translate(0,0)"/>
<path d="M0 0 C2 1 2 1 2 1 Z " fill="#FFFFFF" transform="translate(392,625)"/>
<path d="" fill="#60FBEF" transform="translate(0,0)"/>
<path d="" fill="#FFFFFF" transform="translate(0,0)"/>
<path d="" fill="#FFFFFF" transform="translate(0,0)"/>
<path d="" fill="#FFFFFF" transform="translate(0,0)"/>
<path d="" fill="#FFFFFF" transform="translate(0,0)"/>
<path d="" fill="#FFFFFF" transform="translate(0,0)"/>
<path d="" fill="#60FBEF" transform="translate(0,0)"/>
<path d="" fill="#60FBEF" transform="translate(0,0)"/>
<path d="" fill="#FFFFFF" transform="translate(0,0)"/>
<path d="" fill="#FFFFFF" transform="translate(0,0)"/>
<path d="" fill="#FFFFFF" transform="translate(0,0)"/>
<path d="" fill="#FFFFFF" transform="translate(0,0)"/>
<path d="" fill="#FFFFFF" transform="translate(0,0)"/>
<path d="M0 0 C2 1 2 1 2 1 Z " fill="#60FBEF" transform="translate(593,570)"/>
<path d="" fill="#FFFFFF" transform="translate(0,0)"/>
<path d="" fill="#FFFFFF" transform="translate(0,0)"/>
<path d="M0 0 C2 1 2 1 2 1 Z " fill="#FFFFFF" transform="translate(422,559)"/>
<path d="" fill="#FFFFFF" transform="translate(0,0)"/>
<path d="" fill="#FFFFFF" transform="translate(0,0)"/>
<path d="" fill="#FFFFFF" transform="translate(0,0)"/>
<path d="" fill="#FFFFFF" transform="translate(0,0)"/>
<path d="" fill="#FFFFFF" transform="translate(0,0)"/>
<path d="" fill="#FFFFFF" transform="translate(0,0)"/>
<path d="" fill="#FFFFFF" transform="translate(0,0)"/>
<path d="" fill="#FFFFFF" transform="translate(0,0)"/>
<path d="" fill="#60FBEF" transform="translate(0,0)"/>
<path d="" fill="#FFFFFF" transform="translate(0,0)"/>
<path d="" fill="#FFFFFF" transform="translate(0,0)"/>
<path d="" fill="#FFFFFF" transform="translate(0,0)"/>
<path d="" fill="#FFFFFF" transform="translate(0,0)"/>
<path d="" fill="#60FBEF" transform="translate(0,0)"/>
<path d="" fill="#FFFFFF" transform="translate(0,0)"/>
<path d="" fill="#60FBEF" transform="translate(0,0)"/>
<path d="" fill="#FFFFFF" transform="translate(0,0)"/>
<path d="" fill="#60FBEF" transform="translate(0,0)"/>
<path d="" fill="#FFFFFF" transform="translate(0,0)"/>
<path d="" fill="#60FBEF" transform="translate(0,0)"/>
<path d="" fill="#FFFFFF" transform="translate(0,0)"/>
<path d="" fill="#60FBEF" transform="translate(0,0)"/>
<path d="" fill="#60FBEF" transform="translate(0,0)"/>
<path d="" fill="#FFFFFF" transform="translate(0,0)"/>
<path d="" fill="#FFFFFF" transform="translate(0,0)"/>
<path d="" fill="#FFFFFF" transform="translate(0,0)"/>
<path d="" fill="#60FBEF" transform="translate(0,0)"/>
<path d="" fill="#60FBEF" transform="translate(0,0)"/>
<path d="" fill="#FFFFFF" transform="translate(0,0)"/>
<path d="" fill="#60FBEF" transform="translate(0,0)"/>
<path d="M0 0 C2 1 2 1 2 1 Z " fill="#FFFFFF" transform="translate(1171,426)"/>
<path d="" fill="#FFFFFF" transform="translate(0,0)"/>
<path d="M0 0 C2 1 2 1 2 1 Z " fill="#FFFFFF" transform="translate(1171,424)"/>
<path d="" fill="#60FBEF" transform="translate(0,0)"/>
<path d="" fill="#60FBEF" transform="translate(0,0)"/>
<path d="" fill="#FFFFFF" transform="translate(0,0)"/>
<path d="" fill="#60FBEF" transform="translate(0,0)"/>
<path d="" fill="#FFFFFF" transform="translate(0,0)"/>
<path d="" fill="#FFFFFF" transform="translate(0,0)"/>
<path d="" fill="#FFFFFF" transform="translate(0,0)"/>
<path d="" fill="#FFFFFF" transform="translate(0,0)"/>
<path d="" fill="#FFFFFF" transform="translate(0,0)"/>
<path d="" fill="#FFFFFF" transform="translate(0,0)"/>
<path d="" fill="#FFFFFF" transform="translate(0,0)"/>
<path d="" fill="#FFFFFF" transform="translate(0,0)"/>
<path d="" fill="#FFFFFF" transform="translate(0,0)"/>
<path d="" fill="#FFFFFF" transform="translate(0,0)"/>
<path d="" fill="#FFFFFF" transform="translate(0,0)"/>
<path d="" fill="#FFFFFF" transform="translate(0,0)"/>
<path d="" fill="#FFFFFF" transform="translate(0,0)"/>
<path d="M0 0 C2 1 2 1 2 1 Z " fill="#FFFFFF" transform="translate(974,350)"/>
<path d="" fill="#FFFFFF" transform="translate(0,0)"/>
<path d="" fill="#FFFFFF" transform="translate(0,0)"/>
<path d="" fill="#FFFFFF" transform="translate(0,0)"/>
<path d="" fill="#FFFFFF" transform="translate(0,0)"/>
<path d="" fill="#60FBEF" transform="translate(0,0)"/>
<path d="M0 0 C2 1 2 1 2 1 Z " fill="#60FBEF" transform="translate(593,338)"/>
<path d="" fill="#FFFFFF" transform="translate(0,0)"/>
<path d="" fill="#FFFFFF" transform="translate(0,0)"/>
<path d="" fill="#FFFFFF" transform="translate(0,0)"/>
<path d="" fill="#FFFFFF" transform="translate(0,0)"/>
<path d="" fill="#FFFFFF" transform="translate(0,0)"/>
<path d="" fill="#FFFFFF" transform="translate(0,0)"/>
<path d="" fill="#FFFFFF" transform="translate(0,0)"/>
<path d="" fill="#FFFFFF" transform="translate(0,0)"/>
<path d="" fill="#FFFFFF" transform="translate(0,0)"/>
<path d="" fill="#FFFFFF" transform="translate(0,0)"/>
<path d="M0 0 C2 1 2 1 2 1 Z " fill="#FFFFFF" transform="translate(777,167)"/>
<path d="M0 0 C2 1 2 1 2 1 Z " fill="#FFFFFF" transform="translate(751,167)"/>
<path d="" fill="#FFFFFF" transform="translate(0,0)"/>
<path d="" fill="#FFFFFF" transform="translate(0,0)"/>
<path d="" fill="#FFFFFF" transform="translate(0,0)"/>
<path d="" fill="#FFFFFF" transform="translate(0,0)"/>
<path d="" fill="#FFFFFF" transform="translate(0,0)"/>
<path d="" fill="#FFFFFF" transform="translate(0,0)"/>
<path d="" fill="#FFFFFF" transform="translate(0,0)"/>
<path d="" fill="#FFFFFF" transform="translate(0,0)"/>
<path d="" fill="#FFFFFF" transform="translate(0,0)"/>
<path d="" fill="#FFFFFF" transform="translate(0,0)"/>
<path d="" fill="#FFFFFF" transform="translate(0,0)"/>
<path d="" fill="#FFFFFF" transform="translate(0,0)"/>
<path d="" fill="#FFFFFF" transform="translate(0,0)"/>
<path d="" fill="#FFFFFF" transform="translate(0,0)"/>
<path d="" fill="#FFFFFF" transform="translate(0,0)"/>
<path d="" fill="#FFFFFF" transform="translate(0,0)"/>
<path d="" fill="#FFFFFF" transform="translate(0,0)"/>
<path d="" fill="#FFFFFF" transform="translate(0,0)"/>
<path d="" fill="#FFFFFF" transform="translate(0,0)"/>
<path d="" fill="#FFFFFF" transform="translate(0,0)"/>
<path d="" fill="#FFFFFF" transform="translate(0,0)"/>
<path d="" fill="#FFFFFF" transform="translate(0,0)"/>
<path d="" fill="#FFFFFF" transform="translate(0,0)"/>
<path d="" fill="#FFFFFF" transform="translate(0,0)"/>
<path d="" fill="#FFFFFF" transform="translate(0,0)"/>
<path d="" fill="#60FBEF" transform="translate(0,0)"/>
<path d="" fill="#FFFFFF" transform="translate(0,0)"/>
<path d="" fill="#FFFFFF" transform="translate(0,0)"/>
<path d="" fill="#60FBEF" transform="translate(0,0)"/>
<path d="" fill="#FFFFFF" transform="translate(0,0)"/>
<path d="" fill="#FFFFFF" transform="translate(0,0)"/>
<path d="" fill="#60FBEF" transform="translate(0,0)"/>
<path d="" fill="#FFFFFF" transform="translate(0,0)"/>
<path d="" fill="#60FBEF" transform="translate(0,0)"/>
<path d="" fill="#FFFFFF" transform="translate(0,0)"/>
<path d="" fill="#FFFFFF" transform="translate(0,0)"/>
<path d="" fill="#FFFFFF" transform="translate(0,0)"/>
<path d="" fill="#FFFFFF" transform="translate(0,0)"/>
<path d="" fill="#FFFFFF" transform="translate(0,0)"/>
<path d="" fill="#FFFFFF" transform="translate(0,0)"/>
<path d="" fill="#FFFFFF" transform="translate(0,0)"/>
<path d="" fill="#FFFFFF" transform="translate(0,0)"/>
<path d="" fill="#FFFFFF" transform="translate(0,0)"/>
<path d="" fill="#60FBEF" transform="translate(0,0)"/>
<path d="" fill="#FFFFFF" transform="translate(0,0)"/>
<path d="" fill="#FFFFFF" transform="translate(0,0)"/>
<path d="" fill="#FFFFFF" transform="translate(0,0)"/>
<path d="" fill="#FFFFFF" transform="translate(0,0)"/>
<path d="" fill="#FFFFFF" transform="translate(0,0)"/>
<path d="" fill="#FFFFFF" transform="translate(0,0)"/>
<path d="" fill="#FFFFFF" transform="translate(0,0)"/>
<path d="" fill="#FFFFFF" transform="translate(0,0)"/>
<path d="" fill="#FFFFFF" transform="translate(0,0)"/>
<path d="" fill="#FFFFFF" transform="translate(0,0)"/>
<path d="" fill="#FFFFFF" transform="translate(0,0)"/>
<path d="" fill="#FFFFFF" transform="translate(0,0)"/>
<path d="" fill="#60FBEF" transform="translate(0,0)"/>
<path d="" fill="#60FBEF" transform="translate(0,0)"/>
<path d="" fill="#FFFFFF" transform="translate(0,0)"/>
<path d="" fill="#FFFFFF" transform="translate(0,0)"/>
<path d="" fill="#60FBEF" transform="translate(0,0)"/>
<path d="" fill="#FFFFFF" transform="translate(0,0)"/>
<path d="" fill="#FFFFFF" transform="translate(0,0)"/>
<path d="" fill="#60FBEF" transform="translate(0,0)"/>
<path d="" fill="#FFFFFF" transform="translate(0,0)"/>
<path d="" fill="#FFFFFF" transform="translate(0,0)"/>
<path d="" fill="#FFFFFF" transform="translate(0,0)"/>
<path d="" fill="#FFFFFF" transform="translate(0,0)"/>
<path d="" fill="#FFFFFF" transform="translate(0,0)"/>
<path d="" fill="#60FBEF" transform="translate(0,0)"/>
<path d="" fill="#FFFFFF" transform="translate(0,0)"/>
<path d="" fill="#FFFFFF" transform="translate(0,0)"/>
<path d="" fill="#FFFFFF" transform="translate(0,0)"/>
<path d="" fill="#FFFFFF" transform="translate(0,0)"/>
<path d="" fill="#FFFFFF" transform="translate(0,0)"/>
<path d="" fill="#FFFFFF" transform="translate(0,0)"/>
<path d="" fill="#FFFFFF" transform="translate(0,0)"/>
<path d="" fill="#FFFFFF" transform="translate(0,0)"/>
<path d="" fill="#FFFFFF" transform="translate(0,0)"/>
<path d="" fill="#FFFFFF" transform="translate(0,0)"/>
<path d="" fill="#FFFFFF" transform="translate(0,0)"/>
<path d="" fill="#FFFFFF" transform="translate(0,0)"/>
<path d="" fill="#FFFFFF" transform="translate(0,0)"/>
<path d="" fill="#FFFFFF" transform="translate(0,0)"/>
<path d="" fill="#FFFFFF" transform="translate(0,0)"/>
<path d="" fill="#FFFFFF" transform="translate(0,0)"/>
<path d="" fill="#FFFFFF" transform="translate(0,0)"/>
<path d="" fill="#FFFFFF" transform="translate(0,0)"/>
<path d="" fill="#FFFFFF" transform="translate(0,0)"/>
<path d="" fill="#FFFFFF" transform="translate(0,0)"/>
<path d="" fill="#FFFFFF" transform="translate(0,0)"/>
<path d="" fill="#FFFFFF" transform="translate(0,0)"/>
<path d="" fill="#FFFFFF" transform="translate(0,0)"/>
<path d="" fill="#FFFFFF" transform="translate(0,0)"/>
<path d="" fill="#FFFFFF" transform="translate(0,0)"/>
<path d="" fill="#FFFFFF" transform="translate(0,0)"/>
<path d="" fill="#FFFFFF" transform="translate(0,0)"/>
<path d="" fill="#FFFFFF" transform="translate(0,0)"/>
<path d="" fill="#FFFFFF" transform="translate(0,0)"/>
<path d="" fill="#FFFFFF" transform="translate(0,0)"/>
<path d="" fill="#FFFFFF" transform="translate(0,0)"/>
<path d="" fill="#FFFFFF" transform="translate(0,0)"/>
<path d="" fill="#60FBEF" transform="translate(0,0)"/>
<path d="" fill="#FFFFFF" transform="translate(0,0)"/>
<path d="" fill="#FFFFFF" transform="translate(0,0)"/>
<path d="" fill="#FFFFFF" transform="translate(0,0)"/>
<path d="" fill="#FFFFFF" transform="translate(0,0)"/>
<path d="" fill="#FFFFFF" transform="translate(0,0)"/>
<path d="" fill="#FFFFFF" transform="translate(0,0)"/>
<path d="" fill="#60FBEF" transform="translate(0,0)"/>
<path d="" fill="#FFFFFF" transform="translate(0,0)"/>
<path d="" fill="#FFFFFF" transform="translate(0,0)"/>
<path d="" fill="#FFFFFF" transform="translate(0,0)"/>
<path d="" fill="#FFFFFF" transform="translate(0,0)"/>
<path d="" fill="#FFFFFF" transform="translate(0,0)"/>
<path d="" fill="#FFFFFF" transform="translate(0,0)"/>
<path d="" fill="#FFFFFF" transform="translate(0,0)"/>
<path d="" fill="#FFFFFF" transform="translate(0,0)"/>
<path d="" fill="#FFFFFF" transform="translate(0,0)"/>
<path d="" fill="#FFFFFF" transform="translate(0,0)"/>
<path d="" fill="#FFFFFF" transform="translate(0,0)"/>
<path d="" fill="#FFFFFF" transform="translate(0,0)"/>
<path d="" fill="#FFFFFF" transform="translate(0,0)"/>
<path d="" fill="#FFFFFF" transform="translate(0,0)"/>
<path d="" fill="#FFFFFF" transform="translate(0,0)"/>
<path d="" fill="#FFFFFF" transform="translate(0,0)"/>
<path d="" fill="#FFFFFF" transform="translate(0,0)"/>
<path d="" fill="#FFFFFF" transform="translate(0,0)"/>
<path d="" fill="#FFFFFF" transform="translate(0,0)"/>
<path d="" fill="#FFFFFF" transform="translate(0,0)"/>
<path d="" fill="#FFFFFF" transform="translate(0,0)"/>
<path d="" fill="#FFFFFF" transform="translate(0,0)"/>
<path d="" fill="#FFFFFF" transform="translate(0,0)"/>
<path d="" fill="#FFFFFF" transform="translate(0,0)"/>
<path d="" fill="#FFFFFF" transform="translate(0,0)"/>
<path d="" fill="#FFFFFF" transform="translate(0,0)"/>
<path d="" fill="#FFFFFF" transform="translate(0,0)"/>
<path d="" fill="#FFFFFF" transform="translate(0,0)"/>
<path d="" fill="#FFFFFF" transform="translate(0,0)"/>
<path d="" fill="#FFFFFF" transform="translate(0,0)"/>
<path d="" fill="#60FBEF" transform="translate(0,0)"/>
<path d="" fill="#FFFFFF" transform="translate(0,0)"/>
<path d="" fill="#FFFFFF" transform="translate(0,0)"/>
<path d="" fill="#FFFFFF" transform="translate(0,0)"/>
<path d="" fill="#FFFFFF" transform="translate(0,0)"/>
<path d="" fill="#FFFFFF" transform="translate(0,0)"/>
<path d="" fill="#FFFFFF" transform="translate(0,0)"/>
<path d="" fill="#FFFFFF" transform="translate(0,0)"/>
<path d="" fill="#60FBEF" transform="translate(0,0)"/>
<path d="" fill="#FFFFFF" transform="translate(0,0)"/>
<path d="" fill="#60FBEF" transform="translate(0,0)"/>
<path d="" fill="#FFFFFF" transform="translate(0,0)"/>
<path d="" fill="#FFFFFF" transform="translate(0,0)"/>
<path d="" fill="#60FBEF" transform="translate(0,0)"/>
<path d="" fill="#FFFFFF" transform="translate(0,0)"/>
<path d="" fill="#60FBEF" transform="translate(0,0)"/>
<path d="" fill="#FFFFFF" transform="translate(0,0)"/>
<path d="" fill="#60FBEF" transform="translate(0,0)"/>
<path d="" fill="#60FBEF" transform="translate(0,0)"/>
<path d="" fill="#FFFFFF" transform="translate(0,0)"/>
<path d="" fill="#60FBEF" transform="translate(0,0)"/>
<path d="" fill="#60FBEF" transform="translate(0,0)"/>
<path d="" fill="#FFFFFF" transform="translate(0,0)"/>
<path d="" fill="#FFFFFF" transform="translate(0,0)"/>
<path d="" fill="#FFFFFF" transform="translate(0,0)"/>
<path d="" fill="#FFFFFF" transform="translate(0,0)"/>
<path d="" fill="#FFFFFF" transform="translate(0,0)"/>
<path d="" fill="#FFFFFF" transform="translate(0,0)"/>
<path d="" fill="#FFFFFF" transform="translate(0,0)"/>
<path d="" fill="#FFFFFF" transform="translate(0,0)"/>
<path d="" fill="#60FBEF" transform="translate(0,0)"/>
<path d="" fill="#FFFFFF" transform="translate(0,0)"/>
<path d="" fill="#FFFFFF" transform="translate(0,0)"/>
<path d="" fill="#FFFFFF" transform="translate(0,0)"/>
<path d="" fill="#FFFFFF" transform="translate(0,0)"/>
<path d="" fill="#FFFFFF" transform="translate(0,0)"/>
<path d="" fill="#FFFFFF" transform="translate(0,0)"/>
<path d="" fill="#FFFFFF" transform="translate(0,0)"/>
<path d="" fill="#FFFFFF" transform="translate(0,0)"/>
<path d="" fill="#FFFFFF" transform="translate(0,0)"/>
<path d="" fill="#FFFFFF" transform="translate(0,0)"/>
<path d="" fill="#60FBEF" transform="translate(0,0)"/>
<path d="" fill="#FFFFFF" transform="translate(0,0)"/>
<path d="" fill="#FFFFFF" transform="translate(0,0)"/>
<path d="" fill="#FFFFFF" transform="translate(0,0)"/>
<path d="" fill="#FFFFFF" transform="translate(0,0)"/>
<path d="" fill="#FFFFFF" transform="translate(0,0)"/>
<path d="" fill="#FFFFFF" transform="translate(0,0)"/>
<path d="" fill="#60FBEF" transform="translate(0,0)"/>
<path d="" fill="#FFFFFF" transform="translate(0,0)"/>
<path d="" fill="#FFFFFF" transform="translate(0,0)"/>
<path d="" fill="#FFFFFF" transform="translate(0,0)"/>
<path d="" fill="#FFFFFF" transform="translate(0,0)"/>
<path d="" fill="#FFFFFF" transform="translate(0,0)"/>
<path d="" fill="#FFFFFF" transform="translate(0,0)"/>
<path d="" fill="#FFFFFF" transform="translate(0,0)"/>
<path d="" fill="#FFFFFF" transform="translate(0,0)"/>
<path d="" fill="#FFFFFF" transform="translate(0,0)"/>
<path d="" fill="#FFFFFF" transform="translate(0,0)"/>
<path d="" fill="#FFFFFF" transform="translate(0,0)"/>
<path d="" fill="#FFFFFF" transform="translate(0,0)"/>
<path d="" fill="#FFFFFF" transform="translate(0,0)"/>
<path d="" fill="#FFFFFF" transform="translate(0,0)"/>
<path d="" fill="#FFFFFF" transform="translate(0,0)"/>
<path d="" fill="#FFFFFF" transform="translate(0,0)"/>
<path d="" fill="#FFFFFF" transform="translate(0,0)"/>
<path d="" fill="#FFFFFF" transform="translate(0,0)"/>
<path d="" fill="#FFFFFF" transform="translate(0,0)"/>
<path d="" fill="#FFFFFF" transform="translate(0,0)"/>
<path d="" fill="#60FBEF" transform="translate(0,0)"/>
<path d="" fill="#FFFFFF" transform="translate(0,0)"/>
<path d="" fill="#FFFFFF" transform="translate(0,0)"/>
<path d="" fill="#FFFFFF" transform="translate(0,0)"/>
<path d="" fill="#FFFFFF" transform="translate(0,0)"/>
<path d="" fill="#FFFFFF" transform="translate(0,0)"/>
<path d="" fill="#FFFFFF" transform="translate(0,0)"/>
<path d="" fill="#FFFFFF" transform="translate(0,0)"/>
<path d="" fill="#FFFFFF" transform="translate(0,0)"/>
<path d="" fill="#FFFFFF" transform="translate(0,0)"/>
<path d="" fill="#FFFFFF" transform="translate(0,0)"/>
<path d="" fill="#FFFFFF" transform="translate(0,0)"/>
<path d="" fill="#FFFFFF" transform="translate(0,0)"/>
<path d="" fill="#FFFFFF" transform="translate(0,0)"/>
<path d="" fill="#FFFFFF" transform="translate(0,0)"/>
<path d="" fill="#FFFFFF" transform="translate(0,0)"/>
<path d="" fill="#60FBEF" transform="translate(0,0)"/>
<path d="" fill="#60FBEF" transform="translate(0,0)"/>
<path d="" fill="#60FBEF" transform="translate(0,0)"/>
<path d="" fill="#FFFFFF" transform="translate(0,0)"/>
<path d="" fill="#FFFFFF" transform="translate(0,0)"/>
<path d="" fill="#60FBEF" transform="translate(0,0)"/>
<path d="" fill="#60FBEF" transform="translate(0,0)"/>
<path d="" fill="#FFFFFF" transform="translate(0,0)"/>
<path d="" fill="#FFFFFF" transform="translate(0,0)"/>
<path d="" fill="#FFFFFF" transform="translate(0,0)"/>
<path d="" fill="#FFFFFF" transform="translate(0,0)"/>
<path d="" fill="#FFFFFF" transform="translate(0,0)"/>
<path d="" fill="#FFFFFF" transform="translate(0,0)"/>
<path d="" fill="#FFFFFF" transform="translate(0,0)"/>
<path d="" fill="#FFFFFF" transform="translate(0,0)"/>
<path d="" fill="#FFFFFF" transform="translate(0,0)"/>
<path d="" fill="#FFFFFF" transform="translate(0,0)"/>
<path d="" fill="#FFFFFF" transform="translate(0,0)"/>
<path d="" fill="#FFFFFF" transform="translate(0,0)"/>
<path d="" fill="#FFFFFF" transform="translate(0,0)"/>
<path d="" fill="#FFFFFF" transform="translate(0,0)"/>
<path d="" fill="#FFFFFF" transform="translate(0,0)"/>
<path d="" fill="#FFFFFF" transform="translate(0,0)"/>
<path d="" fill="#FFFFFF" transform="translate(0,0)"/>
<path d="" fill="#60FBEF" transform="translate(0,0)"/>
<path d="" fill="#60FBEF" transform="translate(0,0)"/>
<path d="" fill="#FFFFFF" transform="translate(0,0)"/>
<path d="" fill="#60FBEF" transform="translate(0,0)"/>
<path d="" fill="#FFFFFF" transform="translate(0,0)"/>
<path d="" fill="#FFFFFF" transform="translate(0,0)"/>
<path d="" fill="#60FBEF" transform="translate(0,0)"/>
<path d="" fill="#60FBEF" transform="translate(0,0)"/>
<path d="" fill="#FFFFFF" transform="translate(0,0)"/>
<path d="" fill="#60FBEF" transform="translate(0,0)"/>
<path d="" fill="#FFFFFF" transform="translate(0,0)"/>
<path d="" fill="#FFFFFF" transform="translate(0,0)"/>
<path d="" fill="#60FBEF" transform="translate(0,0)"/>
<path d="" fill="#FFFFFF" transform="translate(0,0)"/>
<path d="" fill="#FFFFFF" transform="translate(0,0)"/>
<path d="" fill="#FFFFFF" transform="translate(0,0)"/>
<path d="" fill="#FFFFFF" transform="translate(0,0)"/>
<path d="" fill="#FFFFFF" transform="translate(0,0)"/>
<path d="" fill="#FFFFFF" transform="translate(0,0)"/>
<path d="" fill="#FFFFFF" transform="translate(0,0)"/>
<path d="" fill="#FFFFFF" transform="translate(0,0)"/>
<path d="" fill="#FFFFFF" transform="translate(0,0)"/>
<path d="" fill="#60FBEF" transform="translate(0,0)"/>
<path d="" fill="#FFFFFF" transform="translate(0,0)"/>
<path d="" fill="#FFFFFF" transform="translate(0,0)"/>
<path d="" fill="#FFFFFF" transform="translate(0,0)"/>
<path d="" fill="#FFFFFF" transform="translate(0,0)"/>
<path d="" fill="#FFFFFF" transform="translate(0,0)"/>
<path d="" fill="#FFFFFF" transform="translate(0,0)"/>
<path d="" fill="#FFFFFF" transform="translate(0,0)"/>
<path d="" fill="#FFFFFF" transform="translate(0,0)"/>
<path d="" fill="#FFFFFF" transform="translate(0,0)"/>
<path d="" fill="#FFFFFF" transform="translate(0,0)"/>
<path d="" fill="#FFFFFF" transform="translate(0,0)"/>
<path d="" fill="#FFFFFF" transform="translate(0,0)"/>
<path d="" fill="#FFFFFF" transform="translate(0,0)"/>
<path d="" fill="#FFFFFF" transform="translate(0,0)"/>
<path d="" fill="#FFFFFF" transform="translate(0,0)"/>
<path d="" fill="#FFFFFF" transform="translate(0,0)"/>
<path d="" fill="#FFFFFF" transform="translate(0,0)"/>
<path d="" fill="#FFFFFF" transform="translate(0,0)"/>
<path d="" fill="#FFFFFF" transform="translate(0,0)"/>
<path d="" fill="#FFFFFF" transform="translate(0,0)"/>
<path d="" fill="#FFFFFF" transform="translate(0,0)"/>
<path d="" fill="#FFFFFF" transform="translate(0,0)"/>
<path d="" fill="#FFFFFF" transform="translate(0,0)"/>
<path d="" fill="#FFFFFF" transform="translate(0,0)"/>
<path d="" fill="#FFFFFF" transform="translate(0,0)"/>
<path d="" fill="#FFFFFF" transform="translate(0,0)"/>
<path d="" fill="#FFFFFF" transform="translate(0,0)"/>
<path d="" fill="#FFFFFF" transform="translate(0,0)"/>
<path d="" fill="#FFFFFF" transform="translate(0,0)"/>
<path d="" fill="#FFFFFF" transform="translate(0,0)"/>
<path d="" fill="#FFFFFF" transform="translate(0,0)"/>
<path d="" fill="#FFFFFF" transform="translate(0,0)"/>
<path d="" fill="#FFFFFF" transform="translate(0,0)"/>
<path d="" fill="#FFFFFF" transform="translate(0,0)"/>
<path d="" fill="#FFFFFF" transform="translate(0,0)"/>
<path d="" fill="#FFFFFF" transform="translate(0,0)"/>
<path d="" fill="#FFFFFF" transform="translate(0,0)"/>
<path d="" fill="#FFFFFF" transform="translate(0,0)"/>
<path d="" fill="#FFFFFF" transform="translate(0,0)"/>
<path d="" fill="#FFFFFF" transform="translate(0,0)"/>
<path d="" fill="#FFFFFF" transform="translate(0,0)"/>
<path d="" fill="#FFFFFF" transform="translate(0,0)"/>
<path d="" fill="#FFFFFF" transform="translate(0,0)"/>
<path d="" fill="#FFFFFF" transform="translate(0,0)"/>
<path d="" fill="#FFFFFF" transform="translate(0,0)"/>
<path d="" fill="#FFFFFF" transform="translate(0,0)"/>
<path d="" fill="#FFFFFF" transform="translate(0,0)"/>
<path d="" fill="#FFFFFF" transform="translate(0,0)"/>
<path d="" fill="#FFFFFF" transform="translate(0,0)"/>
<path d="" fill="#FFFFFF" transform="translate(0,0)"/>
<path d="" fill="#FFFFFF" transform="translate(0,0)"/>
<path d="" fill="#FFFFFF" transform="translate(0,0)"/>
<path d="" fill="#FFFFFF" transform="translate(0,0)"/>
<path d="" fill="#FFFFFF" transform="translate(0,0)"/>
<path d="" fill="#FFFFFF" transform="translate(0,0)"/>
<path d="" fill="#FFFFFF" transform="translate(0,0)"/>
<path d="" fill="#FFFFFF" transform="translate(0,0)"/>
<path d="" fill="#FFFFFF" transform="translate(0,0)"/>
<path d="" fill="#FFFFFF" transform="translate(0,0)"/>
<path d="" fill="#FFFFFF" transform="translate(0,0)"/>
<path d="" fill="#FFFFFF" transform="translate(0,0)"/>
<path d="" fill="#FFFFFF" transform="translate(0,0)"/>
<path d="" fill="#FFFFFF" transform="translate(0,0)"/>
<path d="" fill="#FFFFFF" transform="translate(0,0)"/>
<path d="" fill="#FFFFFF" transform="translate(0,0)"/>
<path d="" fill="#FFFFFF" transform="translate(0,0)"/>
<path d="" fill="#FFFFFF" transform="translate(0,0)"/>
<path d="" fill="#FFFFFF" transform="translate(0,0)"/>
<path d="" fill="#FFFFFF" transform="translate(0,0)"/>
<path d="" fill="#FFFFFF" transform="translate(0,0)"/>
<path d="" fill="#FFFFFF" transform="translate(0,0)"/>
<path d="" fill="#FFFFFF" transform="translate(0,0)"/>
<path d="" fill="#FFFFFF" transform="translate(0,0)"/>
<path d="" fill="#FFFFFF" transform="translate(0,0)"/>
<path d="" fill="#FFFFFF" transform="translate(0,0)"/>
<path d="" fill="#FFFFFF" transform="translate(0,0)"/>
<path d="" fill="#FFFFFF" transform="translate(0,0)"/>
<path d="" fill="#FFFFFF" transform="translate(0,0)"/>
<path d="" fill="#FFFFFF" transform="translate(0,0)"/>
<path d="" fill="#FFFFFF" transform="translate(0,0)"/>
<path d="" fill="#FFFFFF" transform="translate(0,0)"/>
<path d="" fill="#FFFFFF" transform="translate(0,0)"/>
</svg>
