<?xml version="1.0" encoding="UTF-8"?>
<svg version="1.1" xmlns="http://www.w3.org/2000/svg" width="800" height="800">
<path d="M0 0 C4.5502619 0.48098406 4.5502619 0.48098406 6.546875 2.78515625 C9.29025747 7.97798736 10.67934828 12.12138518 11 18 C11.77085937 17.4946875 12.54171875 16.989375 13.3359375 16.46875 C14.33882813 15.8190625 15.34171875 15.169375 16.375 14.5 C17.37273437 13.8503125 18.37046875 13.200625 19.3984375 12.53125 C22 11 22 11 24 11 C24 10.34 24 9.68 24 9 C25.47539586 7.75411016 26.95449544 6.51187361 28.46484375 5.30859375 C30.3047996 3.74018355 31.66183579 2.00724632 33 0 C36.875 0.875 36.875 0.875 38 2 C38.70116374 12.96574105 38.15389573 22.64841806 34.6796875 33.09375 C34.45539063 34.0528125 34.23109375 35.011875 34 36 C34.66 36.99 35.32 37.98 36 39 C36.65210059 41.87517079 37.22343652 44.72679459 37.75 47.625 C41.78809971 73.18027061 41.78809971 73.18027061 53 96 C57.38867242 92.02276562 60.64298251 87.46417745 64.03515625 82.62109375 C65.86869134 80.17516523 67.83035621 78.14223777 70 76 C70.53625 75.0925 71.0725 74.185 71.625 73.25 C72.07875 72.5075 72.5325 71.765 73 71 C73.66 71 74.32 71 75 71 C75.309375 70.38125 75.61875 69.7625 75.9375 69.125 C76.625 67.75 77.3125 66.375 78 65 C77.16750732 65.15146484 76.33501465 65.30292969 75.47729492 65.45898438 C72.38587238 66.02015861 69.29403758 66.57898688 66.2019043 67.13623047 C64.86416924 67.37780425 63.52660214 67.62031006 62.18920898 67.86376953 C60.26590774 68.21372037 58.34194565 68.56003308 56.41796875 68.90625 C55.26063232 69.11572266 54.1032959 69.32519531 52.91088867 69.54101562 C50 70 50 70 47 70 C45.45136655 65.718484 44.51847636 61.62933451 43.875 57.125 C43.70742187 55.97257812 43.53984375 54.82015625 43.3671875 53.6328125 C43.24601563 52.76398438 43.12484375 51.89515625 43 51 C52.83941425 49.30109321 62.67943879 47.60577146 72.52025986 45.91503143 C77.08965925 45.12985212 81.65883871 44.34343669 86.22753906 43.55419922 C90.63608152 42.79267558 95.04517059 42.03439522 99.45465851 41.27836609 C101.13737131 40.98926885 102.81988342 40.69900095 104.50218964 40.407547 C106.85738545 39.99972247 109.21325861 39.59605529 111.56933594 39.19335938 C112.26561096 39.07179977 112.96188599 38.95024017 113.67926025 38.82499695 C116.86535645 38.28465306 119.75130354 38 123 38 C123 41 123 41 121.3125 42.78515625 C120.549375 43.51605469 119.78625 44.24695313 119 45 C117.30310411 47.12927802 115.63878096 49.26487373 114 51.4375 C113.14629318 52.56154731 112.29213251 53.68525009 111.4375 54.80859375 C111.02435547 55.35169189 110.61121094 55.89479004 110.18554688 56.4543457 C107.05805345 60.53180881 103.7776402 64.48075969 100.5 68.4375 C98.02807473 71.44115303 95.63888075 74.39663239 93.5625 77.6875 C93.046875 78.450625 92.53125 79.21375 92 80 C91.34 80 90.68 80 90 80 C89.77183594 80.5259375 89.54367188 81.051875 89.30859375 81.59375 C87.55471119 84.81879973 85.32341952 87.62246607 83.0625 90.5 C82.1782145 91.63528356 81.29409589 92.77069713 80.41015625 93.90625 C79.21712891 95.43765625 79.21712891 95.43765625 78 97 C77.44183594 97.7940625 76.88367188 98.588125 76.30859375 99.40625 C75.87675781 99.9321875 75.44492188 100.458125 75 101 C74.34 101 73.68 101 73 101 C73 101.99 73 102.98 73 104 C72.34 104 71.68 104 71 104 C70.34 105.65 69.68 107.3 69 109 C68.34 109 67.68 109 67 109 C66.7525 109.54140625 66.505 110.0828125 66.25 110.640625 C64.72011396 113.5282849 62.90849003 116.09776018 61 118.75 C60.29875 119.73484375 59.5975 120.7196875 58.875 121.734375 C57.946875 122.85585938 57.946875 122.85585938 57 124 C56.34 124 55.68 124 55 124 C55 124.99 55 125.98 55 127 C53.36591673 128.69862516 51.69221379 130.35927819 50 132 C47.72556218 134.79522425 45.61540663 137.71633734 43.48632812 140.62304688 C42.36854767 142.11626503 41.1889176 143.56277749 40 145 C39.34 145 38.68 145 38 145 C38 145.99 38 146.98 38 148 C37.34 148 36.68 148 36 148 C35.72526855 148.58265625 35.45053711 149.1653125 35.16748047 149.765625 C34.03327693 151.93631316 32.78581584 153.7912741 31.3203125 155.75 C30.80339844 156.4409375 30.28648437 157.131875 29.75390625 157.84375 C29.21636719 158.5553125 28.67882812 159.266875 28.125 160 C27.59519531 160.7115625 27.06539063 161.423125 26.51953125 162.15625 C23.86181835 165.69107411 21.17611841 168.910503 18 172 C17.46375 172.9075 16.9275 173.815 16.375 174.75 C15.92125 175.4925 15.4675 176.235 15 177 C14.34 177 13.68 177 13 177 C12.62875 177.81210937 12.62875 177.81210937 12.25 178.640625 C10.72011396 181.5282849 8.90849003 184.09776018 7 186.75 C6.29875 187.73484375 5.5975 188.7196875 4.875 189.734375 C4.25625 190.48203125 3.6375 191.2296875 3 192 C2.34 192 1.68 192 1 192 C0.7421875 192.56203125 0.484375 193.1240625 0.21875 193.703125 C-1.14169777 196.26704579 -2.72788962 198.45226365 -4.5 200.75 C-5.1084375 201.54921875 -5.716875 202.3484375 -6.34375 203.171875 C-6.8903125 203.77515625 -7.436875 204.3784375 -8 205 C-8.66 205 -9.32 205 -10 205 C-14 198.25 -14 198.25 -14 196 C-14.66 196 -15.32 196 -16 196 C-16.98484108 194.25318707 -17.96266187 192.5024149 -18.9375 190.75 C-19.48277344 189.77546875 -20.02804688 188.8009375 -20.58984375 187.796875 C-21.76610835 185.46389591 -22.52101691 183.54649238 -23 181 C-23.66 181 -24.32 181 -25 181 C-25.59167969 179.92621094 -26.18335938 178.85242188 -26.79296875 177.74609375 C-27.59092473 176.30977298 -28.38911434 174.87358198 -29.1875 173.4375 C-29.57486328 172.73302734 -29.96222656 172.02855469 -30.36132812 171.30273438 C-32.96972213 166.62487075 -35.85044492 162.33063824 -39 158 C-42 152.51724138 -42 152.51724138 -42 150 C-42.66 150 -43.32 150 -44 150 C-44.98484108 148.25318707 -45.96266187 146.5024149 -46.9375 144.75 C-47.48277344 143.77546875 -48.02804688 142.8009375 -48.58984375 141.796875 C-49.76610835 139.46389591 -50.52101691 137.54649238 -51 135 C-51.66 135 -52.32 135 -53 135 C-53.50789063 134.09378906 -54.01578125 133.18757812 -54.5390625 132.25390625 C-58.45099325 125.31621486 -62.4988678 118.57642057 -67 112 C-70 107.4 -70 107.4 -70 104 C-70.66 104 -71.32 104 -72 104 C-72.97051515 102.29323198 -73.94086799 100.58637133 -74.91015625 98.87890625 C-75.81841612 97.31305321 -76.77814684 95.77719782 -77.75 94.25 C-79 92 -79 92 -79 89 C-79.66 89 -80.32 89 -81 89 C-82.7265625 86.48046875 -82.7265625 86.48046875 -84.625 83.1875 C-85.25664063 82.10855469 -85.88828125 81.02960938 -86.5390625 79.91796875 C-88 77 -88 77 -88 74 C-83.75034447 73.20647704 -79.50021307 72.41553075 -75.25 71.625 C-74.06277344 71.40328125 -72.87554687 71.1815625 -71.65234375 70.953125 C-68.10303228 70.29369008 -64.55225814 69.64336717 -61 69 C-59.87609863 68.79640869 -58.75219727 68.59281738 -57.59423828 68.38305664 C-56.01231689 68.10643188 -56.01231689 68.10643188 -54.3984375 67.82421875 C-53.46692871 67.66010498 -52.53541992 67.49599121 -51.57568359 67.3269043 C-44.34288195 66.40892123 -36.66975399 68.18281149 -30 71 C-27.22754993 73.3430045 -26.09879781 75.53456075 -25 79 C-25 80.32 -25 81.64 -25 83 C-25.89307861 83.14622803 -26.78615723 83.29245605 -27.70629883 83.44311523 C-31.02205679 83.98721637 -34.33743758 84.53351241 -37.65258789 85.08129883 C-39.08701324 85.3178566 -40.52158298 85.55354057 -41.95629883 85.78833008 C-44.0194299 86.12611512 -46.08201997 86.46704727 -48.14453125 86.80859375 C-50.00621948 87.11494751 -50.00621948 87.11494751 -51.90551758 87.42749023 C-55.0206675 87.93002032 -55.0206675 87.93002032 -58 89 C-57.29875 89.928125 -56.5975 90.85625 -55.875 91.8125 C-53.11238312 95.67397289 -50.92081044 99.7483676 -48.69140625 103.93359375 C-45.66833662 109.41421653 -42.32200547 114.69659532 -39 120 C-36.11047417 116.54017302 -33.73538605 113.0369256 -31.5 109.125 C-28 103 -28 103 -26.765625 100.98046875 C-22.77315754 94.42360872 -19.59176178 86.78236911 -21 79 C-21.91385703 76.5749162 -22.9483094 74.2889069 -24.125 71.98046875 C-25 70 -25 70 -25 67 C-25.65484375 66.91363281 -26.3096875 66.82726562 -26.984375 66.73828125 C-35.58072361 65.4148321 -43.71558567 62.85627622 -51 58 C-51 57.34 -51 56.68 -51 56 C-51.99 55.67 -52.98 55.34 -54 55 C-59.20594546 49.32078678 -60.51480133 43.36757957 -61.8125 36 C-61.97169922 35.2059375 -62.13089844 34.411875 -62.29492188 33.59375 C-62.94057843 29.92176961 -63.19341716 27.58713194 -62.01171875 24 C-59.79647617 21.79766174 -58.308171 21.19200739 -55.20263672 20.95751953 C-50.4445821 21.04928427 -45.76502206 21.75153309 -41.0625 22.4375 C-39.99708984 22.58509766 -38.93167969 22.73269531 -37.83398438 22.88476562 C-35.22132898 23.24795987 -32.61024263 23.61991707 -30 24 C-29.505 22.515 -29.505 22.515 -29 21 C-21.44549985 14.95639988 -13.51049999 13.46391754 -4 14 C-1.59009896 7.11175931 -1.59009896 7.11175931 0 0 Z " fill="#050505" transform="translate(148,305)"/>
<path d="M0 0 C6.83293213 -0.11507558 13.66247474 -0.21453281 20.49560547 -0.2746582 C22.81766175 -0.29973266 25.13963965 -0.33380092 27.46142578 -0.37719727 C30.80781441 -0.43815805 34.15315553 -0.46628149 37.5 -0.48828125 C39.04578735 -0.52699089 39.04578735 -0.52699089 40.62280273 -0.56648254 C47.34049964 -0.5690702 51.82810586 0.58841041 57 5 C60.51676592 9.34381721 62.44616811 14.13018043 62 19.75 C61.30994903 23.52183202 59.95370139 26.687202 58 30 C57.34 30 56.68 30 56 30 C56 30.66 56 31.32 56 32 C55.01 32.66 54.02 33.32 53 34 C53.5775 34.68707031 54.155 35.37414062 54.75 36.08203125 C55.86375 37.43361328 55.86375 37.43361328 57 38.8125 C57.7425 39.70582031 58.485 40.59914063 59.25 41.51953125 C61 44 61 44 61 47 C47.62168458 48.21375846 47.62168458 48.21375846 42 47 C39.32997421 44.64112682 37.97817081 42.34283558 36.17578125 39.29296875 C32.99185331 35.93755456 29.97745334 36.0024013 25.5 35.875 C22.98756082 35.84432342 20.51236969 35.89633426 18 36 C18 39.63 18 43.26 18 47 C12.06 47 6.12 47 0 47 C0 31.49 0 15.98 0 0 Z M18 14 C18 16.31 18 18.62 18 21 C25.92 21 33.84 21 42 21 C42.33 19.68 42.66 18.36 43 17 C41.96130653 15.14265566 41.96130653 15.14265566 40 14 C37.58432123 13.5871718 37.58432123 13.5871718 34.89453125 13.70703125 C33.42016602 13.7215332 33.42016602 13.7215332 31.91601562 13.73632812 C30.37977539 13.7740332 30.37977539 13.7740332 28.8125 13.8125 C27.77673828 13.82603516 26.74097656 13.83957031 25.67382812 13.85351562 C23.11536301 13.88888611 20.5579422 13.93824456 18 14 Z " fill="#000000" transform="translate(480,381)"/>
<path d="M0 0 C6.27 0 12.54 0 19 0 C19 5.28 19 10.56 19 16 C21.64 15.67 24.28 15.34 27 15 C27 14.34 27 13.68 27 13 C28.5390625 11.484375 28.5390625 11.484375 30.625 9.75 C33.61455794 7.30464138 33.61455794 7.30464138 36.17724609 4.44091797 C38.47488586 1.57162475 40.03322912 0.17027073 43.72802734 -0.48046875 C46.96341314 -0.59026346 50.14133254 -0.52354303 53.375 -0.375 C55.05142578 -0.33439453 55.05142578 -0.33439453 56.76171875 -0.29296875 C59.50980752 -0.22250494 62.2538945 -0.12404229 65 0 C63.22616584 3.80966077 61.05512742 6.07971958 58 9 C56.81371091 10.18089226 55.63029355 11.3646739 54.44921875 12.55078125 C50.96614583 16.03385417 47.48307292 19.51692708 44 23 C47.08791302 27.03857389 50.38091179 30.14353063 54.29296875 33.3515625 C56 35 56 35 57 38 C57.66 38 58.32 38 59 38 C59 38.66 59 39.32 59 40 C59.928125 40.433125 59.928125 40.433125 60.875 40.875 C63 42 63 42 65 44 C65 44.99 65 45.98 65 47 C61.25014675 47.0871747 57.50055445 47.14045003 53.75 47.1875 C52.15478516 47.22520508 52.15478516 47.22520508 50.52734375 47.26367188 C49.50253906 47.27333984 48.47773437 47.28300781 47.421875 47.29296875 C46.47924805 47.3086792 45.53662109 47.32438965 44.56542969 47.34057617 C41.54638491 46.93977988 40.17395046 46.10269958 38 44 C38 43.34 38 42.68 38 42 C37.34 42 36.68 42 36 42 C36 41.34 36 40.68 36 40 C35.46375 39.79375 34.9275 39.5875 34.375 39.375 C31.59061394 37.76298702 29.90248319 35.79506048 27.85546875 33.33984375 C25.42216128 31.36401034 25.42216128 31.36401034 19 31 C19 36.28 19 41.56 19 47 C12.73 47 6.46 47 0 47 C0 31.49 0 15.98 0 0 Z " fill="#000000" transform="translate(675,381)"/>
<path d="M0 0 C1.27101563 -0.00708984 2.54203125 -0.01417969 3.8515625 -0.02148438 C10.72124114 0.02502907 16.14399729 0.47895085 22.375 3.4375 C22.375 4.0975 22.375 4.7575 22.375 5.4375 C22.973125 5.685 23.57125 5.9325 24.1875 6.1875 C26.86683699 7.71854971 27.84981118 8.73375618 29.375 11.4375 C29.77441814 12.97906302 30.133296 14.53144635 30.4609375 16.08984375 C30.63415527 16.90316162 30.80737305 17.71647949 30.98583984 18.55444336 C31.1142627 19.17585205 31.24268555 19.79726074 31.375 20.4375 C28.12530231 20.55388036 24.8761417 20.62480581 21.625 20.6875 C20.24441406 20.73777344 20.24441406 20.73777344 18.8359375 20.7890625 C11.92303866 20.88924944 11.92303866 20.88924944 8.99609375 18.4765625 C8.46113281 17.80367188 7.92617188 17.13078125 7.375 16.4375 C1.47169044 14.47349261 -4.83060854 15.54914921 -10.625 17.4375 C-11.88449049 18.47156673 -11.88449049 18.47156673 -11.72265625 20.72265625 C-11.71105469 21.63917969 -11.69945312 22.55570312 -11.6875 23.5 C-11.67847656 24.41910156 -11.66945313 25.33820313 -11.66015625 26.28515625 C-11.64855469 26.99542969 -11.63695312 27.70570313 -11.625 28.4375 C-5.33731206 31.12571441 0.67155382 32.55620579 7.375 30.4375 C7.92027344 29.76332031 8.46554687 29.08914063 9.02734375 28.39453125 C12.80720218 25.24360102 16.8765817 26.01458841 21.625 26.1875 C22.56085937 26.20554687 23.49671875 26.22359375 24.4609375 26.2421875 C26.76667015 26.28924327 29.07030945 26.35496287 31.375 26.4375 C30.97579865 28.19156653 30.55484334 29.94068982 30.125 31.6875 C29.89296875 32.66203125 29.6609375 33.6365625 29.421875 34.640625 C28.24570395 37.78293272 26.96193613 39.33185431 24.375 41.4375 C23.715 41.4375 23.055 41.4375 22.375 41.4375 C22.375 42.0975 22.375 42.7575 22.375 43.4375 C9.90039059 48.53661041 -5.84513243 50.19012221 -18.71484375 45.35546875 C-23.3308907 43.13712308 -26.89026495 40.81307608 -29.625 36.4375 C-29.97433594 35.91929687 -30.32367187 35.40109375 -30.68359375 34.8671875 C-32.12663599 31.14282121 -31.95348794 27.5211131 -31.9375 23.5625 C-31.95361328 22.77230469 -31.96972656 21.98210937 -31.98632812 21.16796875 C-31.99049343 16.16126901 -31.29721421 12.82303361 -28.625 8.4375 C-27.965 8.4375 -27.305 8.4375 -26.625 8.4375 C-26.38185059 7.82334229 -26.13870117 7.20918457 -25.88818359 6.57641602 C-23.89455929 3.2006637 -21.27748338 2.53145209 -17.69628906 1.21826172 C-11.84756076 -0.26856126 -5.99910574 -0.09488382 0 0 Z " fill="#000000" transform="translate(639.625,380.5625)"/>
<path d="M0 0 C1.79200333 -0.00845947 1.79200333 -0.00845947 3.62020874 -0.01708984 C5.59641708 -0.01101715 5.59641708 -0.01101715 7.61254883 -0.00482178 C9.00859764 -0.00753067 10.40464503 -0.01109102 11.8006897 -0.01544189 C15.59814057 -0.02458037 19.39548311 -0.02101568 23.19293594 -0.01468372 C27.16117909 -0.00963125 31.12941276 -0.01431307 35.09765625 -0.01745605 C41.76246817 -0.0210979 48.42723581 -0.01629089 55.09204102 -0.0067749 C62.80488858 0.00411008 70.51763042 0.00058466 78.23047543 -0.01042771 C84.84451422 -0.01949438 91.45852113 -0.02078892 98.07256413 -0.01555037 C102.0263702 -0.01242724 105.98012653 -0.01203069 109.93392944 -0.01862335 C113.65048565 -0.02438719 117.36690512 -0.0204177 121.0834465 -0.00883484 C123.10361288 -0.00491491 125.12379078 -0.01088209 127.14395142 -0.01708984 C128.3386203 -0.0114502 129.53328918 -0.00581055 130.76416016 0 C132.32823357 0.00113108 132.32823357 0.00113108 133.92390442 0.002285 C136.38208008 0.25396729 136.38208008 0.25396729 138.38208008 2.25396729 C138.5806011 4.96319529 138.66047485 7.54699908 138.63208008 10.25396729 C138.63981445 10.99131104 138.64754883 11.72865479 138.65551758 12.48834229 C138.63539968 18.00064769 138.63539968 18.00064769 136.38208008 20.25396729 C134.50268555 20.48101807 134.50268555 20.48101807 132.24926758 20.44927979 C131.44360352 20.44283447 130.63793945 20.43638916 129.80786133 20.42974854 C128.96610352 20.41299072 128.1243457 20.39623291 127.25708008 20.37896729 C125.9828418 20.36543213 125.9828418 20.36543213 124.68286133 20.35162354 C122.58248124 20.32802376 120.48224564 20.29215211 118.38208008 20.25396729 C118.39255371 21.09169678 118.40302734 21.92942627 118.41381836 22.7925415 C118.44788027 25.89734892 118.47296919 29.00206121 118.49194336 32.10699463 C118.50696115 34.11308089 118.53236988 36.11908053 118.55786133 38.12506104 C118.56430664 39.38189697 118.57075195 40.63873291 118.57739258 41.93365479 C118.58786621 43.09622803 118.59833984 44.25880127 118.60913086 45.456604 C118.38208008 48.25396729 118.38208008 48.25396729 116.38208008 50.25396729 C114.24316406 50.49688721 114.24316406 50.49688721 111.62817383 50.48443604 C110.69166992 50.48250244 109.75516602 50.48056885 108.7902832 50.47857666 C107.31978516 50.46020752 107.31978516 50.46020752 105.81958008 50.44146729 C104.83538086 50.44082275 103.85118164 50.44017822 102.8371582 50.43951416 C95.5222554 50.39414261 95.5222554 50.39414261 94.38208008 49.25396729 C94.29432403 47.10837902 94.27512789 44.95992307 94.28442383 42.81256104 C94.28925781 40.85479736 94.28925781 40.85479736 94.29418945 38.85748291 C94.30254607 37.46881039 94.31101103 36.08013851 94.31958008 34.69146729 C94.32459342 33.29889073 94.32915661 31.90631247 94.33325195 30.51373291 C94.34508566 27.09379278 94.36302177 23.67387479 94.38208008 20.25396729 C88.11208008 20.25396729 81.84208008 20.25396729 75.38208008 20.25396729 C75.32149414 22.33580322 75.2609082 24.41763916 75.19848633 26.56256104 C75.13592601 28.5714423 75.07333233 30.58032269 75.00976562 32.58917236 C74.96636574 33.98885928 74.92469444 35.38860088 74.88476562 36.78839111 C74.82718563 38.79658223 74.76294008 40.80457878 74.69848633 42.81256104 C74.66182861 44.02226562 74.6251709 45.23197021 74.58740234 46.47833252 C74.38208008 49.25396729 74.38208008 49.25396729 73.38208008 50.25396729 C69.90999201 50.50495652 66.42467388 50.43918825 62.94458008 50.44146729 C61.96424805 50.45371338 60.98391602 50.46595947 59.97387695 50.47857666 C59.03737305 50.48051025 58.10086914 50.48244385 57.13598633 50.48443604 C56.27303955 50.48854492 55.41009277 50.49265381 54.52099609 50.49688721 C52.38208008 50.25396729 52.38208008 50.25396729 50.38208008 48.25396729 C50.1550293 45.456604 50.1550293 45.456604 50.18676758 41.93365479 C50.19321289 40.67681885 50.1996582 39.41998291 50.20629883 38.12506104 C50.22305664 36.8063501 50.23981445 35.48763916 50.25708008 34.12896729 C50.26711025 32.78913008 50.27623604 31.44928577 50.28442383 30.10943604 C50.30805933 26.82410156 50.34100774 23.53912263 50.38208008 20.25396729 C49.72208008 20.25396729 49.06208008 20.25396729 48.38208008 20.25396729 C48.39368164 21.46955322 48.4052832 22.68513916 48.41723633 23.93756104 C48.42661286 25.52219492 48.43571321 27.10683046 48.44458008 28.69146729 C48.45295898 29.49390869 48.46133789 30.2963501 48.4699707 31.12310791 C48.47859438 33.16691949 48.43436158 35.2108063 48.38208008 37.25396729 C47.38208008 38.25396729 47.38208008 38.25396729 44.42285156 38.36749268 C43.12935791 38.36225586 41.83586426 38.35701904 40.50317383 38.35162354 C39.47318016 38.34950111 39.47318016 38.34950111 38.42237854 38.34733582 C36.22140207 38.34172208 34.02052599 38.32916735 31.81958008 38.31646729 C30.33064925 38.31145405 28.84171684 38.30689084 27.3527832 38.30279541 C23.69584933 38.29174821 20.03897449 38.27447441 16.38208008 38.25396729 C16.39368164 39.03642822 16.4052832 39.81888916 16.41723633 40.62506104 C16.42625977 41.6369751 16.4352832 42.64888916 16.44458008 43.69146729 C16.45618164 44.70080322 16.4677832 45.71013916 16.47973633 46.75006104 C16.38208008 49.25396729 16.38208008 49.25396729 15.38208008 50.25396729 C11.90999201 50.50495652 8.42467388 50.43918825 4.94458008 50.44146729 C3.96424805 50.45371338 2.98391602 50.46595947 1.97387695 50.47857666 C1.03737305 50.48051025 0.10086914 50.48244385 -0.86401367 50.48443604 C-1.72696045 50.48854492 -2.58990723 50.49265381 -3.47900391 50.49688721 C-5.61791992 50.25396729 -5.61791992 50.25396729 -7.61791992 48.25396729 C-7.87188721 46.28057861 -7.87188721 46.28057861 -7.87670898 43.83599854 C-7.88301331 42.92165039 -7.88931763 42.00730225 -7.89581299 41.06524658 C-7.89176453 40.07564941 -7.88771606 39.08605225 -7.88354492 38.06646729 C-7.88545837 37.05302246 -7.88737183 36.03957764 -7.88934326 34.99542236 C-7.89070583 32.85015617 -7.88700439 30.70488175 -7.87866211 28.55963135 C-7.86796374 25.26745157 -7.87855511 21.9758175 -7.89135742 18.68365479 C-7.89003584 16.60292441 -7.88747347 14.52219437 -7.88354492 12.44146729 C-7.88759338 11.45187012 -7.89164185 10.46227295 -7.89581299 9.44268799 C-7.88950867 8.52833984 -7.88320435 7.6139917 -7.87670898 6.67193604 C-7.8751178 5.86522461 -7.87352661 5.05851318 -7.87188721 4.22735596 C-7.26620873 -0.47891574 -3.90439296 0.0028235 0 0 Z M-3.61791992 3.25396729 C-3.61791992 17.77396729 -3.61791992 32.29396729 -3.61791992 47.25396729 C1.66208008 47.25396729 6.94208008 47.25396729 12.38208008 47.25396729 C12.38208008 43.29396729 12.38208008 39.33396729 12.38208008 35.25396729 C23.27208008 35.25396729 34.16208008 35.25396729 45.38208008 35.25396729 C45.38208008 31.29396729 45.38208008 27.33396729 45.38208008 23.25396729 C34.49208008 23.25396729 23.60208008 23.25396729 12.38208008 23.25396729 C12.38208008 21.27396729 12.38208008 19.29396729 12.38208008 17.25396729 C24.59208008 17.25396729 36.80208008 17.25396729 49.38208008 17.25396729 C49.38208008 12.63396729 49.38208008 8.01396729 49.38208008 3.25396729 C31.89208008 3.25396729 14.40208008 3.25396729 -3.61791992 3.25396729 Z M54.38208008 3.25396729 C54.38208008 17.77396729 54.38208008 32.29396729 54.38208008 47.25396729 C59.66208008 47.25396729 64.94208008 47.25396729 70.38208008 47.25396729 C70.38208008 32.73396729 70.38208008 18.21396729 70.38208008 3.25396729 C65.10208008 3.25396729 59.82208008 3.25396729 54.38208008 3.25396729 Z M77.38208008 3.25396729 C77.38208008 7.87396729 77.38208008 12.49396729 77.38208008 17.25396729 C83.98208008 17.25396729 90.58208008 17.25396729 97.38208008 17.25396729 C97.38208008 27.15396729 97.38208008 37.05396729 97.38208008 47.25396729 C102.99208008 47.25396729 108.60208008 47.25396729 114.38208008 47.25396729 C114.38208008 37.35396729 114.38208008 27.45396729 114.38208008 17.25396729 C120.98208008 17.25396729 127.58208008 17.25396729 134.38208008 17.25396729 C134.38208008 12.63396729 134.38208008 8.01396729 134.38208008 3.25396729 C115.57208008 3.25396729 96.76208008 3.25396729 77.38208008 3.25396729 Z " fill="#60FBEF" transform="translate(275.617919921875,378.74603271484375)"/>
<path d="M0 0 C17.84680367 -0.97996015 17.84680367 -0.97996015 22.49707031 2.45629883 C24.0429566 5.11865855 24.92912801 7.56303374 25.84863281 10.49926758 C28.4111772 16.07556603 31.3976088 21.46207921 34.28613281 26.87426758 C43.84863281 44.88826357 43.84863281 44.88826357 43.84863281 47.49926758 C36.91863281 47.49926758 29.98863281 47.49926758 22.84863281 47.49926758 C21.85863281 45.18926758 20.86863281 42.87926758 19.84863281 40.49926758 C8.95863281 40.00426758 8.95863281 40.00426758 -2.15136719 39.49926758 C-2.81136719 41.80926758 -3.47136719 44.11926758 -4.15136719 46.49926758 C-5.15136719 47.49926758 -5.15136719 47.49926758 -7.19262695 47.61279297 C-8.50444946 47.60493774 -8.50444946 47.60493774 -9.84277344 47.59692383 C-10.78701172 47.59370117 -11.73125 47.59047852 -12.70410156 47.5871582 C-13.69732422 47.5787793 -14.69054687 47.57040039 -15.71386719 47.56176758 C-16.71095703 47.55725586 -17.70804688 47.55274414 -18.73535156 47.5480957 C-21.20741567 47.53626765 -23.67936237 47.51978607 -26.15136719 47.49926758 C-23.48563047 39.22267892 -19.28745722 31.85185914 -15.15917969 24.22973633 C-13.6795413 21.49068827 -12.21983644 18.74172546 -10.76855469 15.98754883 C-10.16370239 14.83984009 -10.16370239 14.83984009 -9.54663086 13.66894531 C-8.75381218 12.16263789 -7.962266 10.65565988 -7.17211914 9.14794922 C-6.80820068 8.45693115 -6.44428223 7.76591309 -6.06933594 7.05395508 C-5.74731201 6.4402002 -5.42528809 5.82644531 -5.09350586 5.1940918 C-2.53291387 0.58781308 -2.53291387 0.58781308 0 0 Z M8.84863281 16.49926758 C6.15749398 20.11548539 4.3792368 22.98913367 3.84863281 27.49926758 C7.14863281 27.49926758 10.44863281 27.49926758 13.84863281 27.49926758 C13.13506199 24.64498428 12.45156092 22.38414852 11.28613281 19.74926758 C10.81175781 18.67676758 10.33738281 17.60426758 9.84863281 16.49926758 C9.51863281 16.49926758 9.18863281 16.49926758 8.84863281 16.49926758 Z " fill="#000000" transform="translate(568.1513671875,380.500732421875)"/>
<path d="M0 0 C19.8 0 39.6 0 60 0 C60 5.28 60 10.56 60 16 C53.07 16 46.14 16 39 16 C39 26.23 39 36.46 39 47 C36.050625 47.020625 33.10125 47.04125 30.0625 47.0625 C29.13187744 47.071604 28.20125488 47.08070801 27.24243164 47.09008789 C26.51403076 47.09258545 25.78562988 47.09508301 25.03515625 47.09765625 C24.2862915 47.10289307 23.53742676 47.10812988 22.76586914 47.11352539 C21 47 21 47 20 46 C19.91216458 43.78144736 19.89305391 41.56011504 19.90234375 39.33984375 C19.9037587 38.67537735 19.90517365 38.01091095 19.90663147 37.3263092 C19.91224482 35.19666101 19.92479946 33.06711661 19.9375 30.9375 C19.94251329 29.49674631 19.94707649 28.05599097 19.95117188 26.61523438 C19.96136924 23.07675042 19.9809417 19.53849187 20 16 C13.4 16 6.8 16 0 16 C0 10.72 0 5.44 0 0 Z " fill="#000000" transform="translate(415,381)"/>
<path d="M0 0 C2.68125 -0.04125 5.3625 -0.0825 8.125 -0.125 C8.95789551 -0.14320801 9.79079102 -0.16141602 10.64892578 -0.18017578 C15.1498395 -0.21346815 18.80020266 0.17455617 23 2 C23.66 2.66 24.32 3.32 25 4 C28.06097446 3.94158778 28.06097446 3.94158778 31.5625 3.5 C37.60526631 2.9585781 42.20228678 3.30067026 48 5 C48 4.67 48 4.34 48 4 C51.10189288 3.57425 53.91644958 3.38638378 57 4 C59.35332056 6.14377832 60.43113984 8.16593003 62 11 C63.32 8.69 64.64 6.38 66 4 C68.97 4 71.94 4 75 4 C73.23922965 8.81084795 70.84414696 13.24086367 68.4375 17.75 C68.02564453 18.52988281 67.61378906 19.30976563 67.18945312 20.11328125 C64.13188486 25.86811514 64.13188486 25.86811514 63 27 C61.48071962 27.07179964 59.95832518 27.08392007 58.4375 27.0625 C57.61121094 27.05347656 56.78492188 27.04445313 55.93359375 27.03515625 C54.97646484 27.01775391 54.97646484 27.01775391 54 27 C54.5259375 25.9171875 54.5259375 25.9171875 55.0625 24.8125 C56.15444407 21.5366678 56.10809605 20.24513844 55 17 C53.7295036 14.95950578 52.40568804 12.94982535 51 11 C51 14.3 51 17.6 51 21 C49.01432292 20.96744792 47.02864583 20.93489583 45.04296875 20.90234375 C42.79694539 20.91736783 42.79694539 20.91736783 40 22 C35.10522594 22.23684391 31.42394007 22.34208592 27 20 C26.34 19.34 25.68 18.68 25 18 C24.38769531 18.49113281 23.77539062 18.98226563 23.14453125 19.48828125 C18.64247422 21.6526242 14.60584136 21.32201535 9.6875 21.1875 C4.8921875 21.0946875 4.8921875 21.0946875 0 21 C0 14.07 0 7.14 0 0 Z M26 6 C27 9 27 9 27 9 Z M8 7 C8 9.64 8 12.28 8 15 C9.45742463 15.08096803 10.91612807 15.13917774 12.375 15.1875 C13.59316406 15.23970703 13.59316406 15.23970703 14.8359375 15.29296875 C15.55007813 15.19628906 16.26421875 15.09960938 17 15 C19.28600028 12.29667695 19.28600028 12.29667695 18.6875 9.875 C18.15421514 8.01406147 18.15421514 8.01406147 17 7 C15.48071962 6.92820036 13.95832518 6.91607993 12.4375 6.9375 C11.19806641 6.95103516 11.19806641 6.95103516 9.93359375 6.96484375 C8.97646484 6.98224609 8.97646484 6.98224609 8 7 Z M27 9 C27 9.99 27 10.98 27 12 C27.66 11.67 28.32 11.34 29 11 C28.34 10.34 27.68 9.68 27 9 Z M29 10 C29 10.33 29 10.66 29 11 C30.98 11 32.96 11 35 11 C35 10.67 35 10.34 35 10 C33.02 10 31.04 10 29 10 Z M34 15 C34.33 15.66 34.66 16.32 35 17 C38.465 16.505 38.465 16.505 42 16 C42 15.67 42 15.34 42 15 C39.36 15 36.72 15 34 15 Z " fill="#60FBEF" transform="translate(341,453)"/>
<path d="M0 0 C2.64 0 5.28 0 8 0 C8 1.32 8 2.64 8 4 C8.495 3.835 8.99 3.67 9.5 3.5 C14.48981624 2.50203675 19.60842158 2.07228105 24 5 C24 4.34 24 3.68 24 3 C31.45038168 2.63358779 31.45038168 2.63358779 33.875 4.25 C35.07323197 6.11391639 36.09356523 7.9779532 37 10 C39.15087746 8.09671632 39.15087746 8.09671632 40.125 5.375 C42 3 42 3 43.97265625 2.67578125 C45.98464726 2.68642671 47.99470596 2.83563164 50 3 C49.42151556 8.16503968 46.94367079 12.26363227 44.5 16.75 C44.08363281 17.52988281 43.66726563 18.30976563 43.23828125 19.11328125 C40.16171288 24.83828712 40.16171288 24.83828712 39 26 C37.48071962 26.07179964 35.95832518 26.08392007 34.4375 26.0625 C33.61121094 26.05347656 32.78492188 26.04445313 31.93359375 26.03515625 C30.97646484 26.01775391 30.97646484 26.01775391 30 26 C30.2475 24.845 30.495 23.69 30.75 22.5 C31.4222684 17.48039594 29.59586405 14.18903383 27 10 C26.773125 11.258125 26.54625 12.51625 26.3125 13.8125 C25.79320087 16.6922497 25.25784347 17.76710912 23.0625 19.75 C18.59320044 21.5742039 14.45829185 21.31797991 9.6875 21.1875 C4.8921875 21.0946875 4.8921875 21.0946875 0 21 C0 14.07 0 7.14 0 0 Z M25 7 C26 9 26 9 26 9 Z M8 11 C8.33 11.99 8.66 12.98 9 14 C13.61507774 15.04214691 13.61507774 15.04214691 18 14 C18 12.68 18 11.36 18 10 C13.92224809 9.0732382 11.57818963 8.66041447 8 11 Z " fill="#000000" transform="translate(271,453)"/>
<path d="M0 0 C2.31 0 4.62 0 7 0 C7 1.32 7 2.64 7 4 C9.64 4 12.28 4 15 4 C15 5.98 15 7.96 15 10 C12.36 10 9.72 10 7 10 C7.33 11.32 7.66 12.64 8 14 C9.11375 13.938125 10.2275 13.87625 11.375 13.8125 C12.57125 13.874375 13.7675 13.93625 15 14 C15.99 15.485 15.99 15.485 17 17 C16.67 18.32 16.34 19.64 16 21 C11.05 21 6.1 21 1 21 C-0.20272819 18.59454362 -0.10071472 17.05003047 -0.0625 14.375 C-0.04896484 13.14910156 -0.04896484 13.14910156 -0.03515625 11.8984375 C-0.02355469 11.27195312 -0.01195312 10.64546875 0 10 C-1.32 10 -2.64 10 -4 10 C-4 13.63 -4 17.26 -4 21 C-6.31 21 -8.62 21 -11 21 C-11 15.39 -11 9.78 -11 4 C-7.37 4 -3.74 4 0 4 C0 2.68 0 1.36 0 0 Z " fill="#60FBEF" transform="translate(521,453)"/>
<path d="M0 0 C0.79341797 0.00193359 1.58683594 0.00386719 2.40429688 0.00585938 C3.22865234 0.01810547 4.05300781 0.03035156 4.90234375 0.04296875 C5.73056641 0.04361328 6.55878906 0.04425781 7.41210938 0.04492188 C13.55877439 0.08993407 13.55877439 0.08993407 15.83984375 1.23046875 C15.65421875 2.36484375 15.46859375 3.49921875 15.27734375 4.66796875 C15.06078125 6.43140625 15.06078125 6.43140625 14.83984375 8.23046875 C15.16984375 8.56046875 15.49984375 8.89046875 15.83984375 9.23046875 C16.07513787 14.75988051 16.07513787 14.75988051 14.83984375 17.23046875 C11.13537822 18.46529059 7.69554295 18.37605077 3.83984375 18.35546875 C3.11539062 18.35933594 2.3909375 18.36320312 1.64453125 18.3671875 C-1.55298504 18.36128802 -4.10598232 18.24852673 -7.16015625 17.23046875 C-6.50015625 15.25046875 -5.84015625 13.27046875 -5.16015625 11.23046875 C-5.82015625 10.57046875 -6.48015625 9.91046875 -7.16015625 9.23046875 C-7.47265625 5.73046875 -7.47265625 5.73046875 -7.16015625 2.23046875 C-4.08871492 0.1828412 -3.46164666 -0.01960075 0 0 Z M-3.16015625 11.23046875 C-3.16015625 11.56046875 -3.16015625 11.89046875 -3.16015625 12.23046875 C0.13984375 12.23046875 3.43984375 12.23046875 6.83984375 12.23046875 C6.83984375 11.90046875 6.83984375 11.57046875 6.83984375 11.23046875 C3.53984375 11.23046875 0.23984375 11.23046875 -3.16015625 11.23046875 Z " fill="#60FBEF" transform="translate(423.16015625,456.76953125)"/>
<path d="M0 0 C1.31613281 -0.02578125 2.63226562 -0.0515625 3.98828125 -0.078125 C7.8241309 0.26211932 9.6718701 0.91896901 12.6875 3.25 C14.06976016 6.01452033 13.78275387 8.2961363 13.75 11.375 C13.74097656 12.47070312 13.73195313 13.56640625 13.72265625 14.6953125 C13.71105469 15.53835938 13.69945312 16.38140625 13.6875 17.25 C10.79212723 17.4724897 7.89715101 17.67843154 5 17.875 C4.18337891 17.93945312 3.36675781 18.00390625 2.52539062 18.0703125 C-1.88541291 18.35603257 -5.36006039 18.55239201 -9.3125 16.25 C-10.8125 13.875 -10.8125 13.875 -11.3125 11.25 C-9.9375 8.9375 -9.9375 8.9375 -8.3125 7.25 C-8.6425 6.92 -8.9725 6.59 -9.3125 6.25 C-9.35313832 4.58382885 -9.355221 2.91611905 -9.3125 1.25 C-6.32534862 -0.24357569 -3.27362064 0.02496565 0 0 Z M-7.3125 6.25 C-7.3125 6.58 -7.3125 6.91 -7.3125 7.25 C-5.6625 7.25 -4.0125 7.25 -2.3125 7.25 C-2.3125 6.92 -2.3125 6.59 -2.3125 6.25 C-3.9625 6.25 -5.6125 6.25 -7.3125 6.25 Z M-2.3125 11.25 C-1.9825 11.91 -1.6525 12.57 -1.3125 13.25 C2.1525 12.755 2.1525 12.755 5.6875 12.25 C5.6875 11.92 5.6875 11.59 5.6875 11.25 C3.0475 11.25 0.4075 11.25 -2.3125 11.25 Z " fill="#60FBEF" transform="translate(549.3125,456.75)"/>
<path d="M0 0 C2.48582573 2.61065977 2.97574241 3.57953509 3.1875 7.25 C3.0946875 8.61125 3.0946875 8.61125 3 10 C2.34 10 1.68 10 1 10 C1.66 11.65 2.32 13.3 3 15 C-0.25269451 16.62634726 -3.804785 16.18453471 -7.375 16.1875 C-8.14328125 16.19974609 -8.9115625 16.21199219 -9.703125 16.22460938 C-16.93379665 16.24337409 -16.93379665 16.24337409 -20 14 C-21.68305813 11.1147575 -22.00577608 9.2830278 -21.9375 5.9375 C-20.73046631 2.15546112 -19.38159208 1.02895525 -16 -1 C-10.79963521 -2.69314202 -5.07281328 -1.92958991 0 0 Z M-13 6 C-10.36 6 -7.72 6 -5 6 C-8.96979568 3.35346955 -9.03020432 3.35346955 -13 6 Z M-11 10 C-7 11 -7 11 -7 11 Z " fill="#60FBEF" transform="translate(506,458)"/>
<path d="M0 0 C1.12148438 -0.02578125 2.24296875 -0.0515625 3.3984375 -0.078125 C6.95139283 0.28319249 8.78750117 1.12445542 11.625 3.25 C13.19435594 6.38871188 12.97701103 8.78855822 12.625 12.25 C10.58569594 15.3769329 9.00059367 16.88899514 5.34765625 17.84765625 C-0.31911989 18.60730113 -4.99758681 18.17050471 -10.375 16.25 C-12.44020632 13.15219052 -12.66977024 12.2959519 -12.6875 8.75 C-12.70425781 7.9765625 -12.72101562 7.203125 -12.73828125 6.40625 C-12.28592894 3.72132014 -11.51158295 2.89121595 -9.375 1.25 C-6.07164934 0.14888311 -3.47667863 0.04773472 0 0 Z M-4.375 6.25 C-4.705 7.24 -5.035 8.23 -5.375 9.25 C-4.385 10.735 -4.385 10.735 -3.375 12.25 C-0.375 12.66666667 -0.375 12.66666667 2.625 12.25 C3.285 11.59 3.945 10.93 4.625 10.25 C4.3064823 8.14179203 4.3064823 8.14179203 3.625 6.25 C0.33803767 5.45046862 -1.08523192 5.15341064 -4.375 6.25 Z " fill="#60FBEF" transform="translate(577.375,456.75)"/>
<path d="M0 0 C2.64 0 5.28 0 8 0 C8 4.62 8 9.24 8 14 C12.95 14 17.9 14 23 14 C23 16.31 23 18.62 23 21 C15.41 21 7.82 21 0 21 C0 14.07 0 7.14 0 0 Z " fill="#60FBEF" transform="translate(461,453)"/>
<path d="M0 0 C2.31 0 4.62 0 7 0 C7 5.61 7 11.22 7 17 C4.69 17 2.38 17 0 17 C0 11.39 0 5.78 0 0 Z " fill="#60FBEF" transform="translate(440,457)"/>
<path d="M0 0 C3.96 0 7.92 0 12 0 C12 1.98 12 3.96 12 6 C7.38926889 7.29676812 3.66159911 6.71109139 -1 6 C-0.67 4.02 -0.34 2.04 0 0 Z " fill="#60FBEF" transform="translate(546,449)"/>
<path d="M0 0 C2.29633824 3.44450737 2.54016485 5.93812283 3 10 C2.67 9.01 2.34 8.02 2 7 C-0.475 8.485 -0.475 8.485 -3 10 C-2.69201674 8.51988629 -2.378482 7.04092675 -2.0625 5.5625 C-1.88847656 4.73878906 -1.71445313 3.91507812 -1.53515625 3.06640625 C-1 1 -1 1 0 0 Z " fill="#555555" transform="translate(181,339)"/>
<path d="M0 0 C2.31 0 4.62 0 7 0 C7 1.32 7 2.64 7 4 C4.69 4 2.38 4 0 4 C0 2.68 0 1.36 0 0 Z " fill="#60FBEF" transform="translate(510,452)"/>
<path d="M0 0 C2.31 0 4.62 0 7 0 C7 1.32 7 2.64 7 4 C4.69 4 2.38 4 0 4 C0 2.68 0 1.36 0 0 Z " fill="#60FBEF" transform="translate(440,452)"/>
<path d="M0 0 C1.98 0.66 3.96 1.32 6 2 C6 2.66 6 3.32 6 4 C5.01 4 4.02 4 3 4 C3.33 5.65 3.66 7.3 4 9 C1.18167487 7.59083743 0.97406539 5.92219617 0 3 C0 2.01 0 1.02 0 0 Z " fill="#585858" transform="translate(123,372)"/>
<path d="M0 0 C0.99 0.33 1.98 0.66 3 1 C0.36 3.64 -2.28 6.28 -5 9 C-5.66 8.67 -6.32 8.34 -7 8 C-4.69 5.36 -2.38 2.72 0 0 Z " fill="#303030" transform="translate(181,305)"/>
<path d="M0 0 C0.99 0.33 1.98 0.66 3 1 C2.030625 1.61875 1.06125 2.2375 0.0625 2.875 C-3.02835362 4.65678846 -3.02835362 4.65678846 -4 7 C-4.99 7 -5.98 7 -7 7 C-5.65117186 2.95351557 -3.65173931 2.04497401 0 0 Z " fill="#3C3C3C" transform="translate(125,322)"/>
</svg>
