<?xml version="1.0" encoding="UTF-8"?>
<svg version="1.1" xmlns="http://www.w3.org/2000/svg" width="3333" height="3333">
<path d="M0 0 C0.9806543 0.49242187 1.96130859 0.98484375 2.97167969 1.4921875 C36.57990241 18.45444142 68.29728619 39.52141054 97.25585938 63.56005859 C99.71166737 65.58754398 102.20322868 67.57005696 104.6875 69.5625 C109.37126969 73.39275142 113.82355221 77.43906064 118.23510742 81.57641602 C120.9870411 84.15671142 123.7729371 86.6696891 126.640625 89.12109375 C131.81393131 93.62574142 136.63484292 98.48503888 141.47290039 103.3425293 C143.05959946 104.93458966 144.65157742 106.5212299 146.24414062 108.10742188 C151.70688123 113.56621984 157.00135874 119.10883007 162 125 C163.03323225 126.18007278 164.06837497 127.35847569 165.10546875 128.53515625 C189.34065118 156.21250469 210.59430694 186.1408788 229 218 C229.62068359 219.06782715 229.62068359 219.06782715 230.25390625 220.15722656 C270.58056947 289.88604697 293.76631244 367.9278495 301 448 C301.13269287 449.4495533 301.13269287 449.4495533 301.26806641 450.9283905 C301.98148937 459.35872587 302.17971347 467.7459202 302.203125 476.203125 C302.20736607 477.26532887 302.20736607 477.26532887 302.21169281 478.34899139 C302.2265807 482.11531423 302.23586904 485.88159996 302.24023438 489.64794922 C302.24456665 492.68030172 302.25826638 495.71236124 302.28125 498.74462891 C302.48231529 525.85606657 301.02585056 552.6886623 296.75 579.5 C296.59659653 580.48305115 296.59659653 580.48305115 296.44009399 581.48596191 C287.2567759 640.1033281 268.68383982 696.09513816 242 749 C241.50757812 749.9806543 241.01515625 750.96130859 240.5078125 751.97167969 C223.54555858 785.57990241 202.47858946 817.29728619 178.43994141 846.25585938 C176.41245602 848.71166737 174.42994304 851.20322868 172.4375 853.6875 C168.60724858 858.37126969 164.56093936 862.82355221 160.42358398 867.23510742 C157.84328858 869.9870411 155.3303109 872.7729371 152.87890625 875.640625 C148.37425858 880.81393131 143.51496112 885.63484292 138.6574707 890.47290039 C137.06541034 892.05959946 135.4787701 893.65157742 133.89257812 895.24414062 C128.43378016 900.70688123 122.89116993 906.00135874 117 911 C115.81992722 912.03323225 114.64152431 913.06837497 113.46484375 914.10546875 C85.78749531 938.34065118 55.8591212 959.59430694 24 978 C22.93217285 978.62068359 22.93217285 978.62068359 21.84277344 979.25390625 C-47.88604697 1019.58056947 -125.9278495 1042.76631244 -206 1050 C-206.96636887 1050.08846191 -207.93273773 1050.17692383 -208.9283905 1050.26806641 C-217.35872587 1050.98148937 -225.7459202 1051.17971347 -234.203125 1051.203125 C-235.26532887 1051.20736607 -235.26532887 1051.20736607 -236.34899139 1051.21169281 C-240.11531423 1051.2265807 -243.88159996 1051.23586904 -247.64794922 1051.24023438 C-250.68030172 1051.24456665 -253.71236124 1051.25826638 -256.74462891 1051.28125 C-283.85606657 1051.48231529 -310.6886623 1050.02585056 -337.5 1045.75 C-338.15536743 1045.64773102 -338.81073486 1045.54546204 -339.48596191 1045.44009399 C-398.1033281 1036.2567759 -454.09513816 1017.68383982 -507 991 C-507.9806543 990.50757812 -508.96130859 990.01515625 -509.97167969 989.5078125 C-543.57990241 972.54555858 -575.29728619 951.47858946 -604.25585938 927.43994141 C-606.71166737 925.41245602 -609.20322868 923.42994304 -611.6875 921.4375 C-616.37126969 917.60724858 -620.82355221 913.56093936 -625.23510742 909.42358398 C-627.9870411 906.84328858 -630.7729371 904.3303109 -633.640625 901.87890625 C-638.81393131 897.37425858 -643.63484292 892.51496112 -648.47290039 887.6574707 C-650.05959946 886.06541034 -651.65157742 884.4787701 -653.24414062 882.89257812 C-658.70688123 877.43378016 -664.00135874 871.89116993 -669 866 C-670.03323225 864.81992722 -671.06837497 863.64152431 -672.10546875 862.46484375 C-696.34065118 834.78749531 -717.59430694 804.8591212 -736 773 C-736.41378906 772.28811523 -736.82757812 771.57623047 -737.25390625 770.84277344 C-782.27651326 692.99419814 -807.00239761 603.63788058 -791.16650391 350.90405273 C-780.83811645 313.01355201 -766.66280208 277.01925172 -749 242 C-748.50757813 241.0193457 -748.01515625 240.03869141 -747.5078125 239.02832031 C-730.54555858 205.42009759 -709.47858946 173.70271381 -685.43994141 144.74414062 C-683.41245602 142.28833263 -681.42994304 139.79677132 -679.4375 137.3125 C-675.60724858 132.62873031 -671.56093936 128.17644779 -667.42358398 123.76489258 C-664.84328858 121.0129589 -662.3303109 118.2270629 -659.87890625 115.359375 C-655.37425858 110.18606869 -650.51496112 105.36515708 -645.6574707 100.52709961 C-644.06541034 98.94040054 -642.4787701 97.34842258 -640.89257812 95.75585938 C-635.43297102 90.29273668 -629.87685221 85.01597325 -624 80 C-622.4551874 78.5867645 -620.91304675 77.17059591 -619.375 75.75 C-614.33446174 71.20197235 -609.05121534 67.03307905 -603.6875 62.87890625 C-601.24218693 60.98223768 -598.82848895 59.05452725 -596.4375 57.08984375 C-587.39343228 49.67476313 -577.96949812 42.99733929 -568.24560547 36.50341797 C-566.20905187 35.13995884 -564.18274774 33.76295268 -562.16015625 32.37890625 C-489.75380507 -16.93273623 -404.53636496 -47.61865703 0 0 Z " fill="#FFFFFF" transform="translate(1920,1171)"/>
<path d="M0 0 C0.74523926 0.20367188 1.49047852 0.40734375 2.25830078 0.6171875 C22.7815911 6.3212802 41.59835858 17.05025068 57.15424156 31.56926918 C57.71445388 32.08962593 58.2746662 32.60998269 58.85185464 33.14610783 C64.74296787 38.64703012 70.46096856 44.31532086 76.15713501 50.01669312 C77.31938 51.17634548 78.48183627 52.33578614 79.64448202 53.49503672 C82.79993429 56.64252207 85.95234076 59.79304177 89.10418367 62.94414091 C92.51894038 66.35702903 95.9365378 69.76707074 99.35371399 73.17753601 C106.80454329 80.61485899 114.25166233 88.05588951 121.69794893 95.4977603 C126.35417699 100.15121502 131.0111374 104.80393637 135.66822433 109.45653152 C148.58436775 122.36049649 161.49957393 135.26539788 174.41132545 148.17375755 C175.64758797 149.40969072 175.64758797 149.40969072 176.90882548 150.67059223 C177.73485051 151.49639898 178.56087554 152.32220573 179.41193163 153.17303693 C181.08549193 154.84615378 182.75905379 156.51926907 184.43261719 158.19238281 C185.262743 159.0222872 186.09286882 159.85219159 186.94814996 160.70724459 C200.40743352 174.16257772 213.87346229 187.61113859 227.34240051 201.05680661 C241.19907689 214.88973733 255.05008942 228.72831834 268.89548051 242.57254469 C276.65806966 250.33421934 284.42303209 258.09348537 292.19426346 265.84650803 C298.80814966 272.44495037 305.41681682 279.04856549 312.01886775 285.65885042 C315.38254339 289.02641625 318.74853432 292.39157372 322.12120628 295.75013161 C325.21677915 298.83286877 328.30516405 301.92263182 331.38829498 305.01781102 C332.49652103 306.12797733 333.60721463 307.23568796 334.72080334 308.34047501 C344.68254363 318.2285319 354.17271613 328.89470994 361.1875 341.125 C361.58984863 341.82036865 361.99219727 342.5157373 362.40673828 343.23217773 C369.89029128 356.5889176 374.98769967 371.0177694 378 386 C378.22429688 387.06347656 378.44859375 388.12695312 378.6796875 389.22265625 C384.85348461 424.024266 376.68639708 461.65763615 356.77783203 490.75244141 C333.38689118 523.99876534 300.38140789 544.29297076 260.375 551.3125 C223.11579553 555.84461376 184.71242308 546.86567357 154.92986012 523.60184479 C141.63635374 512.42986752 129.56968656 499.86234059 117.31085408 487.58696246 C113.84821766 484.12183667 110.37981141 480.66249364 106.91220093 477.2023468 C100.13873874 470.44157057 93.37069818 463.67539259 86.60475089 456.90709651 C81.10288312 451.40343935 75.59923911 445.90156442 70.09435463 440.40092468 C69.30829625 439.6154615 68.52223788 438.82999831 67.71235955 438.02073321 C66.11509601 436.42468152 64.51783133 434.82863097 62.92056552 433.23258156 C47.97653148 418.2993985 33.03899207 403.35973213 18.10343764 388.41806883 C4.45737212 374.76683046 -9.19689862 361.12383296 -22.85504595 347.48468345 C-36.90734311 333.45178155 -50.95405249 319.41330873 -64.99477786 305.3688283 C-72.86656455 297.49513289 -80.74051672 289.62363333 -88.62034035 281.75798035 C-95.32469285 275.06556377 -102.02373162 268.36788256 -108.71607468 261.66345584 C-112.12623837 258.24742045 -115.53871128 254.83378399 -118.95782661 251.42670631 C-122.09457989 248.30086812 -125.22418061 245.16804137 -128.34849723 242.02977401 C-129.47280138 240.90283848 -130.59957839 239.77836271 -131.72922478 238.65678233 C-158.43752661 212.12581893 -176.11619664 178.09614708 -176.38061523 139.92211914 C-176.38108786 138.46891163 -176.37917002 137.0157016 -176.375 135.5625 C-176.37412384 134.81499481 -176.37324768 134.06748962 -176.37234497 133.29733276 C-176.22976286 96.31133572 -162.35326145 63.86556125 -137 37 C-136.32710937 36.26265625 -135.65421875 35.5253125 -134.9609375 34.765625 C-117.86304197 16.70717354 -94.71447768 5.49945139 -71 -1 C-70.33242676 -1.19062012 -69.66485352 -1.38124023 -68.97705078 -1.57763672 C-47.88875154 -7.3250064 -20.79935464 -6.02637237 0 0 Z " fill="#FFFFFF" transform="translate(2398,2226)"/>
<path d="M0 0 C1.12125778 0.00131424 1.12125778 0.00131424 2.26516724 0.00265503 C39.25116428 0.14523714 71.69693875 14.02173855 98.5625 39.375 C99.29984375 40.04789063 100.0371875 40.72078125 100.796875 41.4140625 C118.85532646 58.51195803 130.06304861 81.66052232 136.5625 105.375 C136.75312012 106.04257324 136.94374023 106.71014648 137.14013672 107.39794922 C142.8875064 128.48624846 141.58887237 155.57564536 135.5625 176.375 C135.35882812 177.12023926 135.15515625 177.86547852 134.9453125 178.63330078 C129.2412198 199.1565911 118.51224932 217.97335858 103.99323082 233.52924156 C103.21269569 234.36956004 103.21269569 234.36956004 102.41639217 235.22685464 C96.91546988 241.11796787 91.24717914 246.83596856 85.54580688 252.53213501 C84.38615452 253.69438 83.22671386 254.85683627 82.06746328 256.01948202 C78.91997793 259.17493429 75.76945823 262.32734076 72.61835909 265.47918367 C69.20547097 268.89394038 65.79542926 272.3115378 62.38496399 275.72871399 C54.94764101 283.17954329 47.50661049 290.62666233 40.0647397 298.07294893 C35.41128498 302.72917699 30.75856363 307.3861374 26.10596848 312.04322433 C13.20200351 324.95936775 0.29710212 337.87457393 -12.61125755 350.78632545 C-13.435213 351.61050046 -14.25916844 352.43467547 -15.10809223 353.28382548 C-15.93389898 354.10985051 -16.75970573 354.93587554 -17.61053693 355.78693163 C-19.28365378 357.46049193 -20.95676907 359.13405379 -22.62988281 360.80761719 C-23.4597872 361.637743 -24.28969159 362.46786882 -25.14474459 363.32314996 C-38.60007772 376.78243352 -52.04863859 390.24846229 -65.49430661 403.71740051 C-79.32723733 417.57407689 -93.16581834 431.42508942 -107.01004469 445.27048051 C-114.77171934 453.03306966 -122.53098537 460.79803209 -130.28400803 468.56926346 C-136.88245037 475.18314966 -143.48606549 481.79181682 -150.09635042 488.39386775 C-153.46391625 491.75754339 -156.82907372 495.12353432 -160.18763161 498.49620628 C-163.27036877 501.59177915 -166.36013182 504.68016405 -169.45531102 507.76329498 C-170.56547733 508.87152103 -171.67318796 509.98221463 -172.77797501 511.09580334 C-182.6660319 521.05754363 -193.33220994 530.54771613 -205.5625 537.5625 C-206.25786865 537.96484863 -206.9532373 538.36719727 -207.66967773 538.78173828 C-221.0264176 546.26529128 -235.4552694 551.36269967 -250.4375 554.375 C-251.50097656 554.59929688 -252.56445312 554.82359375 -253.66015625 555.0546875 C-288.461766 561.22848461 -326.09513615 553.06139708 -355.18994141 533.15283203 C-388.43626534 509.76189118 -408.73047076 476.75640789 -415.75 436.75 C-420.28211376 399.49079553 -411.30317357 361.08742308 -388.03934479 331.30486012 C-376.86736752 318.01135374 -364.29984059 305.94468656 -352.02446246 293.68585408 C-348.55933667 290.22321766 -345.09999364 286.75481141 -341.6398468 283.28720093 C-334.87907057 276.51373874 -328.11289259 269.74569818 -321.34459651 262.97975089 C-315.84093935 257.47788312 -310.33906442 251.97423911 -304.83842468 246.46935463 C-304.0529615 245.68329625 -303.26749831 244.89723788 -302.45823321 244.08735955 C-300.86218152 242.49009601 -299.26613097 240.89283133 -297.67008156 239.29556552 C-282.7368985 224.35153148 -267.79723213 209.41399207 -252.85556883 194.47843764 C-239.20433046 180.83237212 -225.56133296 167.17810138 -211.92218345 153.51995405 C-197.88928155 139.46765689 -183.85080873 125.42094751 -169.8063283 111.38022214 C-161.93263289 103.50843545 -154.06113333 95.63448328 -146.19548035 87.75465965 C-139.50306377 81.05030715 -132.80538256 74.35126838 -126.10095584 67.65892532 C-122.68492045 64.24876163 -119.27128399 60.83628872 -115.86420631 57.41717339 C-112.73836812 54.28042011 -109.60554137 51.15081939 -106.46727401 48.02650277 C-105.34033848 46.90219862 -104.21586271 45.77542161 -103.09428233 44.64577522 C-75.01879053 16.38262104 -40.08751024 -0.11503271 0 0 Z " fill="#FFFFFF" transform="translate(971.4375,2221.625)"/>
<path d="M0 0 C26.54146774 23.71296096 45.52961259 57.28784091 47.67578125 93.390625 C49.47525184 133.914993 38.55045982 170.580408 11.00831795 200.88918853 C2.01822905 210.53025282 -7.41109785 219.76618295 -16.73725629 229.07977092 C-20.20238208 232.54240734 -23.66172511 236.01081359 -27.12187195 239.47842407 C-33.88264818 246.25188626 -40.64882616 253.01992682 -47.41712224 259.78587411 C-52.9207794 265.28774188 -58.42265433 270.79138589 -63.92329407 276.29627037 C-64.70875725 277.08232875 -65.49422044 277.86838712 -66.30348554 278.67826545 C-67.89953723 280.27552899 -69.49558778 281.87279367 -71.09163719 283.47005948 C-86.02482025 298.41409352 -100.96448662 313.35163293 -115.90614992 328.28718736 C-129.55738829 341.93325288 -143.20038579 355.58752362 -156.8395353 369.24567095 C-170.8724372 383.29796811 -184.91091002 397.34467749 -198.95539045 411.38540286 C-206.82908586 419.25718955 -214.70058542 427.13114172 -222.5662384 435.01096535 C-229.25865498 441.71531785 -235.95633619 448.41435662 -242.66076291 455.10669968 C-246.0767983 458.51686337 -249.49043476 461.92933628 -252.89751244 465.34845161 C-256.02335063 468.48520489 -259.15617738 471.61480561 -262.29444474 474.73912223 C-263.42138027 475.86342638 -264.54585604 476.99020339 -265.66743642 478.11984978 C-292.19839982 504.82815161 -326.22807167 522.50682164 -364.40209961 522.77124023 C-365.85530712 522.77171286 -367.30851715 522.76979502 -368.76171875 522.765625 C-369.88297653 522.76431076 -369.88297653 522.76431076 -371.02688599 522.76296997 C-408.01288303 522.62038786 -440.4586575 508.74388645 -467.32421875 483.390625 C-468.0615625 482.71773437 -468.79890625 482.04484375 -469.55859375 481.3515625 C-487.61704521 464.25366697 -498.82476736 441.10510268 -505.32421875 417.390625 C-505.51483887 416.72305176 -505.70545898 416.05547852 -505.90185547 415.36767578 C-511.64922515 394.27937654 -510.35059112 367.18997964 -504.32421875 346.390625 C-504.12054687 345.64538574 -503.916875 344.90014648 -503.70703125 344.13232422 C-498.00293855 323.6090339 -487.27396807 304.79226642 -472.75494957 289.23638344 C-472.23459282 288.67617112 -471.71423606 288.1159588 -471.17811092 287.53877036 C-465.67718863 281.64765713 -460.00889789 275.92965644 -454.30752563 270.23348999 C-453.14787327 269.071245 -451.98843261 267.90878873 -450.82918203 266.74614298 C-447.68169668 263.59069071 -444.53117698 260.43828424 -441.38007784 257.28644133 C-437.96718972 253.87168462 -434.55714801 250.4540872 -431.14668274 247.03691101 C-423.70935976 239.58608171 -416.26832924 232.13896267 -408.82645845 224.69267607 C-404.17300373 220.03644801 -399.52028238 215.3794876 -394.86768723 210.72240067 C-381.96372226 197.80625725 -369.05882087 184.89105107 -356.1504612 171.97929955 C-354.91452803 170.74303703 -354.91452803 170.74303703 -353.65362652 169.48179952 C-352.82781977 168.65577449 -352.00201302 167.82974946 -351.15118182 166.97869337 C-349.47806497 165.30513307 -347.80494968 163.63157121 -346.13183594 161.95800781 C-345.30193155 161.127882 -344.47202716 160.29775618 -343.61697416 159.44247504 C-330.16164103 145.98319148 -316.71308016 132.51716271 -303.26741214 119.04822449 C-289.43448142 105.19154811 -275.59590041 91.34053558 -261.75167406 77.49514449 C-253.98999941 69.73255534 -246.23073338 61.96759291 -238.47771072 54.19636154 C-231.87926838 47.58247534 -225.27565326 40.97380818 -218.66536833 34.37175725 C-215.2978025 31.00808161 -211.93264503 27.64209068 -208.57408714 24.26941872 C-205.49134998 21.17384585 -202.40158693 18.08546095 -199.30640773 15.00233002 C-198.19624142 13.89410397 -197.08853079 12.78341037 -195.98374374 11.66982166 C-186.09568685 1.70808137 -175.42950881 -7.78209113 -163.19921875 -14.796875 C-162.5038501 -15.19922363 -161.80848145 -15.60157227 -161.09204102 -16.01611328 C-147.73530115 -23.49966628 -133.30644935 -28.59707467 -118.32421875 -31.609375 C-117.26074219 -31.83367188 -116.19726562 -32.05796875 -115.1015625 -32.2890625 C-73.87776662 -39.60215387 -31.61584573 -26.79150186 0 0 Z " fill="#FFFFFF" transform="translate(2730.32421875,588.609375)"/>
<path d="M0 0 C10.5082862 9.5490714 20.42386194 19.75865636 30.45455158 29.80288434 C33.91718799 33.26801013 37.38559425 36.72735316 40.85320473 40.1875 C47.62666692 46.94827624 54.39470747 53.71445421 61.16065476 60.4827503 C66.66252254 65.98640745 72.16616654 71.48828238 77.67105103 76.98892212 C78.85013859 78.1671169 78.85013859 78.1671169 80.0530461 79.36911359 C81.65030964 80.96516529 83.24757432 82.56121583 84.84484013 84.15726525 C99.78887418 99.0904483 114.72641359 114.03011468 129.66196802 128.97177798 C143.30803353 142.62301635 156.96230428 156.26601384 170.62045161 169.90516335 C184.67274877 183.93806525 198.71945814 197.97653808 212.76018351 212.02101851 C220.6319702 219.89471392 228.50592238 227.76621347 236.385746 235.63186646 C243.0900985 242.32428303 249.78913727 249.02196424 256.48148034 255.72639096 C259.89164402 259.14242635 263.30411694 262.55606281 266.72323227 265.96314049 C269.85998555 269.08897868 272.98958626 272.22180543 276.11390289 275.36007279 C277.23820704 276.48700833 278.36498405 277.61148409 279.49463043 278.73306447 C306.20293226 305.26402787 323.88160229 339.29369973 324.14602089 377.46772766 C324.14649352 378.92093517 324.14457567 380.3741452 324.14040565 381.8273468 C324.13909142 382.94860458 324.13909142 382.94860458 324.13775063 384.09251404 C323.99516851 421.07851109 310.1186671 453.52428555 284.76540565 480.3898468 C284.09251503 481.12719055 283.4196244 481.8645343 282.72634315 482.6242218 C265.62844763 500.68267326 242.47988333 511.89039542 218.76540565 518.3898468 C218.09783241 518.58046692 217.43025917 518.77108704 216.74245644 518.96748352 C195.6541572 524.7148532 168.5647603 523.41621917 147.76540565 517.3898468 C147.0201664 517.18617493 146.27492714 516.98250305 145.50710487 516.7726593 C124.98381455 511.0685666 106.16704708 500.33959613 90.61116409 485.82057762 C89.77084562 485.04004249 89.77084562 485.04004249 88.91355101 484.24373897 C83.02243778 478.74281669 77.3044371 473.07452595 71.60827065 467.37315369 C70.44602565 466.21350132 69.28356939 465.05406066 68.12092364 463.89481008 C64.96547137 460.74732473 61.81306489 457.59680504 58.66122198 454.44570589 C55.24646527 451.03281778 51.82886785 447.62277607 48.41169167 444.21231079 C40.96086236 436.77498781 33.51374332 429.33395729 26.06745672 421.89208651 C21.41122867 417.23863178 16.75426825 412.58591043 12.09718132 407.93331528 C-0.81896209 395.02935031 -13.73416828 382.12444892 -26.6459198 369.21608925 C-27.47009481 368.39213381 -28.29426982 367.56817836 -29.14341982 366.71925458 C-29.96944486 365.89344782 -30.79546989 365.06764107 -31.64652598 364.21680987 C-33.32008628 362.54369302 -34.99364813 360.87057773 -36.66721153 359.19746399 C-37.91240026 357.95260741 -37.91240026 357.95260741 -39.18274431 356.68260221 C-52.64202786 343.22726909 -66.10805664 329.77870821 -79.57699485 316.33304019 C-93.43367123 302.50010947 -107.28468376 288.66152846 -121.13007486 274.81730211 C-128.89266401 267.05562746 -136.65762644 259.29636143 -144.4288578 251.54333878 C-151.042744 244.94489643 -157.65141116 238.34128131 -164.25346209 231.73099639 C-167.61713773 228.36343055 -170.98312867 224.99827308 -174.35580063 221.63971519 C-177.4513735 218.55697803 -180.5397584 215.46721498 -183.62288933 212.37203579 C-184.73111537 211.26186947 -185.84180898 210.15415884 -186.95539768 209.04937179 C-196.91713798 199.1613149 -206.40731048 188.49513687 -213.42209435 176.2648468 C-213.82444298 175.56947815 -214.22679161 174.8741095 -214.64133263 174.15766907 C-222.12488563 160.8009292 -227.22229401 146.37207741 -230.23459435 131.3898468 C-230.45889122 130.32637024 -230.6831881 129.26289368 -230.91428185 128.16719055 C-237.08807896 93.36558081 -228.92099143 55.73221065 -209.01242638 26.6374054 C-185.62148553 -6.60891853 -152.61600224 -26.90312396 -112.60959435 -33.9226532 C-71.64688042 -38.90525232 -30.95782945 -27.44399797 0 0 Z " fill="#FFFFFF" transform="translate(787.2345943450928,589.6101531982422)"/>
<path d="M0 0 C26.284534 24.10109038 42.37596214 57.50126893 45.24047852 93.01782227 C45.38095331 97.11782571 45.38408402 101.21459329 45.38092041 105.31672668 C45.38537709 107.13856768 45.38537709 107.13856768 45.38992381 108.99721354 C45.39706619 112.34735346 45.39978016 115.69744205 45.40052128 119.04758584 C45.40238197 122.66952669 45.40993447 126.29145664 45.41665649 129.91339111 C45.43020102 137.82510422 45.43625888 145.73681224 45.44066715 153.64853501 C45.44343697 158.59748011 45.44767573 163.54642327 45.45217133 168.49536705 C45.46436047 182.22192289 45.47465948 195.9484772 45.47804642 209.67503834 C45.47826598 210.55250677 45.47848555 211.4299752 45.47871177 212.33403359 C45.47893005 213.21350095 45.47914832 214.09296831 45.47937322 214.9990862 C45.47981667 216.78096632 45.48026323 218.56284644 45.48071289 220.34472656 C45.48093432 221.22858466 45.48115575 222.11244275 45.48138389 223.02308442 C45.48532611 237.32268088 45.5027641 251.62222619 45.52607241 265.92180292 C45.54985935 280.63494789 45.56225165 295.3480673 45.56341434 310.06123179 C45.56432715 318.30909207 45.56997915 326.55688576 45.58823395 334.80472755 C45.60373461 341.83256982 45.60869739 348.86032493 45.60049585 355.88818107 C45.59662382 359.46538273 45.59734687 363.04240941 45.61155319 366.61958885 C45.77648399 410.71835558 35.28835677 449.18353513 3.88500977 481.47094727 C-16.85903185 502.08738446 -45.67773886 516.38849121 -74.75952148 520.01782227 C-75.58581055 520.12739258 -76.41209961 520.23696289 -77.26342773 520.34985352 C-114.05715526 524.4624162 -151.71517075 514.32622937 -180.96508789 491.47192383 C-210.90968587 467.20661423 -229.39050319 432.94214583 -233.5483557 394.64276612 C-233.94883958 389.66446099 -233.90009759 384.68355769 -233.89323425 379.69200134 C-233.89549981 378.47461842 -233.89776537 377.25723549 -233.90009958 376.00296217 C-233.90531338 372.64509775 -233.90608813 369.28728711 -233.9049052 365.9294225 C-233.9047003 362.29938003 -233.91022855 358.66934541 -233.91496277 355.03930664 C-233.92325124 347.93444151 -233.92601681 340.82958467 -233.92657515 333.72471511 C-233.92705127 327.94465001 -233.92911084 322.16458763 -233.93227577 316.38452339 C-233.94107832 299.97282496 -233.94569591 283.56113305 -233.9449453 267.14943223 C-233.94490534 266.26561276 -233.94486539 265.38179329 -233.94482422 264.47119141 C-233.94478334 263.58628407 -233.94474246 262.70137673 -233.94470034 261.78965402 C-233.94429424 247.46150152 -233.95385574 233.13337533 -233.96796259 218.80523043 C-233.98235541 204.06950467 -233.98923114 189.33379172 -233.98836881 174.59805876 C-233.98803779 166.33469344 -233.99074303 158.07135571 -234.00154686 149.80799675 C-234.0106903 142.76980492 -234.01279584 135.73165317 -234.00603744 128.69345795 C-234.00279119 125.10868849 -234.00264613 121.52399575 -234.01139069 117.93923378 C-234.0890696 83.97264987 -234.0890696 83.97264987 -229.57202148 67.51782227 C-229.25164917 66.3330127 -229.25164917 66.3330127 -228.92480469 65.12426758 C-226.64189651 57.05437734 -223.44959951 49.53386812 -219.75952148 42.01782227 C-219.45143555 41.3786084 -219.14334961 40.73939453 -218.82592773 40.08081055 C-203.54114649 8.67882999 -175.15689189 -16.22944655 -142.23901367 -27.8737793 C-132.94682284 -30.95496557 -123.49545378 -33.76715863 -113.75952148 -34.98217773 C-112.93323242 -35.09174805 -112.10694336 -35.20131836 -111.25561523 -35.31420898 C-70.82983869 -39.8327384 -30.36085194 -27.05168377 0 0 Z " fill="#FFFFFF" transform="translate(1760.759521484375,2534.982177734375)"/>
<path d="M0 0 C26.284534 24.10109038 42.37596214 57.50126893 45.24047852 93.01782227 C45.38095331 97.11782571 45.38408402 101.21459329 45.38092041 105.31672668 C45.38537709 107.13856768 45.38537709 107.13856768 45.38992381 108.99721354 C45.39706619 112.34735346 45.39978016 115.69744205 45.40052128 119.04758584 C45.40238197 122.66952669 45.40993447 126.29145664 45.41665649 129.91339111 C45.43020102 137.82510422 45.43625888 145.73681224 45.44066715 153.64853501 C45.44343697 158.59748011 45.44767573 163.54642327 45.45217133 168.49536705 C45.46436047 182.22192289 45.47465948 195.9484772 45.47804642 209.67503834 C45.47826598 210.55250677 45.47848555 211.4299752 45.47871177 212.33403359 C45.47893005 213.21350095 45.47914832 214.09296831 45.47937322 214.9990862 C45.47981667 216.78096632 45.48026323 218.56284644 45.48071289 220.34472656 C45.48093432 221.22858466 45.48115575 222.11244275 45.48138389 223.02308442 C45.48532611 237.32268088 45.5027641 251.62222619 45.52607241 265.92180292 C45.54985935 280.63494789 45.56225165 295.3480673 45.56341434 310.06123179 C45.56432715 318.30909207 45.56997915 326.55688576 45.58823395 334.80472755 C45.60373461 341.83256982 45.60869739 348.86032493 45.60049585 355.88818107 C45.59662382 359.46538273 45.59734687 363.04240941 45.61155319 366.61958885 C45.77648399 410.71835558 35.28835677 449.18353513 3.88500977 481.47094727 C-16.85903185 502.08738446 -45.67773886 516.38849121 -74.75952148 520.01782227 C-75.58581055 520.12739258 -76.41209961 520.23696289 -77.26342773 520.34985352 C-114.05715526 524.4624162 -151.71517075 514.32622937 -180.96508789 491.47192383 C-210.90968587 467.20661423 -229.39050319 432.94214583 -233.5483557 394.64276612 C-233.94883958 389.66446099 -233.90009759 384.68355769 -233.89323425 379.69200134 C-233.89549981 378.47461842 -233.89776537 377.25723549 -233.90009958 376.00296217 C-233.90531338 372.64509775 -233.90608813 369.28728711 -233.9049052 365.9294225 C-233.9047003 362.29938003 -233.91022855 358.66934541 -233.91496277 355.03930664 C-233.92325124 347.93444151 -233.92601681 340.82958467 -233.92657515 333.72471511 C-233.92705127 327.94465001 -233.92911084 322.16458763 -233.93227577 316.38452339 C-233.94107832 299.97282496 -233.94569591 283.56113305 -233.9449453 267.14943223 C-233.94490534 266.26561276 -233.94486539 265.38179329 -233.94482422 264.47119141 C-233.94478334 263.58628407 -233.94474246 262.70137673 -233.94470034 261.78965402 C-233.94429424 247.46150152 -233.95385574 233.13337533 -233.96796259 218.80523043 C-233.98235541 204.06950467 -233.98923114 189.33379172 -233.98836881 174.59805876 C-233.98803779 166.33469344 -233.99074303 158.07135571 -234.00154686 149.80799675 C-234.0106903 142.76980492 -234.01279584 135.73165317 -234.00603744 128.69345795 C-234.00279119 125.10868849 -234.00264613 121.52399575 -234.01139069 117.93923378 C-234.0890696 83.97264987 -234.0890696 83.97264987 -229.57202148 67.51782227 C-229.25164917 66.3330127 -229.25164917 66.3330127 -228.92480469 65.12426758 C-226.64189651 57.05437734 -223.44959951 49.53386812 -219.75952148 42.01782227 C-219.45143555 41.3786084 -219.14334961 40.73939453 -218.82592773 40.08081055 C-203.54114649 8.67882999 -175.15689189 -16.22944655 -142.23901367 -27.8737793 C-132.94682284 -30.95496557 -123.49545378 -33.76715863 -113.75952148 -34.98217773 C-112.93323242 -35.09174805 -112.10694336 -35.20131836 -111.25561523 -35.31420898 C-70.82983869 -39.8327384 -30.36085194 -27.05168377 0 0 Z " fill="#FFFFFF" transform="translate(1760.759521484375,312.982177734375)"/>
<path d="M0 0 C1.82607439 -0.00339833 1.82607439 -0.00339833 3.68903917 -0.00686532 C7.0469036 -0.01207913 10.40471423 -0.01285388 13.76257885 -0.01167095 C17.39262131 -0.01146604 21.02265593 -0.0169943 24.6526947 -0.02172852 C31.75755984 -0.03001699 38.86241667 -0.03278256 45.96728624 -0.03334089 C51.74735134 -0.03381702 57.52741371 -0.03587659 63.30747795 -0.03904152 C79.71917639 -0.04784407 96.1308683 -0.05246165 112.54256911 -0.05171105 C113.42638858 -0.05167109 114.31020805 -0.05163113 115.22080994 -0.05158997 C116.10571727 -0.05154909 116.99062461 -0.0515082 117.90234732 -0.05146609 C132.23049983 -0.05105998 146.55862601 -0.06062149 160.88677091 -0.07472833 C175.62249667 -0.08912115 190.35820962 -0.09599688 205.09394258 -0.09513456 C213.3573079 -0.09480353 221.62064564 -0.09750878 229.88400459 -0.10831261 C236.92219642 -0.11745604 243.96034817 -0.11956159 250.99854339 -0.11280318 C254.58331285 -0.10955693 258.16800559 -0.10941188 261.75276756 -0.11815643 C295.71630788 -0.19582839 295.71630788 -0.19582839 312.17417908 4.32121277 C312.96260193 4.53406921 313.75102478 4.74692566 314.56333923 4.9662323 C322.62932512 7.24557396 330.16393264 10.44110772 337.67417908 14.13371277 C339.35253845 14.95162292 339.35253845 14.95162292 341.06480408 15.78605652 C372.65565209 32.0011657 397.24989395 60.51275337 408.43980408 94.27824402 C411.1095241 102.75434833 413.57137684 111.29697274 414.67417908 120.13371277 C414.78374939 120.96000183 414.8933197 121.78629089 415.00621033 122.63761902 C419.11877302 159.43134654 408.98258618 197.08936204 386.12828064 226.33927917 C361.8619707 256.28511162 327.59795382 274.76394923 289.29747832 278.92213583 C284.32874352 279.32287917 279.35735335 279.27799689 274.37527466 279.27415466 C273.160714 279.27712579 271.94615333 279.28009691 270.6947878 279.28315806 C267.34464788 279.29030045 263.99455929 279.29301442 260.6444155 279.29375553 C257.02247465 279.29561622 253.4005447 279.30316873 249.77861023 279.30989075 C241.86689712 279.32343527 233.9551891 279.32949313 226.04346633 279.33390141 C221.09452124 279.33667123 216.14557808 279.34090998 211.19663429 279.34540558 C197.47007845 279.35759472 183.74352414 279.36789373 170.01696301 279.37128067 C168.70076036 279.37161002 168.70076036 279.37161002 167.35796775 279.37194602 C166.47850039 279.3721643 165.59903303 279.37238258 164.69291514 279.37260747 C162.91103502 279.37305092 161.1291549 279.37349748 159.34727478 279.37394714 C158.46341669 279.37416857 157.57955859 279.37439 156.66891692 279.37461814 C142.36932047 279.37856036 128.06977515 279.39599835 113.77019843 279.41930667 C99.05705345 279.4430936 84.34393405 279.4554859 69.63076955 279.45664859 C61.38290927 279.4575614 53.13511559 279.4632134 44.88727379 279.4814682 C37.85943152 279.49696887 30.83167642 279.50193164 23.80382027 279.4937301 C20.22661861 279.48985807 16.64959193 279.49058113 13.07241249 279.50478745 C-31.02635424 279.66971824 -69.49153378 269.18159103 -101.77894592 237.77824402 C-122.39538311 217.0342024 -136.69648987 188.2154954 -140.32582092 159.13371277 C-140.43539124 158.30742371 -140.54496155 157.48113464 -140.65785217 156.62980652 C-144.77041486 119.83607899 -134.63422803 82.1780635 -111.77992249 52.92814636 C-87.51461288 22.98354838 -53.25014448 4.50273106 -14.95076478 0.34487855 C-9.97245965 -0.05560533 -4.99155635 -0.00686334 0 0 Z " fill="#FFFFFF" transform="translate(2640.3258209228516,1526.8662872314453)"/>
<path d="M0 0 C1.21456066 -0.00297112 2.42912133 -0.00594224 3.68048686 -0.0090034 C7.03062677 -0.01614578 10.38071536 -0.01885975 13.73085916 -0.01960087 C17.3528 -0.02146156 20.97472995 -0.02901406 24.59666443 -0.03573608 C32.50837754 -0.04928061 40.42008556 -0.05533847 48.33180833 -0.05974674 C53.28075342 -0.06251656 58.22969658 -0.06675532 63.17864037 -0.07125092 C76.90519621 -0.08344006 90.63175052 -0.09373907 104.35831165 -0.09712601 C105.23578009 -0.09734557 106.11324852 -0.09756514 107.01730691 -0.09779136 C107.89677427 -0.09800964 108.77624163 -0.09822791 109.68235952 -0.09845281 C111.46423964 -0.09889626 113.24611976 -0.09934282 115.02799988 -0.09979248 C115.91185797 -0.10001391 116.79571607 -0.10023534 117.70635774 -0.10046348 C132.00595419 -0.1044057 146.3054995 -0.12184369 160.60507623 -0.145152 C175.31822121 -0.16893894 190.03134061 -0.18133124 204.74450511 -0.18249393 C212.99236539 -0.18340674 221.24015907 -0.18905874 229.48800087 -0.20731354 C236.51584314 -0.2228142 243.54359824 -0.22777698 250.57145438 -0.21957543 C254.14865605 -0.21570341 257.72568273 -0.21642646 261.30286217 -0.23063278 C305.4016289 -0.39556358 343.86680844 10.09256364 376.15422058 41.49591064 C396.77065777 62.23995226 411.07176452 91.05865927 414.70109558 120.14044189 C414.81066589 120.96673096 414.92023621 121.79302002 415.03312683 122.64434814 C419.14568952 159.43807567 409.00950269 197.09609116 386.15519714 226.3460083 C361.8888872 256.29184075 327.62487032 274.77067835 289.32439482 278.92886496 C284.35566003 279.32960829 279.38426985 279.28472602 274.40219116 279.28088379 C273.1876305 279.28385491 271.97306984 279.28682603 270.7217043 279.28988719 C267.37156439 279.29702957 264.0214758 279.29974354 260.671332 279.30048466 C257.04939116 279.30234534 253.42746121 279.30989785 249.80552673 279.31661987 C241.89381362 279.33016439 233.98210561 279.33622226 226.07038283 279.34063053 C221.12143774 279.34340035 216.17249458 279.34763911 211.2235508 279.3521347 C197.49699495 279.36432385 183.77044065 279.37462286 170.04387951 279.3780098 C168.72767686 279.37833915 168.72767686 279.37833915 167.38488426 279.37867515 C166.5054169 279.37889343 165.62594953 279.3791117 164.71983165 279.3793366 C162.93795152 279.37978005 161.1560714 279.38022661 159.37419128 279.38067627 C158.49033319 279.3808977 157.6064751 279.38111913 156.69583342 279.38134727 C142.39623697 279.38528949 128.09669166 279.40272748 113.79711493 279.42603579 C99.08396995 279.44982272 84.37085055 279.46221503 69.65768605 279.46337771 C61.40982578 279.46429053 53.16203209 279.46994253 44.91419029 279.48819733 C37.88634802 279.50369799 30.85859292 279.50866077 23.83073678 279.50045922 C20.25353512 279.4965872 16.67650843 279.49731025 13.09932899 279.51151657 C-30.99943773 279.67644737 -69.46461728 269.18832015 -101.75202942 237.78497314 C-122.36846661 217.04093153 -136.66957336 188.22222452 -140.29890442 159.14044189 C-140.40847473 158.31415283 -140.51804504 157.48786377 -140.63093567 156.63653564 C-144.74349836 119.84280812 -134.60731152 82.18479263 -111.75300598 52.93487549 C-87.48669604 22.98904304 -53.22267916 4.51020544 -14.92220366 0.35201883 C-9.95346886 -0.04872451 -4.98207869 -0.00384223 0 0 Z " fill="#FFFFFF" transform="translate(418.2989044189453,1526.8595581054688)"/>
</svg>
